<svg id="Layer_1" data-name="Layer 1" xmlns="http://www.w3.org/2000/svg" viewBox="0 0 1767.66 1767.69"><defs><style>.cls-1{fill:#0077b2;}</style></defs><title>logo</title><path class="cls-1" d="M464.69,1078.51l-4.44,1-7.6,82.75,24.53-5.6q3.74-.86,25-6.79Zm257.06-39.07q-4.29-18.74-19-25.05t-40.92-.32c-2.3.52-3.7,1.33-4.3,2.42s-.64,3.26-.12,6.49q6,35.54,13.16,70.11l31.44-3.6a64.49,64.49,0,0,0,17.2-18.81Q726.27,1059.21,721.75,1039.44Zm0,0q-4.29-18.74-19-25.05t-40.92-.32c-2.3.52-3.7,1.33-4.3,2.42s-.64,3.26-.12,6.49q6,35.54,13.16,70.11l31.44-3.6a64.49,64.49,0,0,0,17.2-18.81Q726.27,1059.21,721.75,1039.44Zm-257.06,39.07-4.44,1-7.6,82.75,24.53-5.6q3.74-.86,25-6.79Zm0,0-4.44,1-7.6,82.75,24.53-5.6q3.74-.86,25-6.79Zm257.06-39.07q-4.29-18.74-19-25.05t-40.92-.32c-2.3.52-3.7,1.33-4.3,2.42s-.64,3.26-.12,6.49q6,35.54,13.16,70.11l31.44-3.6a64.49,64.49,0,0,0,17.2-18.81Q726.27,1059.21,721.75,1039.44ZM957.29,482.52c-334.33,0-605.36,212.64-605.36,475a376.94,376.94,0,0,0,8.91,81.61c49.28-181.44,297.58-319.42,596.45-319.42s547.17,138,596.45,319.42a378.19,378.19,0,0,0,8.91-81.61C1562.65,695.16,1291.62,482.52,957.29,482.52Zm0,0c-334.33,0-605.36,212.64-605.36,475a376.94,376.94,0,0,0,8.91,81.61c49.28-181.44,297.58-319.42,596.45-319.42s547.17,138,596.45,319.42a378.19,378.19,0,0,0,8.91-81.61C1562.65,695.16,1291.62,482.52,957.29,482.52ZM721.75,1039.44q-4.29-18.74-19-25.05t-40.92-.32c-2.3.52-3.7,1.33-4.3,2.42s-.64,3.26-.12,6.49q6,35.54,13.16,70.11l31.44-3.6a64.49,64.49,0,0,0,17.2-18.81Q726.27,1059.21,721.75,1039.44Zm-257.06,39.07-4.44,1-7.6,82.75,24.53-5.6q3.74-.86,25-6.79Zm0,0-4.44,1-7.6,82.75,24.53-5.6q3.74-.86,25-6.79Zm257.06-39.07q-4.29-18.74-19-25.05t-40.92-.32c-2.3.52-3.7,1.33-4.3,2.42s-.64,3.26-.12,6.49q6,35.54,13.16,70.11l31.44-3.6a64.49,64.49,0,0,0,17.2-18.81Q726.27,1059.21,721.75,1039.44ZM957.29,482.52c-334.33,0-605.36,212.64-605.36,475a376.94,376.94,0,0,0,8.91,81.61c49.28-181.44,297.58-319.42,596.45-319.42s547.17,138,596.45,319.42a378.19,378.19,0,0,0,8.91-81.61C1562.65,695.16,1291.62,482.52,957.29,482.52Zm0,0c-334.33,0-605.36,212.64-605.36,475a376.94,376.94,0,0,0,8.91,81.61c49.28-181.44,297.58-319.42,596.45-319.42s547.17,138,596.45,319.42a378.19,378.19,0,0,0,8.91-81.61C1562.65,695.16,1291.62,482.52,957.29,482.52ZM721.75,1039.44q-4.29-18.74-19-25.05t-40.92-.32c-2.3.52-3.7,1.33-4.3,2.42s-.64,3.26-.12,6.49q6,35.54,13.16,70.11l31.44-3.6a64.49,64.49,0,0,0,17.2-18.81Q726.27,1059.21,721.75,1039.44Zm-257.06,39.07-4.44,1-7.6,82.75,24.53-5.6q3.74-.86,25-6.79Zm0,0-4.44,1-7.6,82.75,24.53-5.6q3.74-.86,25-6.79Zm257.06-39.07q-4.29-18.74-19-25.05t-40.92-.32c-2.3.52-3.7,1.33-4.3,2.42s-.64,3.26-.12,6.49q6,35.54,13.16,70.11l31.44-3.6a64.49,64.49,0,0,0,17.2-18.81Q726.27,1059.21,721.75,1039.44ZM957.29,482.52c-334.33,0-605.36,212.64-605.36,475a376.94,376.94,0,0,0,8.91,81.61c49.28-181.44,297.58-319.42,596.45-319.42s547.17,138,596.45,319.42a378.19,378.19,0,0,0,8.91-81.61C1562.65,695.16,1291.62,482.52,957.29,482.52Zm0,0c-334.33,0-605.36,212.64-605.36,475a376.94,376.94,0,0,0,8.91,81.61c49.28-181.44,297.58-319.42,596.45-319.42s547.17,138,596.45,319.42a378.19,378.19,0,0,0,8.91-81.61C1562.65,695.16,1291.62,482.52,957.29,482.52ZM721.75,1039.44q-4.29-18.74-19-25.05t-40.92-.32c-2.3.52-3.7,1.33-4.3,2.42s-.64,3.26-.12,6.49q6,35.54,13.16,70.11l31.44-3.6a64.49,64.49,0,0,0,17.2-18.81Q726.27,1059.21,721.75,1039.44Zm-257.06,39.07-4.44,1-7.6,82.75,24.53-5.6q3.74-.86,25-6.79Zm0,0-4.44,1-7.6,82.75,24.53-5.6q3.74-.86,25-6.79Zm257.06-39.07q-4.29-18.74-19-25.05t-40.92-.32c-2.3.52-3.7,1.33-4.3,2.42s-.64,3.26-.12,6.49q6,35.54,13.16,70.11l31.44-3.6a64.49,64.49,0,0,0,17.2-18.81Q726.27,1059.21,721.75,1039.44Zm553.66,153.83c-1.51-6.69-3.51-11.58-6-14.64s-5.36-4.24-8.71-3.48c-4.32,1-7.13,4.25-8.49,9.82s-1,13,1.08,22.14c1.71,7.45,3.88,12.93,6.54,16.49s5.58,4.93,8.72,4.22c4.31-1,7.1-4.44,8.36-10.39S1277.7,1203.41,1275.41,1193.27ZM957.29,482.52c-334.33,0-605.36,212.64-605.36,475a376.94,376.94,0,0,0,8.91,81.61c49.28-181.44,297.58-319.42,596.45-319.42s547.17,138,596.45,319.42a378.19,378.19,0,0,0,8.91-81.61C1562.65,695.16,1291.62,482.52,957.29,482.52Zm0,0c-334.33,0-605.36,212.64-605.36,475a376.94,376.94,0,0,0,8.91,81.61c49.28-181.44,297.58-319.42,596.45-319.42s547.17,138,596.45,319.42a378.19,378.19,0,0,0,8.91-81.61C1562.65,695.16,1291.62,482.52,957.29,482.52Zm318.12,710.75c-1.51-6.69-3.51-11.58-6-14.64s-5.36-4.24-8.71-3.48c-4.32,1-7.13,4.25-8.49,9.82s-1,13,1.08,22.14c1.71,7.45,3.88,12.93,6.54,16.49s5.58,4.93,8.72,4.22c4.31-1,7.1-4.44,8.36-10.39S1277.7,1203.41,1275.41,1193.27ZM721.75,1039.44q-4.29-18.74-19-25.05t-40.92-.32c-2.3.52-3.7,1.33-4.3,2.42s-.64,3.26-.12,6.49q6,35.54,13.16,70.11l31.44-3.6a64.49,64.49,0,0,0,17.2-18.81Q726.27,1059.21,721.75,1039.44Zm-257.06,39.07-4.44,1-7.6,82.75,24.53-5.6q3.74-.86,25-6.79Zm0,0-4.44,1-7.6,82.75,24.53-5.6q3.74-.86,25-6.79Zm257.06-39.07q-4.29-18.74-19-25.05t-40.92-.32c-2.3.52-3.7,1.33-4.3,2.42s-.64,3.26-.12,6.49q6,35.54,13.16,70.11l31.44-3.6a64.49,64.49,0,0,0,17.2-18.81Q726.27,1059.21,721.75,1039.44Zm553.66,153.83c-1.51-6.69-3.51-11.58-6-14.64s-5.36-4.24-8.71-3.48c-4.32,1-7.13,4.25-8.49,9.82s-1,13,1.08,22.14c1.71,7.45,3.88,12.93,6.54,16.49s5.58,4.93,8.72,4.22c4.31-1,7.1-4.44,8.36-10.39S1277.7,1203.41,1275.41,1193.27Zm71.54-16.19c-1.5-6.69-3.5-11.58-5.94-14.64s-5.36-4.24-8.72-3.48c-4.32,1-7.13,4.25-8.49,9.82s-1,13,1.09,22.14c1.7,7.45,3.87,12.93,6.54,16.49s5.58,4.93,8.71,4.22c4.32-1,7.11-4.44,8.37-10.39S1349.25,1187.22,1347,1177.08ZM957.29,482.52c-334.33,0-605.36,212.64-605.36,475a376.94,376.94,0,0,0,8.91,81.61c49.28-181.44,297.58-319.42,596.45-319.42s547.17,138,596.45,319.42a378.19,378.19,0,0,0,8.91-81.61C1562.65,695.16,1291.62,482.52,957.29,482.52Zm0,0c-334.33,0-605.36,212.64-605.36,475a376.94,376.94,0,0,0,8.91,81.61c49.28-181.44,297.58-319.42,596.45-319.42s547.17,138,596.45,319.42a378.19,378.19,0,0,0,8.91-81.61C1562.65,695.16,1291.62,482.52,957.29,482.52ZM1347,1177.08c-1.5-6.69-3.5-11.58-5.94-14.64s-5.36-4.24-8.72-3.48c-4.32,1-7.13,4.25-8.49,9.82s-1,13,1.09,22.14c1.7,7.45,3.87,12.93,6.54,16.49s5.58,4.93,8.71,4.22c4.32-1,7.11-4.44,8.37-10.39S1349.25,1187.22,1347,1177.08Zm-71.54,16.19c-1.51-6.69-3.51-11.58-6-14.64s-5.36-4.24-8.71-3.48c-4.32,1-7.13,4.25-8.49,9.82s-1,13,1.08,22.14c1.71,7.45,3.88,12.93,6.54,16.49s5.58,4.93,8.72,4.22c4.31-1,7.1-4.44,8.36-10.39S1277.7,1203.41,1275.41,1193.27ZM721.75,1039.44q-4.29-18.74-19-25.05t-40.92-.32c-2.3.52-3.7,1.33-4.3,2.42s-.64,3.26-.12,6.49q6,35.54,13.16,70.11l31.44-3.6a64.49,64.49,0,0,0,17.2-18.81Q726.27,1059.21,721.75,1039.44Zm-257.06,39.07-4.44,1-7.6,82.75,24.53-5.6q3.74-.86,25-6.79ZM955.81,93.41C467.7,93.41,72,489.11,72,977.25s395.71,883.84,883.82,883.84,883.84-395.71,883.84-883.84S1443.94,93.41,955.81,93.41ZM595.61,1232.48q-12.36,2.44-25,5.36-18.06,4.11-35,9.25l-21.62,6.54-2.32-2.32-2.89-20.51a141.72,141.72,0,0,0,16.34-6.07c3.36-1.58,5.53-3.28,6.56-5.08s1.19-4.15.52-7.11a61.54,61.54,0,0,0-4.44-11.52l-13.15-24.61q-17.85,3.38-31.5,6.49-6.14,1.41-25.14,7.55l-7,2.32L448.5,1221q-.33,7.95.37,11c.94,4.07,2.76,6.64,5.53,7.67s7.06.92,13-.44l14.63-3.36,2.25,2,2.37,21.32q-4.85.75-20.71,3.48t-29.49,5.85q-14.32,3.3-25.64,6.22t-15,4.15l-2.7-22.68a24,24,0,0,0,11.48-9.43q3.93-6.29,5.73-18.88l21.47-186.67,50.89-17.38,4.14.87q9.56,18.24,39.46,74.68t49.86,90.22c4.37,7.61,8.88,12.66,13.52,15.21s10.89,3.23,18.78,2.14l1.9,2.08,2.13,20.31C609.46,1229.79,603.83,1230.83,595.61,1232.48Zm100.92-22.73q-15.4,3.18-28.36,6.15-12.58,2.85-25.74,6.59c-8.74,2.46-14.46,4.14-17.13,5l-2.07-23.17c9.28-3.31,15.1-7.28,17.52-11.9s2.5-11.79.27-21.57L610.87,1039q-2.26-9.88-5.26-12.79c-2-1.92-5.13-2.42-9.45-1.43-2.52.57-4.86,1.23-7.09,2s-3.67,1.21-4.34,1.36l-2.67-2.24-1.6-21.15q4.74-1.08,17.62-3.68t25.1-5.38q13.62-3.1,29.37-7.26t21.77-5.87q38.83-8.88,62.88,1.41t30.5,38.54a63.54,63.54,0,0,1-3.5,39.52q-8.12,19.43-27.69,35.73l41.11,41.86q13.15,13.52,23.55,18.29a32.57,32.57,0,0,0,21.32,2.29l3.09,2.52,1.65,18.26-39,12.86q-22.14,5.07-44.38-23.2l-43.36-53.18L676.32,1123l8.11,38.68q2.75,11.91,5.66,16.8a10.5,10.5,0,0,0,8.07,5.51q5.15.63,16.8-1.71l1.51,1.83,1.68,21.47Q711.93,1206.61,696.53,1209.75ZM877.18,979.17l9.85,54,32.08-7c4.79-1.08,10.69-2.74,17.7-4.93s14.06-4.59,21.12-7.16l3.43,2.44,1.85,30a53.55,53.55,0,0,1-6.88,1.23q-24,4.77-38,8a218.74,218.74,0,0,0-25.77,8L903,1112.71c1.46,6.35,3,10.79,4.64,13.28a8.93,8.93,0,0,0,7.06,4.12c3,.25,8.07-.42,15.13-2q22.47-5.14,31.94-10t12.11-13.69q2.64-8.85.89-27.47l27.4-8.76,3.08,2.51q.63,27.84,5.21,65.13l-2.54,4.52q-65.64,12.51-106.49,21.84A525.51,525.51,0,0,0,844,1178.9l-2.84-23.37q13.85-5.29,17.55-12.61t.27-22.29L829.62,990.75q-2.55-11.22-5.43-14.34t-9.67-1.56a100.61,100.61,0,0,0-10.39,3.09l-2.76-2.59-2-21.05,6.81-1.58q24.43-4.49,55.08-11.5,76-17.4,102.64-27.79l3.58,3.13q.15,13.22,1.93,31.12T973.8,980l-29.86,9-2.42-13.8Q939.2,965,935.3,961.4t-12.91-3.16q-9,.45-29.46,5.14a77.29,77.29,0,0,0-12.12,3.48c-2.17,1-3.46,2.34-3.9,4.12S876.56,975.5,877.18,979.17Zm39.34,321.5c-.67-4.93-1.83-12.63-3.43-23s-3.48-21.8-5.6-34.14l-1.29.3q-3,14.1-16.43,82.33l-10.89,3.8Q864,1295.55,847,1257.21l-1.28.3q2.66,60,3,61.57a4.44,4.44,0,0,0,1.78,3,4.93,4.93,0,0,0,3.55.22l5.26-1.53.86.82-.64,10.69q-9.36,1.44-18.58,3.52c-2.27.52-4.94,1.26-8,2.25s-5.53,1.85-7.41,2.62l.1-10.91a11.72,11.72,0,0,0,6.22-4.81q1.84-3.15,1.95-9.48-.1-16.95-.59-42.47t-1-27.62a5.17,5.17,0,0,0-3.45-4.05c-1.86-.66-4.82-.71-8.89-.12l-1-.79.4-9.63q17.17-3,19.92-3.65,3.25-.74,16.68-4.47,6,16,13.65,34.36t13.59,31.14l1.29-.29q5.52-27.62,13-74.24a86.12,86.12,0,0,1,8.64-1.78l8.29-1.72c1.92-.42,7.85-2.1,17.74-5l.79.52,0,9.85c-4.35,1.45-7.26,3-8.76,4.54s-2.1,4-1.73,7q.66,6,4.15,25.45t6.54,36.1q1.69,9,3.57,11.7a4.79,4.79,0,0,0,5.46,1.93l4.47-1.36c.12.1.27.2.41.32a1.07,1.07,0,0,1,.3.54l-.32,10.61q-12.25,2.27-15.82,3.09c-3.13.69-7.06,1.73-11.8,3.08s-8.31,2.5-10.73,3.36l.2-11.11q4.59-1.52,6.36-3.89A8.83,8.83,0,0,0,916.52,1300.67Zm-18.86,189.74a122.85,122.85,0,0,1-166-73.23l-.59-1.82c.37,0,.76.05,1.13.05s.5,0,.74,0c6.72,0,13-3.43,18.37-9.38,8.63-9.6,16.68-20.46,23.89-38.84,8.95-12,15.25-19.62,28-21.52-1.63,36-12.68,67.22-28.7,85.53a138.87,138.87,0,0,0,187.19-7A123.21,123.21,0,0,1,897.66,1490.41Zm118.81-197c-3.33,3.88-6.49,6.15-9.52,6.84-4.52,1-7.26-.47-8.15-4.47q-.78-3.36-.67-30l-1.35,0q-6.67,28.55-16.91,40.4-8.4,1.92-14.11-1.14c-3.81-2-6.25-5.43-7.33-10.16a39.41,39.41,0,0,1-.5-9c.13-3.93.37-9.41.72-16.41q1.14-18.1.37-21.7a5.82,5.82,0,0,0-2.45-3.95c-1.16-.69-2.83-.79-5-.32l-5.65,1.29-.52-9.75q9.25-2.07,30.31-8.22l2.49,2q-2,20.36-2.76,35.17c-.49,9.84-.49,15.87,0,18a6.19,6.19,0,0,0,1.63,3.38,3.42,3.42,0,0,0,3.16.5q3.56-.82,7.92-13.55t8-33.29l-1-15.92,2-1.66,16.37-2.86,2.14,1.9q-1.07,12.66-1.18,28.61t.64,27.69l.64.51a9.71,9.71,0,0,0,2.77-2.39c1-1.21,2.71-3.38,5.08-6.52l2.81-.29,3.88,5.08Q1021.45,1287.65,1016.47,1293.46Zm42.45-342.59a22.16,22.16,0,0,0,9.33,13.47,59.41,59.41,0,0,0,16.93,8.14q9.43,2.85,27.24,7,21.18,4.82,35.32,9.48a73.78,73.78,0,0,1,25.32,14.28q11.19,9.63,14.83,25.65,4.66,20.43-3.52,38.62t-27.57,31.59q-19.36,13.36-47.61,19.84a139.34,139.34,0,0,1-29.64,3.73,147.28,147.28,0,0,1-23.39-1.29c-6.32-.93-9.51-1.53-9.56-1.75l-3.82-4.14c-.12-1.63-.42-5.24-.84-10.74s-1.21-12.88-2.34-22.06-2.69-18-4.62-26.36l27.49-8.44q4.33,19.1,10.1,28.53t14.73,11.87c6,1.6,14,1.28,24-1q16.37-3.73,24.59-13.16t5.38-22q-2.6-11.25-14.76-16.71t-36.4-11c-1-.25-3.93-.89-8.69-2q-28.37-6.44-45.78-16.78t-22.41-32.16a58.17,58.17,0,0,1,3.6-37.56q8-18.13,26.66-31.57T1088.29,885a183.29,183.29,0,0,1,28.23-4.3,185.58,185.58,0,0,1,21.42-.42c5.46.32,8.91.55,10.37.67l3.4,3.9c.08,1.4.2,5,.35,10.86s.62,13.18,1.46,22.06,2,18,3.35,27.2l-24.75,7.8-3.53-1.34c-.17-.69-.37-2.12-.64-4.34s-.77-4.89-1.48-8.07q-3.53-15.33-12.66-20.06t-27.2-.6q-14.65,3.38-22.43,12.49T1058.92,950.87ZM1083.85,1269a30.67,30.67,0,0,1-9.48,12.27,40.4,40.4,0,0,1-30.38,7.82c-4.47-.86-7.5-2.66-9.13-5.35a57.39,57.39,0,0,1,3.63-19.35l3.11-.55c1.2,4.37,3.4,7.61,6.58,9.65s7,2.59,11.28,1.63a10.11,10.11,0,0,0,6.12-3.7,7,7,0,0,0,1.39-6,8,8,0,0,0-3.85-5,64.31,64.31,0,0,0-9.16-4.29,102.42,102.42,0,0,1-9.48-4.25,25.21,25.21,0,0,1-6.49-5.08,16.87,16.87,0,0,1-4.12-8.09,23,23,0,0,1,1.09-14,28.43,28.43,0,0,1,8.91-11.79,34.86,34.86,0,0,1,14.43-6.84,37.81,37.81,0,0,1,12.07-.86,21.78,21.78,0,0,1,9.5,3,111.85,111.85,0,0,1-3.95,17.91l-3.06.7a16.61,16.61,0,0,0-6.61-5.93,11.68,11.68,0,0,0-7.7-.89,8.32,8.32,0,0,0-5,3.16,6.5,6.5,0,0,0-1.08,5.36q.88,3.89,6.59,6.51c1.13.55,2.27,1,3.4,1.53s2.13.92,3,1.29a61.22,61.22,0,0,1,13.31,6.93,16.34,16.34,0,0,1,6.36,10A22.8,22.8,0,0,1,1083.85,1269Zm73.27-7.82q-5.19,6.11-9.7,7.13-7.62,1.74-9.18-5.23a33.51,33.51,0,0,1-.42-8.24q.18-5.49.94-15,.51-7.41.79-14.56c.17-4.74,0-8.07-.4-10a7.39,7.39,0,0,0-2.1-4,3.92,3.92,0,0,0-3.6-.79c-2.69.62-5.48,5.13-8.32,13.55s-5.33,19.1-7.4,32l1.23,12.14q.12,2-4.88,5.19a31.69,31.69,0,0,1-10.14,4.34l-2.67-2q-1-14.92-3.78-56.57t-3.65-47.75c-.32-2.42-1.06-4.05-2.22-4.86s-2.91-1-5.28-.42l-5.65,1.28-.64-9.55q7.44-1.69,17.52-4.56c6.71-1.93,11-3.21,13-3.9l2.37,2.19c0,2.27,0,7.55.1,15.8s.35,18.33.72,30.21.91,23.24,1.65,34.08l1-.05a166.23,166.23,0,0,1,8.42-26.75q4.66-10.92,10-16c5.28-1.18,9.95-.64,14,1.68a15.61,15.61,0,0,1,7.65,10.61,39.65,39.65,0,0,1,.49,10.44c-.22,4.47-.74,10.27-1.5,17.35q-1.38,12.07-1.41,17.85l.59.37a6,6,0,0,0,2.59-2.1c1.06-1.26,3.21-4.15,6.39-8.59l2.87-.15,3.87,5.09Q1162.28,1255.1,1157.12,1261.21Zm70.58-67.1c-.17,2.49-.29,4.07-.37,4.76l-6.07,1.73c-.76-3.8-2.15-5.48-4.19-5q-4.71,1.07-9,11.13t-6.86,26.48l1.58,16c.07,1.35-1.53,3.08-4.86,5.2a31.91,31.91,0,0,1-10.17,4.32l-2.64-2c-.25-5.5-.81-16-1.75-31.42s-1.73-24.5-2.35-27.19q-.71-3.26-2.42-4.39c-1.15-.77-2.83-.89-5.1-.37l-5.68,1.28-.67-9.73c5-1.13,10.76-2.64,17.35-4.51s10.94-3.14,13-3.7l2.52,2.14c-.18,1.76-.4,5.63-.67,11.65a175.43,175.43,0,0,0,0,17.77l1-.22c2.17-10.46,5.13-19.18,8.91-26.09s7.82-11,12.19-12.21a7.87,7.87,0,0,1,3.45,2.46,11.14,11.14,0,0,1,2.5,4.2,48.59,48.59,0,0,1,.66,9C1228,1188.73,1227.87,1191.64,1227.7,1194.11Zm66.51,14.56a46.2,46.2,0,0,1-10.21,21.79,34.75,34.75,0,0,1-19,11.45c-7.11,1.63-13.3.32-18.56-3.88s-8.91-10.76-10.93-19.71a61.21,61.21,0,0,1-.45-26.39,45.5,45.5,0,0,1,10.34-21.22,35.08,35.08,0,0,1,18.83-11.16c7.33-1.65,13.58-.59,18.69,3.19s8.63,10,10.58,18.61A65.82,65.82,0,0,1,1294.21,1208.67Zm71.55-16.19a46.21,46.21,0,0,1-10.22,21.79,34.51,34.51,0,0,1-19,11.45c-7.1,1.63-13.3.32-18.56-3.87s-8.9-10.77-10.93-19.72a61.21,61.21,0,0,1-.44-26.39,45.4,45.4,0,0,1,10.34-21.22,35.08,35.08,0,0,1,18.83-11.16q11-2.47,18.68,3.19t10.59,18.63A65.72,65.72,0,0,1,1365.76,1192.48Zm117.13-5q-5.27,6.11-9.63,7.1c-5.08,1.14-8.14-.59-9.18-5.23a30,30,0,0,1-.34-7.92c.17-3.46.56-8.69,1.11-15.75s1.06-12.53,1.21-16.09a32.26,32.26,0,0,0-.42-8.24,7.06,7.06,0,0,0-2.18-4,3.83,3.83,0,0,0-3.5-.89c-2.81.62-5.8,5.48-9,14.54s-6,20.41-8.29,34.11l.64,9.55q.11,2-4.86,5.18a31.52,31.52,0,0,1-10.17,4.34l-2.66-2q.21-7.36.24-27.86t-.84-24.41a6.23,6.23,0,0,0-2-3.7,4.07,4.07,0,0,0-3.55-.64c-2.6.57-5.29,5.08-8.1,13.47s-5.18,19.08-7.13,32l1.21,12.14c.07,1.36-1.56,3.09-4.86,5.21a32.33,32.33,0,0,1-10.17,4.32l-2.67-1.95c-.29-5.36-.94-15.65-1.87-30.88s-1.66-24.31-2.08-27.27c-.32-2.42-1.08-4-2.29-4.83s-3-.94-5.38-.4l-5.65,1.28-.67-9.72q7.44-1.69,17.35-4.52t13-3.7l2.51,2.15c-.12.94-.29,3.11-.49,6.49s-.34,7.6-.44,12.61,0,10,.27,14.73h.84q7.37-32.83,18.06-42.72c5.19-1.18,9.73-.64,13.65,1.58A15.25,15.25,0,0,1,1442,1136c.47,2,.62,5.75.44,11.06s-.29,8.88-.44,10.73l.84,0a151.3,151.3,0,0,1,8.29-26.56q4.77-11.1,10.41-16.31c5.31-1.19,9.85-.67,13.65,1.6a15.62,15.62,0,0,1,7.31,10.52,41.4,41.4,0,0,1,.47,10.68q-.37,7-1.48,17.11c-.89,8.14-1.34,14.21-1.36,18.16l.62.39c.64-.14,1.62-1.06,3-2.71s3.33-4.32,6-8l3-.17,3.7,5.11Q1488.16,1181.37,1482.89,1187.52Zm79.22-98.65c-2.54,5.7-5.18,11.33-8,16.93a311,311,0,0,0-9.65-32.35c-66-184.26-303.83-320.71-587.2-320.71S436,889.19,370.09,1073.45a310,310,0,0,0-9.65,32.33q-4.17-8.4-8-16.93a381.82,381.82,0,0,1-30.2-109.38,368.2,368.2,0,0,1-2.65-44.23V935c.2-266.86,285.62-483.15,637.67-483.15S1595,668.29,1595,935.24C1595,989,1583.41,1040.6,1562.11,1088.87ZM957.29,482.52c-334.33,0-605.36,212.64-605.36,475a376.94,376.94,0,0,0,8.91,81.61c49.28-181.44,297.58-319.42,596.45-319.42s547.17,138,596.45,319.42a378.19,378.19,0,0,0,8.91-81.61C1562.65,695.16,1291.62,482.52,957.29,482.52ZM1341,1162.44c-2.47-3.08-5.36-4.24-8.72-3.48-4.32,1-7.13,4.25-8.49,9.82s-1,13,1.09,22.14c1.7,7.45,3.87,12.93,6.54,16.49s5.58,4.93,8.71,4.22c4.32-1,7.11-4.44,8.37-10.39s.74-14-1.56-24.16C1345.45,1170.39,1343.45,1165.5,1341,1162.44Zm-71.55,16.19c-2.47-3.08-5.36-4.24-8.71-3.48-4.32,1-7.13,4.25-8.49,9.82s-1,13,1.08,22.14c1.71,7.45,3.88,12.93,6.54,16.49s5.58,4.93,8.72,4.22c4.31-1,7.1-4.44,8.36-10.39s.74-14-1.55-24.16C1273.9,1186.58,1271.9,1181.69,1269.46,1178.63Zm-550.25-108q7.06-11.48,2.54-31.24-4.29-18.74-19-25.05t-40.92-.32c-2.3.52-3.7,1.33-4.3,2.42s-.64,3.26-.12,6.49q6,35.54,13.16,70.11l31.44-3.6A64.49,64.49,0,0,0,719.21,1070.68Zm-259,8.84-7.6,82.75,24.53-5.6q3.74-.86,25-6.79l-37.46-71.37Zm4.44-1-4.44,1-7.6,82.75,24.53-5.6q3.74-.86,25-6.79Zm257.06-39.07q-4.29-18.74-19-25.05t-40.92-.32c-2.3.52-3.7,1.33-4.3,2.42s-.64,3.26-.12,6.49q6,35.54,13.16,70.11l31.44-3.6a64.49,64.49,0,0,0,17.2-18.81Q726.27,1059.21,721.75,1039.44Zm553.66,153.83c-1.51-6.69-3.51-11.58-6-14.64s-5.36-4.24-8.71-3.48c-4.32,1-7.13,4.25-8.49,9.82s-1,13,1.08,22.14c1.71,7.45,3.88,12.93,6.54,16.49s5.58,4.93,8.72,4.22c4.31-1,7.1-4.44,8.36-10.39S1277.7,1203.41,1275.41,1193.27Zm71.54-16.19c-1.5-6.69-3.5-11.58-5.94-14.64s-5.36-4.24-8.72-3.48c-4.32,1-7.13,4.25-8.49,9.82s-1,13,1.09,22.14c1.7,7.45,3.87,12.93,6.54,16.49s5.58,4.93,8.71,4.22c4.32-1,7.11-4.44,8.37-10.39S1349.25,1187.22,1347,1177.08ZM957.29,482.52c-334.33,0-605.36,212.64-605.36,475a376.94,376.94,0,0,0,8.91,81.61c49.28-181.44,297.58-319.42,596.45-319.42s547.17,138,596.45,319.42a378.19,378.19,0,0,0,8.91-81.61C1562.65,695.16,1291.62,482.52,957.29,482.52Zm0,0c-334.33,0-605.36,212.64-605.36,475a376.94,376.94,0,0,0,8.91,81.61c49.28-181.44,297.58-319.42,596.45-319.42s547.17,138,596.45,319.42a378.19,378.19,0,0,0,8.91-81.61C1562.65,695.16,1291.62,482.52,957.29,482.52ZM1347,1177.08c-1.5-6.69-3.5-11.58-5.94-14.64s-5.36-4.24-8.72-3.48c-4.32,1-7.13,4.25-8.49,9.82s-1,13,1.09,22.14c1.7,7.45,3.87,12.93,6.54,16.49s5.58,4.93,8.71,4.22c4.32-1,7.11-4.44,8.37-10.39S1349.25,1187.22,1347,1177.08Zm-71.54,16.19c-1.51-6.69-3.51-11.58-6-14.64s-5.36-4.24-8.71-3.48c-4.32,1-7.13,4.25-8.49,9.82s-1,13,1.08,22.14c1.71,7.45,3.88,12.93,6.54,16.49s5.58,4.93,8.72,4.22c4.31-1,7.1-4.44,8.36-10.39S1277.7,1203.41,1275.41,1193.27ZM721.75,1039.44q-4.29-18.74-19-25.05t-40.92-.32c-2.3.52-3.7,1.33-4.3,2.42s-.64,3.26-.12,6.49q6,35.54,13.16,70.11l31.44-3.6a64.49,64.49,0,0,0,17.2-18.81Q726.27,1059.21,721.75,1039.44Zm-257.06,39.07-4.44,1-7.6,82.75,24.53-5.6q3.74-.86,25-6.79Zm0,0-4.44,1-7.6,82.75,24.53-5.6q3.74-.86,25-6.79Zm257.06-39.07q-4.29-18.74-19-25.05t-40.92-.32c-2.3.52-3.7,1.33-4.3,2.42s-.64,3.26-.12,6.49q6,35.54,13.16,70.11l31.44-3.6a64.49,64.49,0,0,0,17.2-18.81Q726.27,1059.21,721.75,1039.44ZM957.29,482.52c-334.33,0-605.36,212.64-605.36,475a376.94,376.94,0,0,0,8.91,81.61c49.28-181.44,297.58-319.42,596.45-319.42s547.17,138,596.45,319.42a378.19,378.19,0,0,0,8.91-81.61C1562.65,695.16,1291.62,482.52,957.29,482.52Zm0,0c-334.33,0-605.36,212.64-605.36,475a376.94,376.94,0,0,0,8.91,81.61c49.28-181.44,297.58-319.42,596.45-319.42s547.17,138,596.45,319.42a378.19,378.19,0,0,0,8.91-81.61C1562.65,695.16,1291.62,482.52,957.29,482.52ZM721.75,1039.44q-4.29-18.74-19-25.05t-40.92-.32c-2.3.52-3.7,1.33-4.3,2.42s-.64,3.26-.12,6.49q6,35.54,13.16,70.11l31.44-3.6a64.49,64.49,0,0,0,17.2-18.81Q726.27,1059.21,721.75,1039.44Zm-257.06,39.07-4.44,1-7.6,82.75,24.53-5.6q3.74-.86,25-6.79Zm0,0-4.44,1-7.6,82.75,24.53-5.6q3.74-.86,25-6.79Zm257.06-39.07q-4.29-18.74-19-25.05t-40.92-.32c-2.3.52-3.7,1.33-4.3,2.42s-.64,3.26-.12,6.49q6,35.54,13.16,70.11l31.44-3.6a64.49,64.49,0,0,0,17.2-18.81Q726.27,1059.21,721.75,1039.44ZM957.29,482.52c-334.33,0-605.36,212.64-605.36,475a376.94,376.94,0,0,0,8.91,81.61c49.28-181.44,297.58-319.42,596.45-319.42s547.17,138,596.45,319.42a378.19,378.19,0,0,0,8.91-81.61C1562.65,695.16,1291.62,482.52,957.29,482.52Zm0,0c-334.33,0-605.36,212.64-605.36,475a376.94,376.94,0,0,0,8.91,81.61c49.28-181.44,297.58-319.42,596.45-319.42s547.17,138,596.45,319.42a378.19,378.19,0,0,0,8.91-81.61C1562.65,695.16,1291.62,482.52,957.29,482.52ZM721.75,1039.44q-4.29-18.74-19-25.05t-40.92-.32c-2.3.52-3.7,1.33-4.3,2.42s-.64,3.26-.12,6.49q6,35.54,13.16,70.11l31.44-3.6a64.49,64.49,0,0,0,17.2-18.81Q726.27,1059.21,721.75,1039.44Zm-257.06,39.07-4.44,1-7.6,82.75,24.53-5.6q3.74-.86,25-6.79Zm0,0-4.44,1-7.6,82.75,24.53-5.6q3.74-.86,25-6.79Zm257.06-39.07q-4.29-18.74-19-25.05t-40.92-.32c-2.3.52-3.7,1.33-4.3,2.42s-.64,3.26-.12,6.49q6,35.54,13.16,70.11l31.44-3.6a64.49,64.49,0,0,0,17.2-18.81Q726.27,1059.21,721.75,1039.44ZM957.29,482.52c-334.33,0-605.36,212.64-605.36,475a376.94,376.94,0,0,0,8.91,81.61c49.28-181.44,297.58-319.42,596.45-319.42s547.17,138,596.45,319.42a378.19,378.19,0,0,0,8.91-81.61C1562.65,695.16,1291.62,482.52,957.29,482.52Zm0,0c-334.33,0-605.36,212.64-605.36,475a376.94,376.94,0,0,0,8.91,81.61c49.28-181.44,297.58-319.42,596.45-319.42s547.17,138,596.45,319.42a378.19,378.19,0,0,0,8.91-81.61C1562.65,695.16,1291.62,482.52,957.29,482.52ZM721.75,1039.44q-4.29-18.74-19-25.05t-40.92-.32c-2.3.52-3.7,1.33-4.3,2.42s-.64,3.26-.12,6.49q6,35.54,13.16,70.11l31.44-3.6a64.49,64.49,0,0,0,17.2-18.81Q726.27,1059.21,721.75,1039.44Zm-257.06,39.07-4.44,1-7.6,82.75,24.53-5.6q3.74-.86,25-6.79Zm0,0-4.44,1-7.6,82.75,24.53-5.6q3.74-.86,25-6.79Zm257.06-39.07q-4.29-18.74-19-25.05t-40.92-.32c-2.3.52-3.7,1.33-4.3,2.42s-.64,3.26-.12,6.49q6,35.54,13.16,70.11l31.44-3.6a64.49,64.49,0,0,0,17.2-18.81Q726.27,1059.21,721.75,1039.44ZM957.29,482.52c-334.33,0-605.36,212.64-605.36,475a376.94,376.94,0,0,0,8.91,81.61c49.28-181.44,297.58-319.42,596.45-319.42s547.17,138,596.45,319.42a378.19,378.19,0,0,0,8.91-81.61C1562.65,695.16,1291.62,482.52,957.29,482.52Zm0,0c-334.33,0-605.36,212.64-605.36,475a376.94,376.94,0,0,0,8.91,81.61c49.28-181.44,297.58-319.42,596.45-319.42s547.17,138,596.45,319.42a378.19,378.19,0,0,0,8.91-81.61C1562.65,695.16,1291.62,482.52,957.29,482.52ZM721.75,1039.44q-4.29-18.74-19-25.05t-40.92-.32c-2.3.52-3.7,1.33-4.3,2.42s-.64,3.26-.12,6.49q6,35.54,13.16,70.11l31.44-3.6a64.49,64.49,0,0,0,17.2-18.81Q726.27,1059.21,721.75,1039.44Zm-257.06,39.07-4.44,1-7.6,82.75,24.53-5.6q3.74-.86,25-6.79Zm257.06-39.07q-4.29-18.74-19-25.05t-40.92-.32c-2.3.52-3.7,1.33-4.3,2.42s-.64,3.26-.12,6.49q6,35.54,13.16,70.11l31.44-3.6a64.49,64.49,0,0,0,17.2-18.81Q726.27,1059.21,721.75,1039.44Zm0,0q-4.29-18.74-19-25.05t-40.92-.32c-2.3.52-3.7,1.33-4.3,2.42s-.64,3.26-.12,6.49q6,35.54,13.16,70.11l31.44-3.6a64.49,64.49,0,0,0,17.2-18.81Q726.27,1059.21,721.75,1039.44Z" transform="translate(-71.99 -93.41)"/></svg>