<svg xmlns="http://www.w3.org/2000/svg" xmlns:xlink="http://www.w3.org/1999/xlink" viewBox="0 0 2184.51 379.91"><defs><style>.cls-1{fill:url(#linear-gradient);}.cls-2{fill:#fff;}</style><linearGradient id="linear-gradient" x1="-4.95" y1="35.06" x2="2189.46" y2="344.86" gradientUnits="userSpaceOnUse"><stop offset="0" stop-color="#00a651"/><stop offset="1" stop-color="#8dc63f"/></linearGradient></defs><title>Asset 2</title><g id="Layer_2" data-name="Layer 2"><g id="Layer_1-2" data-name="Layer 1"><rect class="cls-1" width="2184.51" height="379.91"/><path class="cls-2" d="M296.28,67.31q-16.17,49.34-24.34,74.1,16.15,49.34,24.34,73.9H277.66q-12.27-36.12-18.4-54.29v54.29h-18v-148h18V121.8l18.4-54.49Z"/><path class="cls-2" d="M328.26,66.31h19v148h-19Z"/><path class="cls-2" d="M415.26,67.31h19v148h-18.5q-12.35-49.34-18.5-74.1v74.1h-19v-148h18.39q12.41,49.34,18.61,74.1Z"/><path class="cls-2" d="M521.26,87.75v34.56h-19V94.41A8.86,8.86,0,0,0,499.63,88a8.74,8.74,0,0,0-6.48-2.69A8.48,8.48,0,0,0,486.88,88a8.85,8.85,0,0,0-2.62,6.41V187a9.08,9.08,0,0,0,2.62,6.61,8.45,8.45,0,0,0,6.27,2.69,8.7,8.7,0,0,0,6.48-2.69,9.09,9.09,0,0,0,2.63-6.61v-27.7h-11v-19h30v54.48a20.25,20.25,0,0,1-4.77,13.27A19.63,19.63,0,0,1,501,215.31H486.5a19.4,19.4,0,0,1-14.32-6,19.77,19.77,0,0,1-5.92-14.44v-107A20.24,20.24,0,0,1,471,74.57a19.64,19.64,0,0,1,15.49-7.26H501a19.44,19.44,0,0,1,14.32,6A19.8,19.8,0,0,1,521.26,87.75Z"/><path class="cls-2" d="M672.26,87.31v106A20.11,20.11,0,0,1,666,208.13a20.43,20.43,0,0,1-14.93,6.18H637.41a20.43,20.43,0,0,1-14.93-6.18,20.11,20.11,0,0,1-6.22-14.82v-106a20.11,20.11,0,0,1,6.22-14.82,20.43,20.43,0,0,1,14.93-6.18H651.1A20.43,20.43,0,0,1,666,72.49,20.11,20.11,0,0,1,672.26,87.31ZM651.44,193.15a8.42,8.42,0,0,0,1.82-5.34v-94a8.44,8.44,0,0,0-1.82-5.34A8,8,0,0,0,645,85.31h-1.18a8.46,8.46,0,0,0-6,2.36,8.25,8.25,0,0,0-2.55,6.12V188a8,8,0,0,0,8.29,8.27H645A8,8,0,0,0,651.44,193.15Z"/><path class="cls-2" d="M759,67.31H777.8L749.31,160.2q-.21,36.74-.21,55.11H730.73q0-36.74.21-55.11-18.37-61.93-27.66-92.89h18.58q12.38,43.77,18.57,65.43Q752.82,89.2,759,67.31Z"/><path class="cls-2" d="M864.26,87.7v34.61h-6.8q-6.81-.19-11.2-.2V92.51a7.08,7.08,0,0,0-2-5.14,6.72,6.72,0,0,0-5-2.06h-4a6.72,6.72,0,0,0-5,2.06,7,7,0,0,0-2,5.15v26.57a11.81,11.81,0,0,0,1.8,6.39,10.88,10.88,0,0,0,5,4.53l.81.42c.67.27,2.94,1.37,6.84,3.29,1.6.69,3.62,1.58,6,2.68s5.29,2.68,8.65,4.32a11.59,11.59,0,0,1,6.84,10.92V194.8a20.27,20.27,0,0,1-4.78,13.29A19.65,19.65,0,0,1,844,215.31H829.5a19.46,19.46,0,0,1-14.32-6,19.74,19.74,0,0,1-5.92-14.42V159.31h7.17q7-.21,11.83-.21V189a7,7,0,0,0,2.11,5.19,7.18,7.18,0,0,0,5.27,2.08H839a7.06,7.06,0,0,0,7.24-7.21V173.45c0-2.75-.08-6.11-.21-10.1a11.58,11.58,0,0,0-1.86-6.39,13.2,13.2,0,0,0-5-4.53l-1-.41q-1-.41-6.82-3.3-2.48-1-6.2-2.88-3.72-1.65-8.89-4.12a11,11,0,0,1-5.16-4.53,11.53,11.53,0,0,1-1.86-6.39v-43A20.28,20.28,0,0,1,814,74.53a19.67,19.67,0,0,1,15.47-7.22H844a19.46,19.46,0,0,1,14.32,6A19.76,19.76,0,0,1,864.26,87.7Z"/><path class="cls-2" d="M896.26,66.31h75v19h-28v129h-18v-129h-29Z"/><path class="cls-2" d="M1021.26,131.31h37v19h-37v46h37v18h-55v-148h55v19h-37Z"/><path class="cls-2" d="M1145.26,88.57V157.1a21.22,21.22,0,0,1-5.32,14.24,20.59,20.59,0,0,1-13.09,7l2.87,5.58q2.65,5.56,6.33,13,2.46,4.76,4.91,9.7t4.09,8.67h-18l-2.88-6.27q-2.68-5.56-6.39-13-2.47-4.73-4.94-9.68c-1.65-3.16-3-6-4.62-8.44v5.56a86.08,86.08,0,0,1,0,13v18.83h-18v-148h33.94a20.24,20.24,0,0,1,14.92,6.19A20.63,20.63,0,0,1,1145.26,88.57Zm-18,4.62a7.73,7.73,0,0,0-2.23-5.6,7.34,7.34,0,0,0-5.46-2.28h-10.31v74h10.31A7.34,7.34,0,0,0,1125,157a7.48,7.48,0,0,0,2.23-5.39V93.19Z"/><path class="cls-2" d="M1296.83,66.31h17.43v148h-18V154.2q-7.69,40.14-11.53,60.11h-13.65q-8-39.93-11.82-59.9v59.9h-19v-148H1259l19,85.22Q1290.5,94.71,1296.83,66.31Z"/><path class="cls-2" d="M1383.26,189.93V67.31h18V196.53a19,19,0,0,1-18.61,18.78h-17.79a17.37,17.37,0,0,1-13.08-5.57,17.67,17.67,0,0,1-5.52-13.21V67.31h19V189.93a6.15,6.15,0,0,0,1.86,4.53,6.92,6.92,0,0,0,4.76,1.85h4.75a6.94,6.94,0,0,0,4.76-1.85A6.16,6.16,0,0,0,1383.26,189.93Z"/><path class="cls-2" d="M1489.26,87.7v34.61h-7.18q-7.18-.19-11.82-.2V92.51a6.87,6.87,0,0,0-2.12-5.14,7.24,7.24,0,0,0-5.27-2.06h-4.38a7,7,0,0,0-7.23,7.21v26.57a11.53,11.53,0,0,0,1.86,6.39,11,11,0,0,0,5.16,4.53l.83.42q1,.4,7,3.29,2.47,1,6.2,2.68,3.72,1.86,8.89,4.32a13.13,13.13,0,0,1,5.16,4.33,12.49,12.49,0,0,1,1.87,6.59V194.8a20.27,20.27,0,0,1-4.78,13.29,19.65,19.65,0,0,1-15.47,7.22H1453.5a19.46,19.46,0,0,1-14.32-6,19.74,19.74,0,0,1-5.92-14.42V159.31h7.17q7-.21,11.83-.21V189a7,7,0,0,0,2.11,5.19,7.18,7.18,0,0,0,5.27,2.08H1463a7.06,7.06,0,0,0,7.24-7.21V173.45c0-2.75-.08-6.11-.21-10.1a11.58,11.58,0,0,0-1.86-6.39,13.2,13.2,0,0,0-5-4.53l-1-.41q-1-.41-6.82-3.3-2.47-1-6.2-2.88-3.72-1.65-8.89-4.12a11,11,0,0,1-5.16-4.53,11.53,11.53,0,0,1-1.86-6.39V87.92a20.47,20.47,0,0,1,20.6-20.61h14.79a20,20,0,0,1,14.57,6A19.6,19.6,0,0,1,1489.26,87.7Z"/><path class="cls-2" d="M1557.26,67.31h18v147h-18v-64h-18v65h-19v-148h19v64h18Z"/><path class="cls-2" d="M1662.26,88.57V157.1a21.22,21.22,0,0,1-5.32,14.24,20.59,20.59,0,0,1-13.09,7l2.87,5.58q2.65,5.56,6.33,13,2.46,4.76,4.91,9.7t4.09,8.67h-17.71l-2.88-6.27q-2.68-5.56-6.39-13-2.46-4.73-4.94-9.68a61.1,61.1,0,0,0-4.87-8.44v5.56c.61,3.71.54,8,1,13v18.83h-19v-148h33.94a20.24,20.24,0,0,1,14.92,6.19A20.63,20.63,0,0,1,1662.26,88.57Zm-18,4.62a7.73,7.73,0,0,0-2.23-5.6,7.34,7.34,0,0,0-5.46-2.28h-10.31v74h10.31A7.34,7.34,0,0,0,1642,157a7.48,7.48,0,0,0,2.23-5.39V93.19Z"/><path class="cls-2" d="M1750.26,87.31v106a20.11,20.11,0,0,1-6.23,14.82,20.41,20.41,0,0,1-14.93,6.18h-13.69a20.43,20.43,0,0,1-14.93-6.18,20.11,20.11,0,0,1-6.22-14.82v-106a20.11,20.11,0,0,1,6.22-14.82,20.43,20.43,0,0,1,14.93-6.18h13.69A20.41,20.41,0,0,1,1744,72.49,20.11,20.11,0,0,1,1750.26,87.31Zm-20.82,105.84a8.42,8.42,0,0,0,1.82-5.34v-94a8.42,8.42,0,0,0-1.82-5.34,8,8,0,0,0-6.48-3.16h-1.18a8.45,8.45,0,0,0-6,2.36,8.25,8.25,0,0,0-2.55,6.12V188a8,8,0,0,0,8.29,8.27H1723A8,8,0,0,0,1729.44,193.15Z"/><path class="cls-2" d="M1838.26,87.31v106a20.11,20.11,0,0,1-6.23,14.82,20.41,20.41,0,0,1-14.93,6.18h-13.69a20.43,20.43,0,0,1-14.93-6.18,20.11,20.11,0,0,1-6.22-14.82v-106a20.11,20.11,0,0,1,6.22-14.82,20.43,20.43,0,0,1,14.93-6.18h13.69A20.41,20.41,0,0,1,1832,72.49,20.11,20.11,0,0,1,1838.26,87.31Zm-20.82,105.84a8.42,8.42,0,0,0,1.82-5.34v-94a8.42,8.42,0,0,0-1.82-5.34,8,8,0,0,0-6.48-3.16h-1.18a8.45,8.45,0,0,0-6,2.36,8.25,8.25,0,0,0-2.55,6.12V188a8,8,0,0,0,8.29,8.27H1811A8,8,0,0,0,1817.44,193.15Z"/><path class="cls-2" d="M1925.83,66.31h17.43v148h-18V154.2q-7.69,40.14-11.53,60.11h-13.65q-8-39.93-11.82-59.9v59.9h-19v-148H1888l19,85.22Q1919.51,94.71,1925.83,66.31Z"/><path class="cls-2" d="M1109.23,282.06l-1-6.39c-.31-2.13-.61-4-.88-5.58l-.54,3.67q-.55,3.67-1.3,8.5-.46,3.14-1,6.33c-.31,2.13-.59,4-.81,5.64h7.27l-.61-3.74Q1109.91,286.82,1109.23,282.06Z"/><path class="cls-2" d="M1187.56,282.06l-1-6.39q-.48-3.19-.88-5.58l-.55,3.67q-.54,3.67-1.29,8.5-.48,3.14-1,6.33t-.82,5.64h7.28l-.61-3.74Q1188.24,286.82,1187.56,282.06Z"/><path class="cls-2" d="M1041.57,282.06l-1-6.39c-.31-2.13-.61-4-.88-5.58l-.54,3.67q-.56,3.67-1.3,8.5-.47,3.14-1,6.33t-.81,5.64h7.27l-.61-3.74Q1042.25,286.82,1041.57,282.06Z"/><path class="cls-2" d="M1216.05,285.19h-3.26v15.16h3.26a2.78,2.78,0,0,0,2.79-2.79V288a2.77,2.77,0,0,0-2.79-2.78Z"/><path class="cls-2" d="M944.33,263.83h-.48a2.8,2.8,0,0,0-2.79,2.79v31a2.7,2.7,0,0,0,.82,2,2.8,2.8,0,0,0,2,.75h.48a2.66,2.66,0,0,0,2-.82,2.7,2.7,0,0,0,.82-2V266.62a2.8,2.8,0,0,0-2.79-2.79Z"/><path class="cls-2" d="M872.12,245.84v74.55h440.27V245.84Zm52.29,56.48v4.15h-6.12q-4.08-16.25-6.13-24.41v24.41h-6V257.71h6q4.1,16.26,6.13,24.42V257.71h6.12ZM953.24,265v34.54a7,7,0,0,1-6.94,6.94h-4.49a7,7,0,0,1-6.93-6.94v-35a7,7,0,0,1,6.93-6.93h4.49a7,7,0,0,1,6.94,6.93Zm35.9,41.48h-6.39q-1.29-7-1.91-10.54-1.29,7-1.9,10.54h-6.39q-5.92-32.5-8.84-48.76h5.91q4.21,24.35,6.33,36.45,1.29-7.95,1.9-11.9H984q1.37,8,2.11,11.9Q990,269.89,992,257.71h6Q992.07,290.22,989.14,306.47Zm61.74,0h-5.23l-.48-2.24c-.27-1.54-.5-2.81-.68-3.81H1035l-.41,2.24c-.27,1.54-.5,2.81-.68,3.81h-6.32l.2-1c.09-.68.25-1.63.48-2.86.41-2.22.93-5.16,1.56-8.84l2-11.83q1.15-6.45,2.31-12.85t2-11.36h7.27l.14,1c.13.68.32,1.64.54,2.86q.56,3.33,1.57,8.91t2,11.76q1.15,6.47,2.24,12.92t2,11.29Zm25,0h-6.4q-5.91-32.5-8.84-48.76h5.92q4.22,24.35,6.32,36.45,3.88-24.27,5.85-36.45h6Q1078.82,290.22,1075.91,306.47Zm42.63,0h-5.23l-.48-2.24c-.27-1.54-.5-2.81-.68-3.81h-9.52l-.41,2.24c-.27,1.54-.5,2.81-.68,3.81h-6.32l.2-1c.09-.68.25-1.63.48-2.86.41-2.22.93-5.16,1.56-8.84l2-11.83q1.15-6.45,2.31-12.85t2-11.36h7.27l.14,1c.13.68.32,1.64.54,2.86q.55,3.33,1.57,8.91t2,11.76q1.15,6.47,2.24,12.92t2,11.29Zm15.92,0h-6.13V257.58h6.13Zm28.69,0h-18.29V257.58H1151v42.77h12.17Zm33.73,0h-5.24l-.47-2.24c-.28-1.54-.5-2.81-.68-3.81H1181l-.41,2.24c-.27,1.54-.5,2.81-.68,3.81h-6.33l.21-1c.09-.68.25-1.63.47-2.86.41-2.22.93-5.16,1.57-8.84s1.31-7.66,2-11.83,1.54-8.59,2.31-12.85,1.38-8.09,2-11.36h7.28l.13,1c.14.68.32,1.64.55,2.86q.54,3.33,1.56,8.91t2,11.76q1.15,6.47,2.25,12.92t2,11.29ZM1225,265.13v11.15a6.43,6.43,0,0,1-.88,3.33,7.19,7.19,0,0,1-2.38,2.52,6.56,6.56,0,0,1,2.38,2.44,6.81,6.81,0,0,1,.88,3.4v11.56a7,7,0,0,1-6.93,6.94h-11.36V257.71H1218a7,7,0,0,1,6.93,6.94Zm28.77,41.34h-18.3V257.58h6.12v42.77h12.18Zm28.69-42.64h-12.17V279h12.17v6.19h-12.17v15.16h12.17v6.12h-18.29V257.58h18.29Z"/><path class="cls-2" d="M1216.05,263.83h-3.26V279h3.26a2.78,2.78,0,0,0,2.79-2.79v-9.59a2.69,2.69,0,0,0-.81-2A2.73,2.73,0,0,0,1216.05,263.83Z"/></g></g></svg>