<svg xmlns="http://www.w3.org/2000/svg" viewBox="0 0 714.97 851"><defs><style>.cls-1{fill:#fff;}</style></defs><title>Layer 1</title><g id="Layer_2" data-name="Layer 2"><g id="Layer_1-2" data-name="Layer 1"><path class="cls-1" d="M382.16,175l32-48.79-10.68-18.19-29.27,16.49q-9,5.27-12.19,8.88a9,9,0,0,0-2.39,8q.83,4.34,5.68,13.2l-1.08,1.67-17,6.88q-2.46-4.77-9-16.45t-12.23-21.43q-5.58-9.48-12-19.17t-8.44-12.62l18.27-7.63q7.6,10,14.14,11.17t17.56-5.31l99.2-58.25c4.95-2.9,8-5.42,9-7.53s.63-4.8-1.27-8c-1.11-1.88-2.25-3.63-3.42-5.23s-1.91-2.67-2.21-3.19l1.15-2.74L474.81,0q2.12,3.59,7.49,13.35t10.81,19q6,10.24,13.4,21.94t10.35,16.16q17.16,29.22,15,51.35T508.4,156.41a54,54,0,0,1-32.95,7.28q-17.83-1.6-36.07-13.29L416,194.48q-7.58,14.1-8.79,23.77a27.54,27.54,0,0,0,3.61,17.88l-1.26,3.14-14.38,6L374.72,217Q364.94,200.31,382.16,175Zm74.73-45.6q11.1,2.77,26-6,14.1-8.28,15.45-21.82T488.08,68.38c-1-1.71-2-2.66-3.06-2.86s-2.8.33-5.29,1.56q-27.3,14-53.49,28.65l11,24.57A55,55,0,0,0,456.89,129.44Z"/><path class="cls-1" d="M309.37,640.75l-7.55-53.43q29.6-9.59,42.67-15.84t17.07-13.25q4-7,1.37-18.55Q360.49,529,351.37,509.6l-34.3-64.15q-46.62,8.79-82.15,16.91-16,3.66-65.63,19.69l-18.25,6-6.57,73.5q-.85,20.77,1,28.76,3.66,16,14.41,20.08t33.85-1.19l38.21-8.74,5.86,5.2L244,661.33q-12.66,1.95-54,9.08T113,685.66q-37.32,8.54-66.88,16.23T7,712.71L0,653.53q19.62-8.22,29.9-24.6T44.83,579.7l56-486.86,132.7-45.31,10.79,2.21q24.91,47.6,103,194.78t130,235.34q17.09,29.76,35.24,39.63t49,5.63l5,5.4,5.57,53q-11.76,1.75-44,8.18t-65.06,14Q416,616.38,371.83,629.75t-56.39,17.1ZM219.27,394q9.76-2.24,65.14-17.7L186.68,190.09l-11.55,2.64L155.3,408.58Z"/><path class="cls-1" d="M527.77,369.83q-22.39,7.64-51.48,20.92l-4.32-.9q-27-50-45-80.77a444.92,444.92,0,0,0-28.3-42.32l18.23-8.29q7.86,9.86,14.73,11T449.76,264l97.81-57.08q8.46-5,10.25-8.09t-1.22-8.24a89.15,89.15,0,0,0-5.18-7.65l1.4-2.89,16.58-7,3,5.13q9.92,18.65,23.46,41.71Q629.42,277.06,644.7,296l-1.62,3.7q-10.68,3.53-24.73,9.53t-25.12,11.82L578.3,299.15l10.55-5.51q7.7-4.51,9.62-8.57t-.76-11.28Q595,266.59,586,251.2a63.94,63.94,0,0,0-5.93-8.92,5.31,5.31,0,0,0-4.34-2.11,18.81,18.81,0,0,0-6.57,2.31l-41.29,21.83,13.89,24.25q3.15,5.37,8.54,13.08t11.22,15.29l-1.1,3.41-23.89,9.2a44.49,44.49,0,0,1-2.76-5.27q-10-18.25-16.19-28.76a182.43,182.43,0,0,0-13.13-18.83l-36.95,21q-7.17,4.21-9.58,7.17a7.62,7.62,0,0,0-1.54,6.77q.86,3.81,5.52,11.75,9.94,16.92,16.3,23.35T492.4,353q7.85-.13,22.49-6.31l14.14,20Z"/><path class="cls-1" d="M501.29,443.6a128.39,128.39,0,0,1-5-19.31c-.86-5.36-1.19-8.09-1-8.19l2.38-4.16,8.5-3.44q6.54-2.64,17.27-7.56a223.69,223.69,0,0,0,20.21-10.49l13.88,20.12Q543.2,419,537,426.08t-5.85,15q.33,7.9,7,19.18,7.21,12.3,17,16.58t19.23-1.3q8.46-5,9.76-16.25t-.38-32.34q-.09-1.33-.64-7.55Q581,394.74,584.93,378t20.34-26.42a49.63,49.63,0,0,1,31.38-6.71q16.79,1.86,32.42,13.54t27.23,31.4A153.44,153.44,0,0,1,707,411.55a156.64,156.64,0,0,1,5.83,17.26c1.14,4.5,1.85,7.36,2.11,8.59l-2.28,3.75q-1.7.64-8.72,3.05T686.44,451q-10.49,4.44-21.19,9.69l-12.68-18.06.19-3.21c.51-.3,1.62-.84,3.35-1.63a68.06,68.06,0,0,0,6.18-3.28q11.54-6.76,13-15.4t-6.49-22.21q-6.46-11-15.86-15t-17.6.85a18.89,18.89,0,0,0-8.51,11,49.63,49.63,0,0,0-2.27,15.81q.09,8.39,1.28,23.9,1.5,18.4,1.36,31.08a62.58,62.58,0,0,1-5.1,24.19q-5,11.52-17,18.6a50.46,50.46,0,0,1-32.23,7q-16.86-2-32.67-14.25t-28.3-33.53A118.92,118.92,0,0,1,501.29,443.6Z"/><path class="cls-1" d="M426.84,775.25q-6.93-5.94-9.24-18.18a55.11,55.11,0,0,1,.47-23.83,41.14,41.14,0,0,1,10-18.84,31.61,31.61,0,0,1,17.37-9.46q10-1.89,16.77,3.48t9,17.16a59.39,59.39,0,0,1-.22,24.7A41.68,41.68,0,0,1,461,769.64a31.37,31.37,0,0,1-17.55,9.72Q433.76,781.21,426.84,775.25Zm28.27-17.62q2-8-.61-21.87-1.72-9.15-4.9-13.43c-2.12-2.85-4.7-4-7.75-3.42q-5.89,1.11-8,8.61t.27,20q1.92,10.17,5.36,15.1t7.73,4.11Q453.11,765.64,455.11,757.63Z"/><path class="cls-1" d="M65.2,776.54l-1.18.21q-.12,54.27.14,55.74a3.91,3.91,0,0,0,1.49,2.78,4.41,4.41,0,0,0,3.18.36l4.83-1.17.74.78-1,9.63q-8.52.92-16.94,2.4-3.1.56-7.32,1.69c-2.82.75-5.08,1.43-6.8,2l.54-9.85a10.52,10.52,0,0,0,5.82-4.08q1.8-2.76,2.16-8.46.62-15.35,1.26-38.39t.29-25a4.74,4.74,0,0,0-3-3.81q-2.46-1-8-.48l-.9-.76.75-8.66q15.63-2,18.15-2.46,3-.52,15.26-3.32,4.74,14.7,10.86,31.59t11,28.68l1.18-.21q6.14-24.71,14.86-66.48a77.45,77.45,0,0,1,7.86-1.25L128,736.9q2.65-.46,16.24-3.79l.69.48-.4,8.91q-5.94,1.66-8.1,3.72t-1.85,6.28q.34,5.41,2.66,23.14t4.39,32.9q1.14,8.18,2.74,10.71a4.34,4.34,0,0,0,4.85,2l4.08-1a4.34,4.34,0,0,1,.36.31,1.06,1.06,0,0,1,.24.5l-.74,9.57q-11.16,1.53-14.41,2.1-4.27.76-10.79,2.3c-4.34,1-7.61,1.89-9.82,2.58l.66-10q4.2-1.2,5.89-3.25a7.86,7.86,0,0,0,1.54-5.53q-.6-6.75-2.13-21t-3.6-31l-1.19.21Q116,779.56,101,840.59l-10,3Q78.94,811.89,65.2,776.54Z"/><path class="cls-1" d="M230.05,798.77q-8.58,12.65-13.32,17.68t-8.88,5.76q-6.19,1.11-7.17-4.36-.56-3.11.67-27.09l-1.23-.08q-7.2,25.5-17,35.77-7.68,1.37-12.71-1.63a13.08,13.08,0,0,1-6.18-9.49,34.11,34.11,0,0,1-.07-8.14q.42-5.34,1.33-14.79,1.83-16.32,1.25-19.57a5.22,5.22,0,0,0-2-3.68,6.2,6.2,0,0,0-4.51-.5l-5.17.92-.05-8.83q8.43-1.5,27.71-6.14l2.17,1.9q-2.7,18.32-4,31.64t-.77,16.29a5.75,5.75,0,0,0,1.32,3.12,3.09,3.09,0,0,0,2.84.56q3.26-.58,7.72-11.89t8.66-29.72l-.27-14.43,1.88-1.4,14.9-1.88,1.85,1.8q-1.49,11.38-2.28,25.78t-.59,25l.55.51a8.77,8.77,0,0,0,2.6-2.06q1.49-1.55,4.87-5.66l2.56-.15Z"/><path class="cls-1" d="M246.23,799.78a12.78,12.78,0,0,0,10.09,1.94,9.22,9.22,0,0,0,5.71-3.07,6.31,6.31,0,0,0,1.48-5.37,7.08,7.08,0,0,0-3.27-4.67,57.7,57.7,0,0,0-8.07-4.28,90.44,90.44,0,0,1-8.37-4.23,22.65,22.65,0,0,1-5.66-4.86,15.48,15.48,0,0,1-3.39-7.48,20.91,20.91,0,0,1,1.58-12.54,25.85,25.85,0,0,1,8.54-10.28,31.82,31.82,0,0,1,13.33-5.57,34,34,0,0,1,10.93-.26,19.67,19.67,0,0,1,8.47,3.07,105.4,105.4,0,0,1-4.32,16l-2.81.5a15,15,0,0,0-5.72-5.61,10.5,10.5,0,0,0-6.9-1.14,7.31,7.31,0,0,0-4.64,2.65,5.8,5.8,0,0,0-1.21,4.79c.42,2.36,2.31,4.42,5.67,6.15,1,.54,2,1,3,1.53s1.89.91,2.67,1.27a55.9,55.9,0,0,1,11.72,6.84,14.84,14.84,0,0,1,5.32,9.34,20.76,20.76,0,0,1-1.78,12.73,27.61,27.61,0,0,1-9.07,10.68,34,34,0,0,1-14.12,5.86,33.19,33.19,0,0,1-13.66-.09q-6-1.45-8-5.21a43.85,43.85,0,0,1,1.36-9.08,42.51,42.51,0,0,1,2.73-8.25l2.83-.35A14.49,14.49,0,0,0,246.23,799.78Z"/><path class="cls-1" d="M345.94,778.65q1.53-1.65,6.13-7.49h2.59l3.28,4.75Q350,788,345.1,793.27t-9.06,6q-6.94,1.23-8.07-5.12a30.9,30.9,0,0,1,0-7.46q.42-5,1.49-13.52c.52-4.46,1-8.83,1.32-13.11a40.55,40.55,0,0,0,.07-9.08,6.68,6.68,0,0,0-1.73-3.73,3.54,3.54,0,0,0-3.2-.88q-3.7.66-8.1,11.88a180.06,180.06,0,0,0-8,28.62l.59,11q0,1.83-4.61,4.48a29.41,29.41,0,0,1-9.36,3.49L294.06,804q-.27-13.51-1-51.24t-1.29-43.28q-.28-3.3-1.78-4.48c-1-.78-2.59-1-4.76-.6l-5.17.92-.16-8.66q6.78-1.2,16-3.38t12-3l2,2.08q-.22,3.08-.59,14.27T308.67,734q-.26,16.13.07,30.85h.91a150.51,150.51,0,0,1,8.73-23.8q4.68-9.66,9.69-14.06,7.24-1.29,12.57,2.11a14.12,14.12,0,0,1,6.48,9.89,36.64,36.64,0,0,1,0,9.45q-.6,6.06-2.1,15.61-1.74,10.83-2,16.06l.52.36A5.43,5.43,0,0,0,345.94,778.65Z"/><path class="cls-1" d="M370.32,762q-.29-21-.95-24.67a6.19,6.19,0,0,0-2-4.06c-1-.74-2.53-.92-4.6-.56l-5.17.92-.19-8.8q6.8-1.21,15.86-3.35l11.85-2.79,2.19,2.05c-.23,1.56-.6,5.06-1.11,10.48s-.75,10.78-.73,16l.89-.16q3.6-14,9.14-23.18T407,713.41a7.21,7.21,0,0,1,3,2.36,9.81,9.81,0,0,1,2.06,3.89,42.49,42.49,0,0,1,.22,8.12q-.26,4.54-.65,7.88c-.27,2.24-.45,3.66-.54,4.29l-5.56,1.29q-.76-5.19-3.57-4.7-4.29.76-8.57,9.68t-7.31,23.62l.74,14.49c0,1.22-1.52,2.71-4.61,4.48a29,29,0,0,1-9.36,3.49l-2.31-1.88Q370.61,783,370.32,762Z"/><path class="cls-1" d="M492,764.53q-6.87-6-9-18.29a55,55,0,0,1,.72-23.82,41.18,41.18,0,0,1,10.24-18.73,31.55,31.55,0,0,1,17.47-9.27q10.05-1.78,16.73,3.66t8.78,17.26A59.51,59.51,0,0,1,536.4,740a41.81,41.81,0,0,1-10.15,19.25,31.33,31.33,0,0,1-17.66,9.53Q498.86,770.55,492,764.53Zm28.46-17.32q2.09-8-.38-21.88-1.62-9.17-4.75-13.48t-7.71-3.51q-5.91,1-8.09,8.53t.05,20q1.81,10.2,5.21,15.16t7.68,4.19Q518.36,755.19,520.45,747.21Z"/><path class="cls-1" d="M643.79,725.3q1.9-2.16,5.77-7l2.74,0,3.13,4.77q-8.05,12.1-13.06,17.41t-9,6c-4.64.82-7.32-.88-8.08-5.12a27.77,27.77,0,0,1,0-7.16q.46-4.65,1.67-14.17,1.34-9.67,1.77-14.48a29.16,29.16,0,0,0,0-7.46,6.37,6.37,0,0,0-1.78-3.65,3.52,3.52,0,0,0-3.15-1q-3.84.68-8.71,12.74a196.12,196.12,0,0,0-8.91,30.46l.16,8.66c0,1.21-1.52,2.71-4.61,4.47a28.77,28.77,0,0,1-9.36,3.49l-2.31-1.87q.49-6.65,1.39-25.16t.28-22.07a5.63,5.63,0,0,0-1.68-3.43,3.65,3.65,0,0,0-3.18-.73q-3.54.63-7.88,11.83a176.72,176.72,0,0,0-7.8,28.59l.59,11q0,1.83-4.62,4.48a29,29,0,0,1-9.36,3.49l-2.31-1.87q-.07-7.3-.39-28t-.73-24.71c-.19-2.2-.81-3.68-1.87-4.46s-2.66-1-4.82-.6l-5.17.92-.2-8.8q6.79-1.2,15.87-3.35L570,685.83l2.2,2q-.24,1.26-.72,5.84t-.95,11.37c-.32,4.52-.44,9-.38,13.32l.77,0q8-29.31,18.12-37.81,7.09-1.26,12.24,2a13.67,13.67,0,0,1,6.28,9.62,46.35,46.35,0,0,1-.05,10q-.56,7.18-.87,9.68l.76,0a136.52,136.52,0,0,1,8.61-23.62q4.8-9.84,10.11-14.29,7.23-1.29,12.24,2a14.16,14.16,0,0,1,6.16,9.81,37.31,37.31,0,0,1,0,9.68q-.63,6.29-2.06,15.37-1.71,11-2,16.35l.53.37C641.6,727.52,642.52,726.75,643.79,725.3Z"/></g></g></svg>