<svg xmlns="http://www.w3.org/2000/svg" viewBox="0 0 665.41 513.71"><defs><style>.cls-1{fill:#fff;}</style></defs><title>Asset 1</title><g id="Layer_2" data-name="Layer 2"><g id="Layer_1-2" data-name="Layer 1"><path class="cls-1" d="M665.41,147.62V365.84c-.23,1.76-.42,3.53-.71,5.29-4.09,25.5-18.19,43-42.49,51.68-15.72,5.63-31.75,10.4-47.64,15.56L491,465.5q-64.7,21-129.42,41.92c-6.29,2-12.71,3.7-19.12,5.32a57.74,57.74,0,0,1-7.58,1h-4.3l-1.73-.32c-5.09-.94-10.35-1.37-15.25-2.9-20.79-6.51-41.48-13.36-62.2-20.08L141.84,454.93q-43.52-14.1-87-28.22C48,424.49,41,422.56,34.71,419.23,11.91,407.1.19,387.72.11,361.94c-.2-70.23-.07-140.45,0-210.67a56.64,56.64,0,0,1,.64-9.11C4.88,116.67,19,99,43.44,90.69,77.74,79,112.31,68.2,146.78,57q83-26.93,166.08-53.83a62.9,62.9,0,0,1,39.47-.05c12.27,3.94,24.52,8,36.79,11.94l129.45,42C552.75,68.13,587,79,621.1,90.34c23.12,7.69,37.38,23.82,42.84,47.6C664.67,141.11,664.93,144.39,665.41,147.62Zm-361.07,108a12,12,0,0,0,1.5-.88c2.46-2,5.18-3.71,7.27-6,6.06-6.69,8.49-14.95,8.76-23.73.35-11.23.18-22.48.18-33.72a61.11,61.11,0,0,0-.38-7.16c-1.35-11.13-5.76-20.54-15.57-26.75-7.21-4.56-15.29-6-23.65-6.05-15.31-.09-30.62,0-45.93,0-2.62,0-3,.39-3,3q0,71.4,0,142.81c0,2.37.37,2.73,2.69,2.73q11.93,0,23.86,0c2.93,0,3.3-.36,3.3-3.3V260.61c3.13,0,5.94.09,8.74,0a2.91,2.91,0,0,1,3.25,2c5.33,11.81,10.79,23.57,16.15,35.36a2.87,2.87,0,0,0,3,1.93c8.61-.06,17.22,0,25.84,0,2.88,0,3.55-1,2.33-3.69Q315.9,281,309,266C307.47,262.55,305.93,259.13,304.34,255.62Zm218.78,46.53c2.2-.2,5.5-.34,8.74-.81,10.72-1.58,20.08-5.93,26.91-14.58,8.71-11,11.38-23.91,10.64-37.6-.51-9.55-5.66-16.94-12.23-23.45s-14.6-11-22.8-15c-5.55-2.75-11.35-5-17-7.56a38.89,38.89,0,0,1-11.73-7.46c-4.35-4.29-3.79-10.16,1.38-13.33,6.2-3.81,16.11-4.58,23.46,1.16A55.18,55.18,0,0,1,541,194.93c1.32,1.8,2,1.92,3.86.65,6.22-4.33,12.43-8.69,18.67-13,1.38-1,1.75-2.06,1-3.51-1.41-2.63-2.74-5.32-4.33-7.84-6.16-9.77-14.27-17.33-25.72-20.15-16.78-4.14-32.62-1.33-46.87,8.45C472,170.2,467.93,187.72,472.68,203c3.17,10.23,10.19,17.55,18.82,23.46,8,5.5,17,9.22,26,12.9,5.65,2.32,11.2,4.81,15.5,9.39,4.54,4.85,5,11.38,1,16.69-3.5,4.65-8.54,6.14-14.08,6.07-7-.09-12.27-3.81-16.41-9-2.24-2.81-3.71-6.23-5.45-9.42-.95-1.72-2-2.06-3.59-.94-.39.28-.77.57-1.13.88-6.34,5.46-12.65,11-19,16.35a2.63,2.63,0,0,0-.87,3.41,38.44,38.44,0,0,0,11.73,16.65C495.84,298.36,508.37,301.91,523.12,302.15ZM131.77,267.3a2.91,2.91,0,0,1,.59-.13c10.23,0,20.46,0,30.68,0,1.15,0,1.35.6,1.59,1.48,2.66,9.62,5.4,19.21,8,28.85.5,1.85,1.35,2.45,3.24,2.42,7.83-.09,15.67,0,23.5,0,3.11,0,3.67-.75,2.87-3.83-.06-.23-.11-.46-.18-.69q-8.75-32.55-17.5-65.09Q174.29,192.07,164,153.9c-.67-2.46-.87-2.61-3.48-2.61-8.37,0-16.74,0-25.12,0-1.93,0-2.88.62-3.4,2.55Q117,209.72,102,265.62q-4.11,15.33-8.24,30.64c-.73,2.72-.11,3.58,2.65,3.58,8.14,0,16.27,0,24.4,0a2.45,2.45,0,0,0,2.77-2.15c.67-2.78,1.47-5.54,2.22-8.31Q128.77,278.36,131.77,267.3Zm259.83,4.1V238.79h36.29c2.68,0,3.07-.35,3.07-2.94q0-11.49,0-23c0-2.59-.38-2.93-3-2.94H391.62V179.85h47.09c2.76,0,3.22-.49,3.23-3.24V154.54c0-2.8-.43-3.25-3.21-3.25H364.45c-2.64,0-3,.4-3,3q0,10.14,0,20.28v122c0,2.88.34,3.27,2.93,3.27q37.32,0,74.64,0c2.5,0,2.95-.45,2.95-2.91q0-11.21,0-22.42c0-2.74-.37-3.1-3.11-3.1H391.6ZM86.55,388h489.3a13.83,13.83,0,0,1,1.44,0c1.22.13,1.81-.32,1.63-1.61-.07-.51-.08-1-.12-1.53H86.55ZM578.92,125.75H86.62v3.14H576.38c.42,0,.84,0,1.26,0,.88.05,1.36-.27,1.28-1.23C578.88,127.07,578.92,126.48,578.92,125.75ZM161.2,364.41c2.44,0,4.47-.1,6.48,0,1.63.11,2.13-.39,2.12-2.07-.07-11.72,0-23.44,0-35.15v-2.07c-3,0-5.75.06-8.49,0a1.78,1.78,0,0,0-2,1.44c-1.54,4.52-3.17,9-4.74,13.52-1,2.85-1.9,5.71-3,8.89-.26-.63-.4-.93-.51-1.25-2.48-7-5-14.08-7.46-21.11-.19-.54-.7-1.37-1.09-1.38-3.08-.12-6.16-.07-9.22-.07v39.24c2.22,0,4.31-.09,6.39,0,1.46.09,1.83-.46,1.79-1.84-.21-8-.35-16-.49-22.87,1.91,5.23,4.2,11.57,6.52,17.9,1.23,3.35,1.25,3.3,4.84,3.34a1.9,1.9,0,0,0,2.21-1.49c1.08-3.22,2.34-6.39,3.5-9.58,1.32-3.62,2.61-7.25,3.79-10.51Q161.5,351.44,161.2,364.41Zm289.61-39.26V364.3h8c0-4.28.07-8.45,0-12.62s-.36-8.39-.55-12.69c.14.38.27.7.38,1q3.15,8.78,6.3,17.54c1.25,3.46,1.26,3.39,5,3.44a1.92,1.92,0,0,0,2.15-1.58c1.79-5.07,3.67-10.1,5.51-15.15.66-1.8,1.3-3.6,1.74-4.83-.19,7.93-.4,16.37-.61,24.84h8.5V325.14c-2.88,0-5.62.07-8.36,0-1.27,0-1.75.47-2.13,1.6-1.6,4.69-3.3,9.35-4.93,14C470.85,343.37,470,346,469,349c-.27-.64-.42-.94-.53-1.26-2.48-7-4.93-14.09-7.45-21.11-.21-.57-.83-1.37-1.28-1.39C456.81,325.09,453.83,325.15,450.81,325.15ZM290.61,348.3c0,.52.08.86.08,1.21,0,4.43,0,8.85,0,13.27,0,1.23.33,1.72,1.61,1.66a44,44,0,0,1,5.74,0c1.65.12,2-.53,2-2-.06-11.78,0-23.55,0-35.33,0-.58,0-1.16-.08-1.8h-9.2v14.64h-13V325.28h-9.23v20.35c0,5.68,0,11.36,0,17,0,.57.45,1.63.73,1.64,2.77.13,5.55.08,8.53.08V348.3Zm100.46-3.61c-.2-1.9-.28-3.82-.62-5.69-1.53-8.55-7.36-14-15.57-14.55-8-.56-14.33,2.56-17.27,9a26.08,26.08,0,0,0,0,22.24c5.33,11.92,22.68,12.18,29.37,2.89C389.94,354.42,390.92,349.7,391.07,344.69Zm46.65.2c-.1-1.55-.12-3.11-.32-4.65a25.59,25.59,0,0,0-.85-3.84,16.31,16.31,0,0,0-14.92-12c-8.47-.51-14.7,2.84-17.66,9.82a26.44,26.44,0,0,0-.3,19.95c4.91,13.39,22,13.51,29,5.63C436.41,355.57,437.65,350.43,437.72,344.89ZM337.3,348.81c.73-.48,1.34-.85,1.92-1.27,4.54-3.24,5.23-7.9,4.55-12.94-.63-4.58-3.54-7.3-7.84-8.61a13.75,13.75,0,0,0-3.68-.69c-5.68-.1-11.35-.09-17-.11a1.41,1.41,0,0,0-.48.21v38.9h9.06V350.54c4.37-.39,4.36-.38,6.24,3.24,1.6,3.07,3.2,6.13,4.87,9.17.31.57.92,1.36,1.41,1.38,3.07.13,6.15.07,9.75.07ZM215.48,325.27h-8.8v2.06c0,6.46.07,12.92,0,19.38a25.79,25.79,0,0,1-.85,6.18,5.59,5.59,0,0,1-5.77,4.19c-2.82,0-4.86-1.25-5.69-4a21.87,21.87,0,0,1-.84-5.81c-.1-6.7,0-13.4,0-20.1,0-.63-.06-1.26-.09-1.91h-8.89c-.11.2-.21.31-.21.41.15,8.9,0,17.82.56,26.69.3,5,2.72,9.27,7.64,11.32a18.38,18.38,0,0,0,15-.07,13.92,13.92,0,0,0,4.85-4.07,15.62,15.62,0,0,0,3-9.58c.16-7,.11-14,.15-21Zm299.59-.89a27.11,27.11,0,0,0-2.86.21c-4.81.84-8.72,3-10.55,7.81-2.15,5.63.51,11.44,6.38,14.17,2.38,1.11,4.83,2.07,7.25,3.1q1.07.46,2.1,1c1.32.67,2.24,1.64,2.05,3.24a3.21,3.21,0,0,1-2.65,2.8c-4.22,1.13-7.74-.54-11-3-1-.75-1.48-.6-2.16.28a35.6,35.6,0,0,1-3.11,3.7c-1.26,1.23-1,2,.34,3a21.27,21.27,0,0,0,18.48,3.74c5.78-1.46,9.15-5.53,9.57-11.1.39-5.14-2.27-8.89-8.08-11.35-2.58-1.09-5.21-2.06-7.77-3.2-1.49-.66-2.94-1.52-2.67-3.56.19-1.48,1.62-2.51,3.75-2.72a10.5,10.5,0,0,1,7.59,2.14c1.19.9,1.83.62,2.59-.43A37.91,37.91,0,0,1,526.9,331c.89-1,.82-1.68-.24-2.49A18.27,18.27,0,0,0,515.07,324.38Zm-288.2,34.77a5.12,5.12,0,0,0,.61.8c6.14,4.88,13,6.49,20.52,4.07,5.06-1.63,8.17-5.78,8.29-10.38.17-5.9-1.84-9-7.51-11.5-2.79-1.22-5.65-2.29-8.44-3.52-1.47-.64-2.82-1.58-2.46-3.48s1.9-2.46,3.59-2.66a12,12,0,0,1,8.11,2.27c.39.26,1.3.41,1.49.2,1.47-1.69,2.82-3.48,4.18-5.21-5.15-5.76-15.43-7.09-21.56-3-5.87,4-7.12,11.56-2.46,16.61,1.56,1.69,3.84,2.79,5.93,3.87,2.49,1.29,5.16,2.22,7.7,3.42a3,3,0,0,1,2,3.44,3.28,3.28,0,0,1-2.84,2.63,7.06,7.06,0,0,1-3.52.14,64.39,64.39,0,0,1-7.15-3.11c-.73-.35-1.3-.86-2,0C229.89,355.57,228.39,357.34,226.87,359.15Zm127.47,73.31.17-.14c1.42,2.87,2.86,5.72,4.23,8.62a1.72,1.72,0,0,0,1.88,1.17c1.48-.05,2.05-.68,2.36-2.06.73-3.32,1.62-6.61,2.46-9.94l1.13,13.26,4.94-.58c-.77-7.39-1.53-14.61-2.3-22-1.46.12-2.75.29-4,.33s-1.83.56-2.11,1.85c-.81,3.83-1.79,7.62-2.77,11.68-1.85-3.84-3.55-7.44-5.35-11-.27-.53-1-1.2-1.48-1.2a46.46,46.46,0,0,0-4.9.47c.78,7.43,1.53,14.64,2.31,22.05l4.86-.54C355.24,440.26,354.79,436.36,354.34,432.46Zm-72.41-338c-1.78-7.3-3.5-14.39-5.26-21.61l-5,1.25,3.42,13.21c-2.59-3-5.22-5.74-7.49-8.75-1.81-2.41-3.72-3.08-6.51-2-1.11.44-1.35.83-1.07,1.91,1.14,4.52,2.21,9,3.32,13.57.51,2.13,1,4.25,1.61,6.54l5-1.26c-1.19-4.55-2.33-8.88-3.48-13.24,3.08,3.55,6.1,7.08,9.21,10.54a2.7,2.7,0,0,0,1.94.81A33,33,0,0,0,281.93,94.48ZM383.52,440.89c3.79-1,7.36-1.69,10.79-2.82a8.81,8.81,0,0,0,3.57-2.79c1.24-1.46,1.11-3.34.65-5.13a5.2,5.2,0,0,0-4.22-3.86c.31-.55.56-1,.76-1.38,1.76-3.78-.46-7.62-4.58-7.85a13.67,13.67,0,0,0-3.38.21c-2.35.43-4.66,1.05-7,1.47-1.12.2-1.34.67-1.1,1.71.61,2.55,1.13,5.12,1.69,7.69C381.6,432.26,382.52,436.38,383.52,440.89ZM265.9,424.82a5.72,5.72,0,0,0,3.65-6.16c-.28-2.74-2.35-3.92-4.6-4.71-2.53-.9-5.17-1.49-7.7-2.38-1.36-.48-1.78,0-2.11,1.19-1.33,4.78-2.73,9.54-4.1,14.3-.5,1.77-1,3.53-1.55,5.43,2.85.83,5.46,1.63,8.1,2.36a15.05,15.05,0,0,0,2.83.46c2.21.17,4.29-.16,5.88-1.93C268.51,430.93,268.39,427.92,265.9,424.82Zm137-11.48c1.82,5,3.34,9.92,5.39,14.6,1.85,4.22,5.45,5.46,10,4.12s7.06-4.31,6.17-8.86c-1-5.22-2.86-10.28-4.39-15.59L415,409.32c.25.88.41,1.51.62,2.12,1.07,3.23,2.17,6.45,3.21,9.69a13.76,13.76,0,0,1,.66,3,3.16,3.16,0,0,1-2.2,3.33,2.59,2.59,0,0,1-3.6-1,60.41,60.41,0,0,1-2.87-6.9c-.94-2.55-1.74-5.15-2.65-7.89ZM292.67,442.59c-.08-1-.11-1.75-.19-2.45q-1-8.1-2-16.18c-.58-4.59-.6-4.55-5.11-5.35a1.91,1.91,0,0,0-2.37,1.23c-2.42,4.66-4.94,9.27-7.4,13.91-.88,1.66-1.71,3.35-2.58,5.06,5,1.49,5,1.49,7.18-2.78.13-.27.29-.52.52-.91,1.73.33,3.5.6,5.23,1a1.77,1.77,0,0,1,.87,1.24c.22,1.35.27,2.72.4,4.19Zm49.22,2.84c-.21-.85-.31-1.31-.45-1.75q-2.49-8-5-16.07c-1.39-4.45-1.4-4.41-6.07-4.41a1.76,1.76,0,0,0-2,1.42c-1.19,3.94-2.48,7.85-3.73,11.78-.91,2.88-1.81,5.76-2.8,8.9a38.73,38.73,0,0,0,4.37-.06,2.1,2.1,0,0,0,1.41-1.11,34.32,34.32,0,0,0,1.12-3.89h6.19c.36,1.35.65,2.69,1.09,4,.16.47.65,1.13,1,1.16C338.55,445.51,340.09,445.43,341.89,445.43ZM324.13,67.34c-4.46.23-8.68.48-12.9.67-1.22.06-1.08.84-1,1.63l.48,7.86c.24,4.21.48,8.41.74,12.79l14.37-.86c-.13-1.64-.23-3-.34-4.47l-8.91.42-.33-4.48,7.4-.54c-.11-1.57-.2-3-.3-4.3H316V72.39l8.5-.6C324.34,70.25,324.25,68.9,324.13,67.34Zm83.19,22-1.12.42c-4.25,1.63-5.25,6.34-2,9.5a9.44,9.44,0,0,0,8.59,2.49,5.72,5.72,0,0,0,4.05-8.42c-.29-.57-.67-1.1-1-1.64,3.89-2.9,4.95-5.91,3.12-8.79s-6.87-4.18-9.94-2.52C406.22,81.94,405.55,85.18,407.32,89.37ZM230,108c4.21,1.82,9.64.83,12.57-2.14a7,7,0,0,0,1.57-7.61c-1.14-2.73-3.33-3.74-6.14-3.76a53.14,53.14,0,0,1-5.36-.14A2.24,2.24,0,0,1,231,93.11a2.14,2.14,0,0,1,1-1.81,32.67,32.67,0,0,1,4.1-.81c.6-.12,1.48-.25,1.69-.66a16.41,16.41,0,0,0,.93-3.14,10.13,10.13,0,0,0-9.27.53c-3.11,1.89-4.48,4.94-3.61,8s3.12,4.4,6.93,4.45a27.55,27.55,0,0,1,4.46.21c.74.13,1.82.76,1.95,1.34a2.39,2.39,0,0,1-1.2,2,19.08,19.08,0,0,1-4.48.75,8.12,8.12,0,0,1-2-.37ZM381.58,91.61c2.4,5.13,9.94,6,13.62,1.53A15.55,15.55,0,0,0,398.51,80c-.73-4.12-4.12-6.46-8.38-6.11-3.66.3-6.24,3.28-6.39,7.39a6,6,0,0,0,7.56,6.25l1.54-.36c-1.56,4.84-3.62,5.35-8.18,2.15Zm60.23,1.55c-2.48-5.79-8.87-7.48-13.42-3.56a15.14,15.14,0,0,0-5.28,12.08,7.53,7.53,0,0,0,8.54,7.54,7.37,7.37,0,0,0,6.31-6.61C438.37,99.47,437,97,434,96a18.75,18.75,0,0,0-4.08-.48c2.34-4.34,4.37-4.5,8.32-.62ZM300.31,75.24a29.31,29.31,0,0,1,1.61-2.6c.75-1,.5-1.51-.5-2.09a10,10,0,0,0-11.23,1.13c-4.23,3.83-4.95,10.89-1.64,16.11A10,10,0,0,0,304.4,89c.34-.41.58-1.43.33-1.73a20.16,20.16,0,0,0-2.67-2.41c-.35.37-.58.63-.83.87-2.92,2.93-6.49,2.34-8.25-1.41a11.12,11.12,0,0,1-.83-2.72c-.48-2.55-.16-4.93,2-6.67S298.18,74,300.31,75.24ZM372.17,88c.81-5.76,1.58-11.3,2.35-16.76-2.52-1.22-4.73-.39-7,.09-2.8.59-2.89.6-2.7,3.65l3.66.69-1.67,11.55-4.59-.48-.58,4.27,13.81,2c.21-1.6.38-2.89.56-4.29ZM306.73,439.51c.54-5.88,1.07-11.62,1.6-17.52l-5.3-.49c-.7,7.41-1.38,14.68-2.08,22.09l13.87,1.29.38-4.48ZM257.58,100.65l-6.8-20.86-5,1.63c.19.75.28,1.21.43,1.66q2.47,7.65,5,15.31c1.53,4.66,1.54,4.66,6.13,2.59C257.32,101,257.35,100.9,257.58,100.65Z"/><path class="cls-1" d="M263.46,230.43V181.65c3.36,0,6.62-.12,9.88,0a70.43,70.43,0,0,1,10,1,9.79,9.79,0,0,1,8.07,7.92,31,31,0,0,1,.87,6.9c0,7,.15,14.12-.57,21.1-.79,7.67-5,11.32-12.68,11.79C273.89,230.68,268.76,230.43,263.46,230.43Z"/><path class="cls-1" d="M157.11,238.55h-18c2.85-10.75,5.65-21.35,8.45-31.94l.42-.05C151,217.17,154.05,227.78,157.11,238.55Z"/><path class="cls-1" d="M381.91,344.89a60.77,60.77,0,0,1-2.17,7.75,6.84,6.84,0,0,1-6.79,4.41,7.24,7.24,0,0,1-6.74-4.81,19,19,0,0,1-.41-14.32c1.28-3.6,4-5.54,7.36-5.52s5.95,1.9,7.19,5.47A61.26,61.26,0,0,1,381.91,344.89Z"/><path class="cls-1" d="M428.25,344.55c0,3.71-.54,7.29-3.18,10.17a6.89,6.89,0,0,1-11.09-.85,16.91,16.91,0,0,1-.5-17.71c2.71-5.1,9.53-5.05,12.7-.19A15.16,15.16,0,0,1,428.25,344.55Z"/><path class="cls-1" d="M323.86,343.09v-10.7c2.4.11,4.71.05,7,.37,2.74.39,4,1.89,4.08,4.37.11,2.8-1.07,4.82-3.7,5.35A59.38,59.38,0,0,1,323.86,343.09Z"/><path class="cls-1" d="M387.87,435.59c-.42-1.93-.75-3.42-1.13-5.2,1.54-.26,2.91-.57,4.3-.69,1.2-.1,2.28.49,2.3,1.72a3.47,3.47,0,0,1-1.11,2.63A20.14,20.14,0,0,1,387.87,435.59Z"/><path class="cls-1" d="M385.84,426.4c-.31-1.5-.58-2.81-.88-4.2,1.74-.51,3.34-1.36,4.87-.2a2.3,2.3,0,0,1,.58,2.06C389.73,426,387.78,425.94,385.84,426.4Z"/><path class="cls-1" d="M255.82,430c.52-1.79,1-3.31,1.49-5.12a20.66,20.66,0,0,1,4.19,1.64,2.79,2.79,0,0,1,1,2.44,3.12,3.12,0,0,1-2.21,1.79A19.75,19.75,0,0,1,255.82,430Z"/><path class="cls-1" d="M258.41,421.05c.47-1.6.82-2.83,1.25-4.32a12.71,12.71,0,0,1,3.21,1.14c.63.45,1.33,1.66,1.13,2.22a3.07,3.07,0,0,1-2.14,1.63C260.83,421.86,259.71,421.33,258.41,421.05Z"/><path class="cls-1" d="M286.47,431.8l-3.87-.72c1.09-2.4,2.11-4.67,3.35-7.44C286.14,426.62,286.3,429.05,286.47,431.8Z"/><path class="cls-1" d="M332,428.68c.56,2.29,1.13,4.59,1.74,7.06h-3.89c.62-2.39,1.22-4.72,1.83-7.06A1.55,1.55,0,0,1,332,428.68Z"/><path class="cls-1" d="M410.27,98a3.38,3.38,0,0,1-3.19-2.85c0-1.15,1.91-3.58,2.42-3.13a12.08,12.08,0,0,1,3,3.73C413,96.7,411.42,98,410.27,98Z"/><path class="cls-1" d="M413.29,89.1c-2.43-1.88-3-3.32-1.78-4.73a2.2,2.2,0,0,1,3.18,0C415.87,85.52,415.33,87.45,413.29,89.1Z"/><path class="cls-1" d="M394,81.67a2.5,2.5,0,0,1-2.71,2.41,2.4,2.4,0,0,1-2.61-2.51c0-1.92,1.18-3.49,2.63-3.5S394,79.53,394,81.67Z"/><path class="cls-1" d="M427.77,101.64c.08-1.82,1.09-2.79,2.78-2.68a2.66,2.66,0,0,1,2.58,2.46c0,1.67-1.6,3.57-2.93,3.54C428.66,104.92,427.68,103.58,427.77,101.64Z"/></g></g></svg>