<svg xmlns="http://www.w3.org/2000/svg" viewBox="0 0 1767.66 1767.69"><defs><style>.cls-1{fill:#fff;}</style></defs><title>Logo Circle</title><g id="Layer_2" data-name="Layer 2"><g id="Layer_1-2" data-name="Layer 1"><path class="cls-1" d="M392.7,985.1l-4.44,1-7.61,82.75,24.54-5.6q3.74-.85,25-6.79ZM649.76,946q-4.29-18.72-19-25t-40.92-.33c-2.3.52-3.7,1.34-4.3,2.42s-.64,3.26-.12,6.49q6,35.55,13.15,70.12L630,996.08a64.32,64.32,0,0,0,17.2-18.8Q654.28,965.81,649.76,946Zm0,0q-4.29-18.72-19-25t-40.92-.33c-2.3.52-3.7,1.34-4.3,2.42s-.64,3.26-.12,6.49q6,35.55,13.15,70.12L630,996.08a64.32,64.32,0,0,0,17.2-18.8Q654.28,965.81,649.76,946ZM392.7,985.1l-4.44,1-7.61,82.75,24.54-5.6q3.74-.85,25-6.79Zm0,0-4.44,1-7.61,82.75,24.54-5.6q3.74-.85,25-6.79ZM649.76,946q-4.29-18.72-19-25t-40.92-.33c-2.3.52-3.7,1.34-4.3,2.42s-.64,3.26-.12,6.49q6,35.55,13.15,70.12L630,996.08a64.32,64.32,0,0,0,17.2-18.8Q654.28,965.81,649.76,946ZM885.3,389.12c-334.33,0-605.36,212.64-605.36,475a376.41,376.41,0,0,0,8.91,81.62C338.13,764.25,586.43,626.26,885.3,626.26s547.17,138,596.45,319.43a378.28,378.28,0,0,0,8.91-81.62C1490.66,601.76,1219.63,389.12,885.3,389.12Zm0,0c-334.33,0-605.36,212.64-605.36,475a376.41,376.41,0,0,0,8.91,81.62C338.13,764.25,586.43,626.26,885.3,626.26s547.17,138,596.45,319.43a378.28,378.28,0,0,0,8.91-81.62C1490.66,601.76,1219.63,389.12,885.3,389.12ZM649.76,946q-4.29-18.72-19-25t-40.92-.33c-2.3.52-3.7,1.34-4.3,2.42s-.64,3.26-.12,6.49q6,35.55,13.15,70.12L630,996.08a64.32,64.32,0,0,0,17.2-18.8Q654.28,965.81,649.76,946ZM392.7,985.1l-4.44,1-7.61,82.75,24.54-5.6q3.74-.85,25-6.79Zm0,0-4.44,1-7.61,82.75,24.54-5.6q3.74-.85,25-6.79ZM649.76,946q-4.29-18.72-19-25t-40.92-.33c-2.3.52-3.7,1.34-4.3,2.42s-.64,3.26-.12,6.49q6,35.55,13.15,70.12L630,996.08a64.32,64.32,0,0,0,17.2-18.8Q654.28,965.81,649.76,946ZM885.3,389.12c-334.33,0-605.36,212.64-605.36,475a376.41,376.41,0,0,0,8.91,81.62C338.13,764.25,586.43,626.26,885.3,626.26s547.17,138,596.45,319.43a378.28,378.28,0,0,0,8.91-81.62C1490.66,601.76,1219.63,389.12,885.3,389.12Zm0,0c-334.33,0-605.36,212.64-605.36,475a376.41,376.41,0,0,0,8.91,81.62C338.13,764.25,586.43,626.26,885.3,626.26s547.17,138,596.45,319.43a378.28,378.28,0,0,0,8.91-81.62C1490.66,601.76,1219.63,389.12,885.3,389.12ZM649.76,946q-4.29-18.72-19-25t-40.92-.33c-2.3.52-3.7,1.34-4.3,2.42s-.64,3.26-.12,6.49q6,35.55,13.15,70.12L630,996.08a64.32,64.32,0,0,0,17.2-18.8Q654.28,965.81,649.76,946ZM392.7,985.1l-4.44,1-7.61,82.75,24.54-5.6q3.74-.85,25-6.79Zm0,0-4.44,1-7.61,82.75,24.54-5.6q3.74-.85,25-6.79ZM649.76,946q-4.29-18.72-19-25t-40.92-.33c-2.3.52-3.7,1.34-4.3,2.42s-.64,3.26-.12,6.49q6,35.55,13.15,70.12L630,996.08a64.32,64.32,0,0,0,17.2-18.8Q654.28,965.81,649.76,946ZM885.3,389.12c-334.33,0-605.36,212.64-605.36,475a376.41,376.41,0,0,0,8.91,81.62C338.13,764.25,586.43,626.26,885.3,626.26s547.17,138,596.45,319.43a378.28,378.28,0,0,0,8.91-81.62C1490.66,601.76,1219.63,389.12,885.3,389.12Zm0,0c-334.33,0-605.36,212.64-605.36,475a376.41,376.41,0,0,0,8.91,81.62C338.13,764.25,586.43,626.26,885.3,626.26s547.17,138,596.45,319.43a378.28,378.28,0,0,0,8.91-81.62C1490.66,601.76,1219.63,389.12,885.3,389.12ZM649.76,946q-4.29-18.72-19-25t-40.92-.33c-2.3.52-3.7,1.34-4.3,2.42s-.64,3.26-.12,6.49q6,35.55,13.15,70.12L630,996.08a64.32,64.32,0,0,0,17.2-18.8Q654.28,965.81,649.76,946ZM392.7,985.1l-4.44,1-7.61,82.75,24.54-5.6q3.74-.85,25-6.79Zm0,0-4.44,1-7.61,82.75,24.54-5.6q3.74-.85,25-6.79ZM649.76,946q-4.29-18.72-19-25t-40.92-.33c-2.3.52-3.7,1.34-4.3,2.42s-.64,3.26-.12,6.49q6,35.55,13.15,70.12L630,996.08a64.32,64.32,0,0,0,17.2-18.8Q654.28,965.81,649.76,946Zm553.66,153.83c-1.51-6.69-3.51-11.57-6-14.63s-5.36-4.25-8.71-3.48q-6.48,1.44-8.49,9.82t1.08,22.14c1.71,7.45,3.88,12.93,6.54,16.48s5.58,4.94,8.71,4.22c4.32-1,7.11-4.44,8.37-10.39S1205.71,1110,1203.42,1099.86ZM885.3,389.12c-334.33,0-605.36,212.64-605.36,475a376.41,376.41,0,0,0,8.91,81.62C338.13,764.25,586.43,626.26,885.3,626.26s547.17,138,596.45,319.43a378.28,378.28,0,0,0,8.91-81.62C1490.66,601.76,1219.63,389.12,885.3,389.12Zm0,0c-334.33,0-605.36,212.64-605.36,475a376.41,376.41,0,0,0,8.91,81.62C338.13,764.25,586.43,626.26,885.3,626.26s547.17,138,596.45,319.43a378.28,378.28,0,0,0,8.91-81.62C1490.66,601.76,1219.63,389.12,885.3,389.12Zm318.12,710.74c-1.51-6.69-3.51-11.57-6-14.63s-5.36-4.25-8.71-3.48q-6.48,1.44-8.49,9.82t1.08,22.14c1.71,7.45,3.88,12.93,6.54,16.48s5.58,4.94,8.71,4.22c4.32-1,7.11-4.44,8.37-10.39S1205.71,1110,1203.42,1099.86ZM649.76,946q-4.29-18.72-19-25t-40.92-.33c-2.3.52-3.7,1.34-4.3,2.42s-.64,3.26-.12,6.49q6,35.55,13.15,70.12L630,996.08a64.32,64.32,0,0,0,17.2-18.8Q654.28,965.81,649.76,946ZM392.7,985.1l-4.44,1-7.61,82.75,24.54-5.6q3.74-.85,25-6.79Zm0,0-4.44,1-7.61,82.75,24.54-5.6q3.74-.85,25-6.79ZM649.76,946q-4.29-18.72-19-25t-40.92-.33c-2.3.52-3.7,1.34-4.3,2.42s-.64,3.26-.12,6.49q6,35.55,13.15,70.12L630,996.08a64.32,64.32,0,0,0,17.2-18.8Q654.28,965.81,649.76,946Zm553.66,153.83c-1.51-6.69-3.51-11.57-6-14.63s-5.36-4.25-8.71-3.48q-6.48,1.44-8.49,9.82t1.08,22.14c1.71,7.45,3.88,12.93,6.54,16.48s5.58,4.94,8.71,4.22c4.32-1,7.11-4.44,8.37-10.39S1205.71,1110,1203.42,1099.86Zm71.54-16.19c-1.5-6.69-3.5-11.57-6-14.63s-5.35-4.25-8.71-3.48c-4.32,1-7.13,4.24-8.49,9.82s-1,13,1.09,22.14c1.7,7.45,3.87,12.93,6.54,16.48s5.58,4.94,8.71,4.22c4.32-1,7.11-4.44,8.37-10.39S1277.26,1093.81,1275,1083.67ZM885.3,389.12c-334.33,0-605.36,212.64-605.36,475a376.41,376.41,0,0,0,8.91,81.62C338.13,764.25,586.43,626.26,885.3,626.26s547.17,138,596.45,319.43a378.28,378.28,0,0,0,8.91-81.62C1490.66,601.76,1219.63,389.12,885.3,389.12Zm0,0c-334.33,0-605.36,212.64-605.36,475a376.41,376.41,0,0,0,8.91,81.62C338.13,764.25,586.43,626.26,885.3,626.26s547.17,138,596.45,319.43a378.28,378.28,0,0,0,8.91-81.62C1490.66,601.76,1219.63,389.12,885.3,389.12ZM1275,1083.67c-1.5-6.69-3.5-11.57-6-14.63s-5.35-4.25-8.71-3.48c-4.32,1-7.13,4.24-8.49,9.82s-1,13,1.09,22.14c1.7,7.45,3.87,12.93,6.54,16.48s5.58,4.94,8.71,4.22c4.32-1,7.11-4.44,8.37-10.39S1277.26,1093.81,1275,1083.67Zm-71.54,16.19c-1.51-6.69-3.51-11.57-6-14.63s-5.36-4.25-8.71-3.48q-6.48,1.44-8.49,9.82t1.08,22.14c1.71,7.45,3.88,12.93,6.54,16.48s5.58,4.94,8.71,4.22c4.32-1,7.11-4.44,8.37-10.39S1205.71,1110,1203.42,1099.86ZM649.76,946q-4.29-18.72-19-25t-40.92-.33c-2.3.52-3.7,1.34-4.3,2.42s-.64,3.26-.12,6.49q6,35.55,13.15,70.12L630,996.08a64.32,64.32,0,0,0,17.2-18.8Q654.28,965.81,649.76,946ZM392.7,985.1l-4.44,1-7.61,82.75,24.54-5.6q3.74-.85,25-6.79ZM883.82,0C395.71,0,0,395.71,0,883.84s395.71,883.85,883.82,883.85S1767.66,1372,1767.66,883.84,1372,0,883.82,0ZM523.62,1139.08q-12.36,2.45-24.95,5.35-18.06,4.11-35,9.26c-11.28,3.4-18.49,5.6-21.62,6.54l-2.32-2.32-2.89-20.51a143.66,143.66,0,0,0,16.34-6.07c3.35-1.58,5.53-3.28,6.56-5.09s1.19-4.14.52-7.1a62,62,0,0,0-4.44-11.53L442.67,1083q-17.84,3.36-31.49,6.49-6.14,1.39-25.15,7.55l-7,2.32-2.52,28.18q-.33,8,.37,11c.94,4.08,2.76,6.64,5.53,7.68s7.06.91,13-.45l14.63-3.35,2.25,2,2.37,21.32c-3.23.49-10.15,1.65-20.71,3.48s-20.41,3.78-29.49,5.85q-14.32,3.3-25.64,6.22t-15,4.14l-2.69-22.68a24,24,0,0,0,11.48-9.42q3.93-6.3,5.72-18.88l21.48-186.68,50.88-17.37,4.15.86q9.56,18.26,39.46,74.68t49.86,90.23q6.54,11.4,13.52,15.2c4.64,2.52,10.88,3.23,18.78,2.15l1.9,2.07,2.12,20.31C537.47,1136.39,531.84,1137.42,523.62,1139.08Zm100.92-22.73q-15.4,3.18-28.36,6.14-12.58,2.85-25.74,6.59c-8.74,2.47-14.46,4.15-17.13,5l-2.07-23.18c9.28-3.3,15.1-7.28,17.52-11.89s2.49-11.8.27-21.57L538.87,945.59q-2.25-9.89-5.25-12.78c-2-1.93-5.14-2.42-9.45-1.43a71.14,71.14,0,0,0-7.09,2c-2.22.76-3.67,1.21-4.34,1.36l-2.67-2.25-1.6-21.15c3.16-.71,9-1.95,17.62-3.68s16.93-3.5,25.1-5.38q13.62-3.11,29.37-7.25c10.49-2.74,17.74-4.72,21.76-5.88q38.83-8.88,62.89,1.41t30.5,38.55a63.51,63.51,0,0,1-3.5,39.51q-8.12,19.44-27.69,35.74l41.11,41.85q13.14,13.52,23.55,18.29a32.58,32.58,0,0,0,21.32,2.3l3.08,2.51,1.66,18.27-39,12.85q-22.12,5.08-44.37-23.19L628.51,1024l-24.19,5.53,8.12,38.67q2.74,11.92,5.66,16.81a10.49,10.49,0,0,0,8.07,5.5q5.15.63,16.8-1.7l1.51,1.83,1.68,21.47Q639.93,1113.19,624.54,1116.35ZM805.19,885.77l9.85,54,32.08-7q7.18-1.63,17.69-4.94t21.13-7.16l3.43,2.45,1.85,30a53.93,53.93,0,0,1-6.88,1.24q-24,4.77-38,7.94a219.55,219.55,0,0,0-25.76,8l10.46,48.89c1.46,6.34,3,10.78,4.64,13.28a8.93,8.93,0,0,0,7.06,4.12c3,.24,8.07-.42,15.13-2q22.47-5.15,31.94-10t12.11-13.7q2.63-8.85.89-27.47l27.4-8.76,3.08,2.52q.63,27.84,5.21,65.13l-2.54,4.51q-65.64,12.52-106.5,21.85A521.59,521.59,0,0,0,772,1085.5l-2.84-23.37q13.85-5.3,17.54-12.61t.28-22.29L757.63,897.34q-2.55-11.22-5.43-14.34t-9.67-1.55a100.29,100.29,0,0,0-10.39,3.08l-2.77-2.59-2-21.05,6.82-1.58q24.42-4.47,55.08-11.5,76-17.4,102.64-27.79l3.58,3.14q.15,13.22,1.93,31.12t4.34,32.33l-29.86,9-2.42-13.8q-2.34-10.21-6.22-13.79c-2.57-2.4-6.89-3.46-12.91-3.16s-15.84,2-29.47,5.13a77.42,77.42,0,0,0-12.11,3.48c-2.17,1-3.46,2.35-3.9,4.12S804.57,882.09,805.19,885.77Zm39.34,321.5c-.67-4.94-1.83-12.64-3.43-23s-3.48-21.79-5.6-34.13l-1.29.29q-3,14.11-16.43,82.34l-10.89,3.8Q792,1202.15,775,1163.81l-1.29.29q2.67,60,3,61.58a4.45,4.45,0,0,0,1.78,3,5,5,0,0,0,3.55.22l5.26-1.53.86.81-.64,10.69c-6.24,1-12.44,2.15-18.58,3.53-2.28.52-4.94,1.26-8,2.25s-5.52,1.85-7.4,2.61l.1-10.91a11.71,11.71,0,0,0,6.22-4.81c1.23-2.1,1.87-5.26,1.95-9.48q-.12-17-.59-42.47t-1-27.62a5.18,5.18,0,0,0-3.46-4c-1.85-.67-4.81-.72-8.88-.13l-1-.79.4-9.62c11.45-2,18.09-3.23,19.91-3.65,2.18-.5,7.73-2,16.69-4.47q6,16,13.64,34.35t13.6,31.15l1.29-.3q5.5-27.62,13-74.23a83.27,83.27,0,0,1,8.64-1.78l8.29-1.73c1.92-.42,7.85-2.1,17.74-5l.79.52,0,9.84c-4.35,1.46-7.26,3-8.76,4.54s-2.1,4-1.73,7q.66,6,4.14,25.44T861,1195.2c1.14,6,2.32,9.89,3.58,11.7a4.8,4.8,0,0,0,5.46,1.92l4.46-1.36c.13.1.28.2.42.32a1.1,1.1,0,0,1,.3.55l-.32,10.61c-8.17,1.5-13.45,2.54-15.82,3.08-3.14.7-7.06,1.73-11.8,3.09s-8.31,2.49-10.73,3.36l.19-11.11c3.06-1,5.19-2.32,6.37-3.9A8.8,8.8,0,0,0,844.53,1207.27ZM825.67,1397a122.84,122.84,0,0,1-166-73.22l-.59-1.83c.37,0,.76,0,1.13,0a6.19,6.19,0,0,0,.74,0c6.72,0,13-3.44,18.36-9.38,8.64-9.6,16.69-20.46,23.89-38.85,9-11.94,15.26-19.62,28-21.52-1.63,36-12.69,67.23-28.7,85.54a138.86,138.86,0,0,0,187.19-7A123.21,123.21,0,0,1,825.67,1397Zm118.81-196.94c-3.33,3.87-6.49,6.14-9.53,6.84-4.51,1-7.25-.47-8.14-4.47q-.78-3.37-.67-30l-1.35,0q-6.67,28.55-16.91,40.4c-5.6,1.29-10.32.89-14.12-1.13s-6.24-5.43-7.33-10.17a40.12,40.12,0,0,1-.49-9c.12-3.92.37-9.4.72-16.41q1.14-18.11.37-21.69a5.8,5.8,0,0,0-2.45-4c-1.16-.69-2.84-.79-5-.32l-5.65,1.28-.52-9.75q9.26-2.07,30.31-8.22l2.49,2q-2,20.37-2.76,35.17c-.5,9.85-.5,15.87,0,18a6.23,6.23,0,0,0,1.63,3.38,3.42,3.42,0,0,0,3.16.49q3.56-.81,7.92-13.55t8-33.29l-1-15.92,2-1.65,16.36-2.86,2.15,1.9c-.71,8.44-1.11,18-1.18,28.6s.12,19.87.64,27.69l.64.52a9.76,9.76,0,0,0,2.76-2.4c1-1.2,2.72-3.38,5.09-6.51l2.81-.3,3.88,5.09Q949.46,1194.25,944.48,1200.06Zm42.45-342.6a22.18,22.18,0,0,0,9.33,13.48,59.55,59.55,0,0,0,16.93,8.14q9.43,2.85,27.24,7c14.12,3.21,25.89,6.4,35.32,9.48a73.8,73.8,0,0,1,25.32,14.29q11.17,9.63,14.83,25.64,4.66,20.43-3.53,38.62t-27.56,31.59q-19.36,13.37-47.61,19.85a140,140,0,0,1-29.64,3.72,148.83,148.83,0,0,1-23.4-1.28c-6.31-.94-9.5-1.53-9.55-1.75l-3.82-4.15c-.13-1.63-.42-5.23-.84-10.73s-1.21-12.89-2.35-22.07-2.69-18-4.61-26.36l27.49-8.44q4.34,19.11,10.1,28.53t14.73,11.87c6,1.61,14,1.29,24-1q16.37-3.74,24.58-13.15t5.38-22q-2.58-11.25-14.75-16.7t-36.41-11c-1-.24-3.92-.88-8.68-1.94q-28.36-6.45-45.78-16.79T941.2,880.12a58.21,58.21,0,0,1,3.6-37.57q8-18.13,26.65-31.56t44.85-19.4a183.21,183.21,0,0,1,28.23-4.29,181.14,181.14,0,0,1,21.42-.42c5.46.32,8.91.54,10.37.66l3.4,3.9c.08,1.41.2,5,.35,10.86s.62,13.18,1.45,22.07,2,18,3.36,27.19l-24.75,7.8L1056.6,858c-.17-.69-.37-2.12-.64-4.35s-.77-4.88-1.48-8.07q-3.52-15.32-12.66-20.06t-27.2-.59q-14.65,3.36-22.43,12.49T986.93,857.46Zm24.92,318.17a30.61,30.61,0,0,1-9.47,12.26,37.42,37.42,0,0,1-15.3,7.21,36.93,36.93,0,0,1-15.08.62c-4.47-.87-7.51-2.67-9.13-5.36a47.2,47.2,0,0,1,1-10.09,47.89,47.89,0,0,1,2.59-9.26l3.11-.54c1.21,4.37,3.41,7.6,6.59,9.65s7,2.59,11.28,1.63a10.15,10.15,0,0,0,6.12-3.7,6.92,6.92,0,0,0,1.38-6,7.87,7.87,0,0,0-3.85-5,63.43,63.43,0,0,0-9.15-4.3c-4-1.6-7.13-3-9.48-4.24a25.26,25.26,0,0,1-6.49-5.08,16.77,16.77,0,0,1-4.12-8.1,23,23,0,0,1,1.08-13.94,28.62,28.62,0,0,1,8.91-11.8,35.08,35.08,0,0,1,14.44-6.84,37.79,37.79,0,0,1,12.07-.86,21.86,21.86,0,0,1,9.5,3,112,112,0,0,1-4,17.92l-3.06.69a16.66,16.66,0,0,0-6.61-5.92,11.62,11.62,0,0,0-7.7-.89,8.23,8.23,0,0,0-5,3.16,6.48,6.48,0,0,0-1.08,5.35q.88,3.88,6.59,6.52c1.13.54,2.27,1,3.4,1.53l3,1.28a61.2,61.2,0,0,1,13.31,6.94,16.32,16.32,0,0,1,6.36,10A22.83,22.83,0,0,1,1011.85,1175.63Zm73.28-7.83c-3.46,4.08-6.69,6.44-9.7,7.14-5.09,1.16-8.15-.6-9.18-5.24a33.47,33.47,0,0,1-.42-8.24q.18-5.48.94-15c.34-4.93.61-9.8.79-14.56s0-8.07-.4-10a7.43,7.43,0,0,0-2.1-4,3.92,3.92,0,0,0-3.6-.79c-2.69.62-5.48,5.14-8.32,13.55s-5.33,19.1-7.4,32l1.23,12.14c.08,1.36-1.55,3.08-4.88,5.18a31.52,31.52,0,0,1-10.15,4.34l-2.66-1.94q-1-14.92-3.78-56.57t-3.65-47.75c-.32-2.42-1.06-4-2.22-4.87s-2.91-1-5.28-.42l-5.65,1.29-.65-9.55c5-1.14,10.81-2.64,17.53-4.57s11.05-3.21,13.05-3.9l2.37,2.2c0,2.27,0,7.55.1,15.79s.35,18.34.72,30.21.91,23.25,1.65,34.08l1,0a166.23,166.23,0,0,1,8.42-26.75q4.66-10.92,10-16,7.92-1.79,14,1.68a15.63,15.63,0,0,1,7.66,10.61,39.65,39.65,0,0,1,.49,10.44c-.22,4.47-.74,10.27-1.51,17.35q-1.37,12.06-1.4,17.84l.59.37a5.93,5.93,0,0,0,2.59-2.1c1.06-1.25,3.21-4.14,6.39-8.58l2.87-.15,3.87,5.08Q1090.28,1161.7,1085.13,1167.8Zm70.58-67.1c-.17,2.49-.3,4.07-.37,4.76l-6.07,1.73c-.77-3.8-2.15-5.48-4.2-5q-4.69,1.08-9,11.13t-6.86,26.48l1.58,16c.07,1.36-1.53,3.08-4.86,5.21a32.23,32.23,0,0,1-10.17,4.32l-2.64-2q-.37-8.27-1.75-31.42t-2.35-27.2c-.47-2.17-1.28-3.62-2.42-4.39s-2.83-.89-5.11-.37l-5.67,1.28-.67-9.72c5-1.14,10.76-2.64,17.35-4.52s10.93-3.13,13-3.7l2.52,2.15q-.27,2.63-.67,11.65c-.3,6-.27,11.94,0,17.77l1-.23q3.26-15.69,8.91-26.08t12.19-12.22a7.9,7.9,0,0,1,3.45,2.47,11.06,11.06,0,0,1,2.5,4.2,49.36,49.36,0,0,1,.66,9C1156,1095.32,1155.88,1098.23,1155.71,1100.7Zm66.51,14.56a46.12,46.12,0,0,1-10.22,21.79,34.63,34.63,0,0,1-19,11.45q-10.67,2.45-18.56-3.87t-10.94-19.72a61.16,61.16,0,0,1-.44-26.38,45.53,45.53,0,0,1,10.34-21.23,35,35,0,0,1,18.83-11.15c7.33-1.65,13.58-.59,18.68,3.18s8.64,10,10.59,18.61A65.82,65.82,0,0,1,1222.22,1115.26Zm71.55-16.19a46.31,46.31,0,0,1-10.22,21.79,34.54,34.54,0,0,1-19,11.45q-10.66,2.45-18.56-3.87T1235,1108.72a61.16,61.16,0,0,1-.44-26.38,45.44,45.44,0,0,1,10.34-21.23,35,35,0,0,1,18.83-11.15q11-2.48,18.68,3.18t10.59,18.64A65.67,65.67,0,0,1,1293.77,1099.07Zm117.13-5q-5.26,6.11-9.63,7.11c-5.08,1.13-8.14-.59-9.18-5.23a30.37,30.37,0,0,1-.35-7.93c.18-3.45.57-8.68,1.11-15.74s1.07-12.54,1.21-16.09a31.3,31.3,0,0,0-.42-8.24,7,7,0,0,0-2.17-4,3.81,3.81,0,0,0-3.5-.89c-2.82.62-5.8,5.48-9,14.53s-6,20.41-8.29,34.11l.64,9.55c.07,1.36-1.56,3.09-4.86,5.18a31.65,31.65,0,0,1-10.17,4.35l-2.67-1.95q.22-7.37.25-27.86t-.84-24.41a6.2,6.2,0,0,0-2-3.7,4.09,4.09,0,0,0-3.56-.65c-2.59.57-5.28,5.09-8.09,13.48s-5.18,19.08-7.13,32l1.21,12.15c.07,1.35-1.56,3.08-4.87,5.2a32,32,0,0,1-10.16,4.32l-2.67-2q-.45-8-1.87-30.87c-.94-15.2-1.66-24.31-2.08-27.27q-.48-3.63-2.29-4.84c-1.21-.81-3-.94-5.38-.39l-5.65,1.28-.67-9.72c5-1.14,10.73-2.65,17.35-4.52s10.93-3.14,13-3.7l2.51,2.14c-.12.94-.29,3.11-.49,6.49s-.35,7.61-.45,12.62,0,9.94.28,14.73h.84q7.37-32.84,18.06-42.72c5.18-1.19,9.72-.64,13.65,1.58a15.23,15.23,0,0,1,7.43,10.32c.47,2,.61,5.75.44,11.05s-.29,8.89-.44,10.74l.84,0a151.17,151.17,0,0,1,8.29-26.55q4.77-11.11,10.41-16.32c5.31-1.18,9.85-.66,13.65,1.61a15.64,15.64,0,0,1,7.31,10.51,41.57,41.57,0,0,1,.46,10.69q-.36,7-1.48,17.1c-.88,8.14-1.33,14.22-1.35,18.16l.61.4c.65-.15,1.63-1.06,3-2.72s3.33-4.31,6-8l3-.17,3.7,5.1Q1416.17,1088,1410.9,1094.11Zm79.22-98.64c-2.55,5.7-5.19,11.33-8,16.93A308,308,0,0,0,1472.5,980c-66-184.25-303.83-320.71-587.2-320.71S364.05,795.79,298.1,980a310.69,310.69,0,0,0-9.65,32.33c-2.79-5.6-5.43-11.23-8-16.93a382,382,0,0,1-30.21-109.38,370.11,370.11,0,0,1-2.64-44.22v-.25c.2-266.86,285.62-483.15,637.67-483.15S1523,574.88,1523,841.84C1523,895.54,1511.41,947.19,1490.12,995.47ZM885.3,389.12c-334.33,0-605.36,212.64-605.36,475a376.41,376.41,0,0,0,8.91,81.62C338.13,764.25,586.43,626.26,885.3,626.26s547.17,138,596.45,319.43a378.28,378.28,0,0,0,8.91-81.62C1490.66,601.76,1219.63,389.12,885.3,389.12ZM1269,1069c-2.46-3.09-5.35-4.25-8.71-3.48-4.32,1-7.13,4.24-8.49,9.82s-1,13,1.09,22.14c1.7,7.45,3.87,12.93,6.54,16.48s5.58,4.94,8.71,4.22c4.32-1,7.11-4.44,8.37-10.39s.74-14-1.56-24.16C1273.46,1077,1271.46,1072.1,1269,1069Zm-71.54,16.19c-2.47-3.09-5.36-4.25-8.71-3.48q-6.48,1.44-8.49,9.82t1.08,22.14c1.71,7.45,3.88,12.93,6.54,16.48s5.58,4.94,8.71,4.22c4.32-1,7.11-4.44,8.37-10.39s.74-14-1.55-24.16C1201.91,1093.17,1199.91,1088.29,1197.47,1085.23Zm-550.25-108q7.06-11.47,2.54-31.25-4.29-18.72-19-25t-40.92-.33c-2.3.52-3.7,1.34-4.3,2.42s-.64,3.26-.12,6.49q6,35.55,13.15,70.12L630,996.08A64.32,64.32,0,0,0,647.22,977.28Zm-259,8.83-7.61,82.75,24.54-5.6q3.74-.85,25-6.79L392.7,985.1Zm4.44-1-4.44,1-7.61,82.75,24.54-5.6q3.74-.85,25-6.79ZM649.76,946q-4.29-18.72-19-25t-40.92-.33c-2.3.52-3.7,1.34-4.3,2.42s-.64,3.26-.12,6.49q6,35.55,13.15,70.12L630,996.08a64.32,64.32,0,0,0,17.2-18.8Q654.28,965.81,649.76,946Zm553.66,153.83c-1.51-6.69-3.51-11.57-6-14.63s-5.36-4.25-8.71-3.48q-6.48,1.44-8.49,9.82t1.08,22.14c1.71,7.45,3.88,12.93,6.54,16.48s5.58,4.94,8.71,4.22c4.32-1,7.11-4.44,8.37-10.39S1205.71,1110,1203.42,1099.86Zm71.54-16.19c-1.5-6.69-3.5-11.57-6-14.63s-5.35-4.25-8.71-3.48c-4.32,1-7.13,4.24-8.49,9.82s-1,13,1.09,22.14c1.7,7.45,3.87,12.93,6.54,16.48s5.58,4.94,8.71,4.22c4.32-1,7.11-4.44,8.37-10.39S1277.26,1093.81,1275,1083.67ZM885.3,389.12c-334.33,0-605.36,212.64-605.36,475a376.41,376.41,0,0,0,8.91,81.62C338.13,764.25,586.43,626.26,885.3,626.26s547.17,138,596.45,319.43a378.28,378.28,0,0,0,8.91-81.62C1490.66,601.76,1219.63,389.12,885.3,389.12Zm0,0c-334.33,0-605.36,212.64-605.36,475a376.41,376.41,0,0,0,8.91,81.62C338.13,764.25,586.43,626.26,885.3,626.26s547.17,138,596.45,319.43a378.28,378.28,0,0,0,8.91-81.62C1490.66,601.76,1219.63,389.12,885.3,389.12ZM1275,1083.67c-1.5-6.69-3.5-11.57-6-14.63s-5.35-4.25-8.71-3.48c-4.32,1-7.13,4.24-8.49,9.82s-1,13,1.09,22.14c1.7,7.45,3.87,12.93,6.54,16.48s5.58,4.94,8.71,4.22c4.32-1,7.11-4.44,8.37-10.39S1277.26,1093.81,1275,1083.67Zm-71.54,16.19c-1.51-6.69-3.51-11.57-6-14.63s-5.36-4.25-8.71-3.48q-6.48,1.44-8.49,9.82t1.08,22.14c1.71,7.45,3.88,12.93,6.54,16.48s5.58,4.94,8.71,4.22c4.32-1,7.11-4.44,8.37-10.39S1205.71,1110,1203.42,1099.86ZM649.76,946q-4.29-18.72-19-25t-40.92-.33c-2.3.52-3.7,1.34-4.3,2.42s-.64,3.26-.12,6.49q6,35.55,13.15,70.12L630,996.08a64.32,64.32,0,0,0,17.2-18.8Q654.28,965.81,649.76,946ZM392.7,985.1l-4.44,1-7.61,82.75,24.54-5.6q3.74-.85,25-6.79Zm0,0-4.44,1-7.61,82.75,24.54-5.6q3.74-.85,25-6.79ZM649.76,946q-4.29-18.72-19-25t-40.92-.33c-2.3.52-3.7,1.34-4.3,2.42s-.64,3.26-.12,6.49q6,35.55,13.15,70.12L630,996.08a64.32,64.32,0,0,0,17.2-18.8Q654.28,965.81,649.76,946ZM885.3,389.12c-334.33,0-605.36,212.64-605.36,475a376.41,376.41,0,0,0,8.91,81.62C338.13,764.25,586.43,626.26,885.3,626.26s547.17,138,596.45,319.43a378.28,378.28,0,0,0,8.91-81.62C1490.66,601.76,1219.63,389.12,885.3,389.12Zm0,0c-334.33,0-605.36,212.64-605.36,475a376.41,376.41,0,0,0,8.91,81.62C338.13,764.25,586.43,626.26,885.3,626.26s547.17,138,596.45,319.43a378.28,378.28,0,0,0,8.91-81.62C1490.66,601.76,1219.63,389.12,885.3,389.12ZM649.76,946q-4.29-18.72-19-25t-40.92-.33c-2.3.52-3.7,1.34-4.3,2.42s-.64,3.26-.12,6.49q6,35.55,13.15,70.12L630,996.08a64.32,64.32,0,0,0,17.2-18.8Q654.28,965.81,649.76,946ZM392.7,985.1l-4.44,1-7.61,82.75,24.54-5.6q3.74-.85,25-6.79Zm0,0-4.44,1-7.61,82.75,24.54-5.6q3.74-.85,25-6.79ZM649.76,946q-4.29-18.72-19-25t-40.92-.33c-2.3.52-3.7,1.34-4.3,2.42s-.64,3.26-.12,6.49q6,35.55,13.15,70.12L630,996.08a64.32,64.32,0,0,0,17.2-18.8Q654.28,965.81,649.76,946ZM885.3,389.12c-334.33,0-605.36,212.64-605.36,475a376.41,376.41,0,0,0,8.91,81.62C338.13,764.25,586.43,626.26,885.3,626.26s547.17,138,596.45,319.43a378.28,378.28,0,0,0,8.91-81.62C1490.66,601.76,1219.63,389.12,885.3,389.12Zm0,0c-334.33,0-605.36,212.64-605.36,475a376.41,376.41,0,0,0,8.91,81.62C338.13,764.25,586.43,626.26,885.3,626.26s547.17,138,596.45,319.43a378.28,378.28,0,0,0,8.91-81.62C1490.66,601.76,1219.63,389.12,885.3,389.12ZM649.76,946q-4.29-18.72-19-25t-40.92-.33c-2.3.52-3.7,1.34-4.3,2.42s-.64,3.26-.12,6.49q6,35.55,13.15,70.12L630,996.08a64.32,64.32,0,0,0,17.2-18.8Q654.28,965.81,649.76,946ZM392.7,985.1l-4.44,1-7.61,82.75,24.54-5.6q3.74-.85,25-6.79Zm0,0-4.44,1-7.61,82.75,24.54-5.6q3.74-.85,25-6.79ZM649.76,946q-4.29-18.72-19-25t-40.92-.33c-2.3.52-3.7,1.34-4.3,2.42s-.64,3.26-.12,6.49q6,35.55,13.15,70.12L630,996.08a64.32,64.32,0,0,0,17.2-18.8Q654.28,965.81,649.76,946ZM885.3,389.12c-334.33,0-605.36,212.64-605.36,475a376.41,376.41,0,0,0,8.91,81.62C338.13,764.25,586.43,626.26,885.3,626.26s547.17,138,596.45,319.43a378.28,378.28,0,0,0,8.91-81.62C1490.66,601.76,1219.63,389.12,885.3,389.12Zm0,0c-334.33,0-605.36,212.64-605.36,475a376.41,376.41,0,0,0,8.91,81.62C338.13,764.25,586.43,626.26,885.3,626.26s547.17,138,596.45,319.43a378.28,378.28,0,0,0,8.91-81.62C1490.66,601.76,1219.63,389.12,885.3,389.12ZM649.76,946q-4.29-18.72-19-25t-40.92-.33c-2.3.52-3.7,1.34-4.3,2.42s-.64,3.26-.12,6.49q6,35.55,13.15,70.12L630,996.08a64.32,64.32,0,0,0,17.2-18.8Q654.28,965.81,649.76,946ZM392.7,985.1l-4.44,1-7.61,82.75,24.54-5.6q3.74-.85,25-6.79Zm0,0-4.44,1-7.61,82.75,24.54-5.6q3.74-.85,25-6.79ZM649.76,946q-4.29-18.72-19-25t-40.92-.33c-2.3.52-3.7,1.34-4.3,2.42s-.64,3.26-.12,6.49q6,35.55,13.15,70.12L630,996.08a64.32,64.32,0,0,0,17.2-18.8Q654.28,965.81,649.76,946ZM885.3,389.12c-334.33,0-605.36,212.64-605.36,475a376.41,376.41,0,0,0,8.91,81.62C338.13,764.25,586.43,626.26,885.3,626.26s547.17,138,596.45,319.43a378.28,378.28,0,0,0,8.91-81.62C1490.66,601.76,1219.63,389.12,885.3,389.12Zm0,0c-334.33,0-605.36,212.64-605.36,475a376.41,376.41,0,0,0,8.91,81.62C338.13,764.25,586.43,626.26,885.3,626.26s547.17,138,596.45,319.43a378.28,378.28,0,0,0,8.91-81.62C1490.66,601.76,1219.63,389.12,885.3,389.12ZM649.76,946q-4.29-18.72-19-25t-40.92-.33c-2.3.52-3.7,1.34-4.3,2.42s-.64,3.26-.12,6.49q6,35.55,13.15,70.12L630,996.08a64.32,64.32,0,0,0,17.2-18.8Q654.28,965.81,649.76,946ZM392.7,985.1l-4.44,1-7.61,82.75,24.54-5.6q3.74-.85,25-6.79ZM649.76,946q-4.29-18.72-19-25t-40.92-.33c-2.3.52-3.7,1.34-4.3,2.42s-.64,3.26-.12,6.49q6,35.55,13.15,70.12L630,996.08a64.32,64.32,0,0,0,17.2-18.8Q654.28,965.81,649.76,946Zm0,0q-4.29-18.72-19-25t-40.92-.33c-2.3.52-3.7,1.34-4.3,2.42s-.64,3.26-.12,6.49q6,35.55,13.15,70.12L630,996.08a64.32,64.32,0,0,0,17.2-18.8Q654.28,965.81,649.76,946Z"/></g></g></svg>