<svg id="Layer_1" data-name="Layer 1" xmlns="http://www.w3.org/2000/svg" viewBox="0 0 1341.95 1103.81"><defs><style>.cls-1{stroke:#fff;}.cls-1,.cls-2{stroke-miterlimit:10;}.cls-2{stroke:#000;}</style></defs><title>logoOutline</title><path class="cls-1" d="M-215.71,1578.78" transform="translate(-308.21 -388.48)"/><path class="cls-2" d="M102.18,891.35" transform="translate(-308.21 -388.48)"/><path class="cls-2" d="M102.18,891.35" transform="translate(-308.21 -388.48)"/><path d="M979.18,1427.55" transform="translate(-308.21 -388.48)"/><path d="M979.18,1413" transform="translate(-308.21 -388.48)"/><path d="M979.18,388.48c-370.45,0-670.77,227.58-671,508.37v.28A392.08,392.08,0,0,0,311,943.66a402.63,402.63,0,0,0,31.8,115.08q4,9,8.38,17.81a326.7,326.7,0,0,1,10.16-34C430.69,848.66,681,705.09,979.18,705.09S1527.66,848.66,1597,1042.54a324.15,324.15,0,0,1,10.17,34q4.41-8.82,8.37-17.81c22.44-50.78,34.59-105.13,34.59-161.64C1650.16,616.21,1349.75,388.48,979.18,388.48Zm627.61,617.9c-51.87-190.9-313.12-336.09-627.61-336.09S403.43,815.48,351.57,1006.38a397.51,397.51,0,0,1-9.37-85.85c0-276,285.19-499.77,637-499.77s637,223.75,637,499.77A397.51,397.51,0,0,1,1606.79,1006.38Z" transform="translate(-308.21 -388.48)"/><path d="M983.84,1411.69a146.2,146.2,0,0,1-197,7.31c16.87-19.27,28.5-52.09,30.22-90-13.45,2-20.09,10.08-29.51,22.65-7.58,19.33-16,30.78-25.13,40.87-5.65,6.26-12.26,9.87-19.33,9.87a6.61,6.61,0,0,1-.77,0c-.4,0-.8,0-1.19-.06.2.64.41,1.28.62,1.92a129.17,129.17,0,0,0,174.66,77A129.58,129.58,0,0,0,983.84,1411.69Z" transform="translate(-308.21 -388.48)"/><path d="M510.34,1229.68l-3-21.56a154.05,154.05,0,0,0,17.21-6.38q5.26-2.54,6.88-5.35t.56-7.48a66.61,66.61,0,0,0-4.66-12.14l-13.84-25.88q-18.81,3.54-33.15,6.82-6.45,1.49-26.47,7.94l-7.37,2.44-2.65,29.65q-.35,8.38.39,11.61,1.49,6.45,5.82,8.1t13.66-.48l15.41-3.53,2.37,2.1L484,1238q-5.11.8-21.8,3.67t-31,6.15q-15.06,3.43-27,6.55t-15.79,4.36l-2.82-23.87a25.25,25.25,0,0,0,12.06-9.93q4.16-6.6,6-19.86l22.61-196.42,53.54-18.27,4.35.89q10,19.2,41.54,78.58t52.46,94.94q6.89,12,14.21,16t19.76,2.27l2,2.18,2.24,21.37q-4.74.7-17.72,3.3t-26.25,5.62q-19,4.35-36.82,9.74l-22.75,6.9ZM474,1130.11q3.94-.9,26.28-7.14l-39.43-75.1-4.66,1.06-8,87.08Z" transform="translate(-308.21 -388.48)"/><path d="M754.6,1144.78l-45.61-56-25.46,5.82,8.55,40.68q2.86,12.54,5.93,17.69a11.07,11.07,0,0,0,8.49,5.79q5.43.65,17.7-1.78l1.57,1.9,1.77,22.61q-6.52,1.11-22.74,4.44T675,1192.42q-13.26,3-27.08,6.94t-18,5.26l-2.18-24.4q14.64-5.22,18.45-12.51t.28-22.7l-31.72-138.73q-2.38-10.39-5.53-13.45t-10-1.49c-2.63.6-5.11,1.3-7.45,2.08s-3.86,1.26-4.57,1.42l-2.81-2.37-1.69-22.25q5-1.15,18.54-3.86t26.43-5.67q14.34-3.27,30.89-7.63t22.91-6.18q40.88-9.35,66.16,1.47t32.1,40.57A66.8,66.8,0,0,1,776,1030.5q-8.54,20.43-29.13,37.59l43.27,44.05q13.8,14.19,24.76,19.23a34.14,34.14,0,0,0,22.44,2.42l3.24,2.65,1.76,19.21-41,13.54Q778,1174.51,754.6,1144.78Zm-25.93-105.16q7.43-12.06,2.67-32.86-4.51-19.71-20-26.36t-43.08-.34q-3.59.83-4.51,2.55c-.62,1.15-.66,3.42-.14,6.82q6.3,37.41,13.86,73.78l33.08-3.79A68.09,68.09,0,0,0,728.67,1039.62Z" transform="translate(-308.21 -388.48)"/><path d="M1029.68,1039.63q.66,29.28,5.49,68.53l-2.68,4.77q-69.06,13.14-112.06,23a550.59,550.59,0,0,0-60.48,17.6l-3-24.59q14.56-5.6,18.46-13.28t.3-23.45L844.85,955.53q-2.7-11.84-5.71-15.1T829,938.8a105,105,0,0,0-11,3.25l-2.89-2.73-2-22.16,7.17-1.64q25.69-4.75,58-12.13,79.93-18.27,108-29.22l3.77,3.29q.16,13.92,2,32.73t4.58,34l-31.41,9.45-2.56-14.51q-2.46-10.75-6.53-14.54t-13.58-3.3q-9.53.48-31,5.39a78.75,78.75,0,0,0-12.74,3.67c-2.29,1-3.65,2.47-4.11,4.33s-.36,4.74.28,8.62l10.36,56.85L939,992.84q7.51-1.71,18.61-5.19t22.23-7.54l3.61,2.57,1.94,31.62a55,55,0,0,1-7.25,1.28q-25.26,5-39.95,8.38a227.7,227.7,0,0,0-27.11,8.46l11,51.43q2.29,10,4.89,14a9.39,9.39,0,0,0,7.41,4.34q4.82.4,15.92-2.13,23.67-5.41,33.62-10.52t12.74-14.42q2.76-9.3.93-28.88l28.83-9.23Z" transform="translate(-308.21 -388.48)"/><path d="M1107.83,1094.38a158.52,158.52,0,0,1-24.63-1.35q-10-1.48-10-1.85l-4-4.36q-.23-2.6-.89-11.31t-2.47-23.19q-1.82-14.49-4.84-27.76l28.9-8.87q4.59,20.08,10.64,30t15.49,12.49q9.43,2.57,25.22-1,17.2-3.93,25.88-13.84t5.64-23.17q-2.7-11.83-15.52-17.57t-38.3-11.62c-1.07-.25-4.12-.94-9.15-2.05q-29.84-6.76-48.17-17.66T1038,937.39a61.26,61.26,0,0,1,3.79-39.52q8.45-19.1,28-33.2t47.2-20.42a191.1,191.1,0,0,1,29.71-4.53,193.77,193.77,0,0,1,22.53-.43c5.73.33,9.37.56,10.91.71l3.58,4.09q.12,2.22.35,11.42t1.53,23.22q1.33,14,3.53,28.62l-26,8.22-3.72-1.41c-.17-.72-.39-2.24-.67-4.57a86.38,86.38,0,0,0-1.56-8.51Q1153.5,885,1143.87,880t-28.62-.62q-15.42,3.52-23.59,13.12t-5.56,21.08a23.39,23.39,0,0,0,9.84,14.16,61.48,61.48,0,0,0,17.81,8.56q9.91,3,28.66,7.4,22.29,5.1,37.17,10a77.36,77.36,0,0,1,26.64,15q11.74,10.14,15.6,27,4.92,21.51-3.72,40.64t-29,33.23q-20.35,14.07-50.11,20.89A147.66,147.66,0,0,1,1107.83,1094.38Z" transform="translate(-308.21 -388.48)"/><path d="M863.08,1235.89l-1.37.31q2.82,63.1,3.21,64.81a4.56,4.56,0,0,0,1.87,3.15,5.15,5.15,0,0,0,3.73.24l5.54-1.62.91.87-.67,11.25q-9.87,1.51-19.57,3.72-3.59.81-8.42,2.35c-3.24,1-5.83,2-7.8,2.75l.09-11.48a12.26,12.26,0,0,0,6.55-5.06c1.3-2.21,2-5.52,2.05-10q-.11-17.87-.63-44.71t-1-29a5.51,5.51,0,0,0-3.65-4.28q-2.92-1-9.34-.12l-1.08-.83.39-10.12q18.09-3.19,21-3.85,3.4-.76,17.56-4.69,6.32,16.85,14.35,36.15t14.31,32.75l1.36-.31q5.77-29.06,13.66-78.11a90.9,90.9,0,0,1,9.06-1.87l8.73-1.8q3.06-.69,18.68-5.3l.83.53,0,10.38q-6.82,2.26-9.22,4.77c-1.59,1.67-2.19,4.14-1.81,7.39q.71,6.28,4.35,26.77t6.9,38q1.77,9.45,3.77,12.31a5,5,0,0,0,5.74,2l4.69-1.42a3.94,3.94,0,0,1,.44.35,1.05,1.05,0,0,1,.3.56l-.33,11.17q-12.9,2.38-16.64,3.23-5,1.13-12.42,3.26c-5,1.42-8.76,2.61-11.29,3.54l.22-11.69c3.22-1.09,5.44-2.45,6.68-4.11a9.09,9.09,0,0,0,1.48-6.51q-1-7.82-3.6-24.25t-5.89-35.91l-1.36.31q-3.09,14.85-17.29,86.63l-11.44,4Q881,1276.24,863.08,1235.89Z" transform="translate(-308.21 -388.48)"/><path d="M1056,1252.77q-9.29,15.17-14.53,21.28t-10,7.19q-7.15,1.62-8.58-4.69-.81-3.57-.69-31.53l-1.44,0q-7,30-17.77,42.51-8.87,2-14.87-1.2t-7.7-10.7a40.14,40.14,0,0,1-.53-9.46q.21-6.23.75-17.27,1.23-19.08.39-22.82a6.11,6.11,0,0,0-2.56-4.17c-1.24-.73-3-.85-5.26-.33l-6,1.35-.53-10.27q9.71-2.19,31.89-8.64l2.62,2.09q-2.14,21.43-2.91,37t0,19a6.64,6.64,0,0,0,1.7,3.56,3.6,3.6,0,0,0,3.33.5q3.75-.86,8.33-14.24t8.45-35l-1.1-16.76,2.11-1.73,17.23-3,2.24,2q-1.11,13.32-1.25,30.09t.68,29.12l.67.57a10.53,10.53,0,0,0,2.92-2.54q1.62-1.89,5.34-6.85l3-.32Z" transform="translate(-308.21 -388.48)"/><path d="M1074.83,1253.06c3.36,2.17,7.3,2.74,11.85,1.71a10.7,10.7,0,0,0,6.46-3.88,7.36,7.36,0,0,0,1.44-6.32,8.26,8.26,0,0,0-4.06-5.26,67.83,67.83,0,0,0-9.62-4.54,102.59,102.59,0,0,1-10-4.46,26.35,26.35,0,0,1-6.85-5.34,17.9,17.9,0,0,1-4.34-8.51,24.34,24.34,0,0,1,1.15-14.67,30,30,0,0,1,9.37-12.42,36.87,36.87,0,0,1,15.2-7.2,39.65,39.65,0,0,1,12.69-.9,22.78,22.78,0,0,1,10,3.11,122.18,122.18,0,0,1-4.15,18.84l-3.24.73a17.42,17.42,0,0,0-7-6.21,12.31,12.31,0,0,0-8.1-1,8.52,8.52,0,0,0-5.24,3.34,6.71,6.71,0,0,0-1.14,5.63q.92,4.08,6.92,6.85c1.2.56,2.4,1.1,3.59,1.61l3.16,1.34a65.07,65.07,0,0,1,14,7.3,17.33,17.33,0,0,1,6.69,10.57,24.22,24.22,0,0,1-1.37,14.91,32.24,32.24,0,0,1-10,12.91,39.57,39.57,0,0,1-16.1,7.58,38.73,38.73,0,0,1-15.88.64q-7-1.37-9.6-5.62a61.66,61.66,0,0,1,3.8-20.38l3.28-.56Q1069.8,1249.82,1074.83,1253.06Z" transform="translate(-308.21 -388.48)"/><path d="M1189.62,1223.07q1.7-2,6.72-9l3-.14,4.08,5.34q-8.55,14.47-14,20.89c-3.62,4.29-7,6.79-10.2,7.5q-8,1.82-9.67-5.5a37,37,0,0,1-.44-8.68q.21-5.78,1-15.8.56-7.83.83-15.32t-.41-10.56a7.68,7.68,0,0,0-2.22-4.24,4.09,4.09,0,0,0-3.77-.85q-4.26,1-8.77,14.25t-7.77,33.72l1.28,12.78q.12,2.11-5.12,5.46a33.91,33.91,0,0,1-10.7,4.56l-2.79-2q-1-15.69-4-59.53t-3.85-50.25c-.34-2.54-1.11-4.25-2.32-5.11s-3.06-1-5.56-.44l-6,1.35-.67-10.06q7.83-1.77,18.44-4.8t13.75-4.09l2.49,2.3c-.06,2.4,0,7.94.09,16.63s.36,19.28.75,31.79,1,24.46,1.76,35.86l1.06-.06a173.81,173.81,0,0,1,8.85-28.14q4.92-11.5,10.5-16.89,8.35-1.87,14.73,1.78a16.45,16.45,0,0,1,8.07,11.15,42.76,42.76,0,0,1,.52,11q-.37,7.07-1.6,18.26-1.43,12.68-1.48,18.78l.63.39A6.36,6.36,0,0,0,1189.62,1223.07Z" transform="translate(-308.21 -388.48)"/><path d="M1217.06,1202.35q-1.49-24.37-2.44-28.63c-.52-2.27-1.37-3.81-2.57-4.61s-3-.93-5.37-.4l-6,1.35-.71-10.22q7.85-1.77,18.27-4.76l13.62-3.89,2.66,2.26q-.27,2.76-.72,12.25t0,18.71l1-.23q3.42-16.53,9.36-27.46t12.85-12.84a8.44,8.44,0,0,1,3.63,2.58,11.39,11.39,0,0,1,2.61,4.42,49.82,49.82,0,0,1,.7,9.42q-.06,5.29-.33,9.21t-.39,5l-6.4,1.8c-.78-4-2.26-5.75-4.41-5.26q-5,1.11-9.44,11.71t-7.21,27.86l1.65,16.82c.08,1.41-1.62,3.23-5.12,5.45a33.56,33.56,0,0,1-10.69,4.57l-2.79-2Q1218.55,1226.72,1217.06,1202.35Z" transform="translate(-308.21 -388.48)"/><path d="M1283.38,1215.73q-8.3-6.63-11.5-20.77a64.13,64.13,0,0,1-.45-27.74,47.77,47.77,0,0,1,10.88-22.33,36.79,36.79,0,0,1,19.81-11.74q11.58-2.61,19.65,3.35t11.15,19.59a69.22,69.22,0,0,1,.77,28.74,48.53,48.53,0,0,1-10.75,22.93,36.54,36.54,0,0,1-20,12Q1291.68,1222.35,1283.38,1215.73Zm32.16-21.69q2-9.4-1.63-25.42-2.39-10.56-6.26-15.41t-9.16-3.66q-6.81,1.54-8.94,10.35t1.15,23.28q2.67,11.76,6.88,17.34t9.16,4.46Q1313.55,1203.44,1315.54,1194Z" transform="translate(-308.21 -388.48)"/><path d="M1358.67,1198.69q-8.31-6.62-11.5-20.76a64,64,0,0,1-.46-27.74,47.94,47.94,0,0,1,10.88-22.34,36.71,36.71,0,0,1,19.82-11.73q11.58-2.62,19.64,3.34t11.15,19.59a69.1,69.1,0,0,1,.77,28.75,48.61,48.61,0,0,1-10.74,22.93,36.57,36.57,0,0,1-20,12Q1367,1205.32,1358.67,1198.69Zm32.15-21.68q2-9.4-1.63-25.42-2.39-10.56-6.26-15.41t-9.16-3.66q-6.81,1.55-8.93,10.35t1.15,23.28q2.65,11.76,6.87,17.34T1382,1188Q1388.83,1186.41,1390.82,1177Z" transform="translate(-308.21 -388.48)"/><path d="M1533,1144.83q2.1-2.62,6.34-8.42l3.18-.18,3.9,5.38q-8.71,14.51-14.24,21T1522.1,1170q-8,1.82-9.66-5.51a32.31,32.31,0,0,1-.37-8.33q.29-5.45,1.18-16.56,1-11.34,1.27-16.94a34.65,34.65,0,0,0-.44-8.68,7.41,7.41,0,0,0-2.28-4.14,4.08,4.08,0,0,0-3.71-1q-4.42,1-9.43,15.3t-8.71,35.89l.67,10.06q.12,2.11-5.12,5.46a33.91,33.91,0,0,1-10.7,4.56l-2.79-2q.21-7.74.26-29.33t-.89-25.67a6.56,6.56,0,0,0-2.14-3.91,4.25,4.25,0,0,0-3.73-.67q-4.1.92-8.52,14.19t-7.51,33.66l1.28,12.78q.12,2.11-5.12,5.46a33.81,33.81,0,0,1-10.7,4.56l-2.79-2q-.48-8.49-2-32.5T1428,1126q-.51-3.81-2.41-5.09c-1.26-.85-3.15-1-5.65-.42l-6,1.34-.7-10.22q7.83-1.77,18.26-4.76l13.62-3.89,2.67,2.26q-.21,1.48-.52,6.84t-.49,13.27q-.18,7.92.29,15.51l.89,0q7.77-34.53,19-45,8.18-1.85,14.34,1.68a16,16,0,0,1,7.83,10.85q.74,3.24.48,11.62t-.49,11.3l.89,0a160.5,160.5,0,0,1,8.72-27.94q5.06-11.7,11-17.16,8.34-1.89,14.34,1.67a16.47,16.47,0,0,1,7.7,11.07,43.76,43.76,0,0,1,.49,11.25q-.4,7.35-1.57,18-1.39,12.84-1.41,19.11l.63.4C1530.61,1147.52,1531.65,1146.57,1533,1144.83Z" transform="translate(-308.21 -388.48)"/><path d="M1756.14,1381.65" transform="translate(-308.21 -388.48)"/></svg>