<svg xmlns="http://www.w3.org/2000/svg" viewBox="0 0 1341.95 1103.81"><defs><style>.cls-1{fill:#fff;}</style></defs><title>Logo Outline</title><g id="Layer_2" data-name="Layer 2"><g id="Layer_1-2" data-name="Layer 1"><path class="cls-1" d="M671,0C300.53,0,.2,227.58,0,508.37v.28a392.08,392.08,0,0,0,2.77,46.53,402.7,402.7,0,0,0,31.8,115.09q4,9,8.38,17.8a325.8,325.8,0,0,1,10.16-34C122.48,460.18,372.82,316.61,671,316.61s548.47,143.57,617.84,337.46a323.27,323.27,0,0,1,10.17,34q4.41-8.82,8.38-17.81C1329.8,619.51,1342,565.16,1342,508.65,1342,227.73,1041.54,0,671,0Zm627.6,617.9C1246.71,427,985.46,281.81,671,281.81S95.22,427,43.36,617.9A397.37,397.37,0,0,1,34,532.05C34,256,319.18,32.29,671,32.29S1308,256,1308,532.05A397.37,397.37,0,0,1,1298.58,617.9Z"/><path class="cls-1" d="M675.63,1023.21a146.19,146.19,0,0,1-197,7.31c16.86-19.26,28.49-52.09,30.21-90-13.45,2-20.09,10.08-29.51,22.65-7.58,19.33-16,30.78-25.12,40.87-5.65,6.26-12.27,9.87-19.34,9.87a6.61,6.61,0,0,1-.77,0c-.4,0-.79,0-1.19,0,.2.63.41,1.27.62,1.91a129.18,129.18,0,0,0,174.67,77A129.56,129.56,0,0,0,675.63,1023.21Z"/><path class="cls-1" d="M202.13,841.2l-3-21.55a152.84,152.84,0,0,0,17.21-6.39q5.26-2.52,6.89-5.35t.55-7.48a66.61,66.61,0,0,0-4.66-12.14l-13.84-25.88q-18.81,3.55-33.15,6.83-6.45,1.47-26.47,7.94l-7.36,2.43-2.66,29.66q-.34,8.37.4,11.6c1,4.3,2.92,7,5.81,8.1s7.44.94,13.66-.48L170.88,825l2.37,2.1,2.49,22.44q-5.12.79-21.8,3.67t-31,6.15q-15.06,3.45-27,6.55c-8,2.07-13.21,3.52-15.79,4.36l-2.82-23.87a25.25,25.25,0,0,0,12.06-9.93q4.16-6.6,6-19.86L118,620.15l53.54-18.27,4.35.89q10,19.2,41.54,78.58t52.46,94.94q6.89,12,14.22,16t19.75,2.27l2,2.18,2.25,21.37q-4.75.71-17.73,3.3T264.15,827q-19,4.35-36.82,9.74l-22.75,6.9Zm-36.35-99.57q3.94-.9,26.28-7.14l-39.42-75.1L148,660.45l-8,87.09Z"/><path class="cls-1" d="M446.39,756.31l-45.61-56-25.45,5.82,8.54,40.67q2.88,12.55,5.93,17.69a11.07,11.07,0,0,0,8.5,5.79q5.42.64,17.69-1.78l1.57,1.9,1.77,22.61q-6.52,1.11-22.74,4.44t-29.84,6.45q-13.26,3-27.08,6.95t-18,5.25l-2.19-24.39q14.66-5.24,18.45-12.52t.28-22.7L306.46,617.8q-2.37-10.39-5.53-13.45t-10-1.49c-2.63.6-5.11,1.3-7.44,2.08s-3.87,1.26-4.58,1.42L276.14,604l-1.69-22.25q5-1.14,18.54-3.86t26.43-5.67q14.34-3.27,30.89-7.62t22.91-6.19q40.88-9.35,66.16,1.47t32.1,40.57A66.8,66.8,0,0,1,467.79,642q-8.54,20.44-29.13,37.59l43.27,44q13.8,14.21,24.77,19.23a34,34,0,0,0,22.43,2.42l3.24,2.65,1.76,19.21-41,13.54Q469.78,786,446.39,756.31ZM420.46,651.15q7.43-12.07,2.67-32.87-4.51-19.71-20-26.36t-43.07-.33c-2.4.54-3.9,1.39-4.52,2.54s-.66,3.42-.13,6.82q6.29,37.41,13.85,73.78l33.08-3.79A68,68,0,0,0,420.46,651.15Z"/><path class="cls-1" d="M721.47,651.15q.66,29.28,5.49,68.53l-2.68,4.77q-69,13.14-112.06,23A551.23,551.23,0,0,0,551.74,765l-3-24.59q14.57-5.6,18.46-13.27t.3-23.46L536.65,567.05q-2.71-11.82-5.72-15.1t-10.18-1.63a105.32,105.32,0,0,0-10.95,3.26l-2.89-2.74-2.05-22.16L512,527q25.69-4.75,58-12.12,79.93-18.28,108-29.22l3.77,3.28q.16,13.92,2,32.74t4.57,34l-31.41,9.45-2.56-14.5q-2.46-10.76-6.53-14.54t-13.58-3.31q-9.51.48-31,5.39-9.33,2.14-12.74,3.67t-4.11,4.34c-.45,1.86-.36,4.74.28,8.61L597,611.71l33.78-7.34q7.52-1.73,18.61-5.2t22.23-7.54l3.61,2.57,2,31.62A55.13,55.13,0,0,1,670,627.1q-25.26,5-40,8.38a227.7,227.7,0,0,0-27.11,8.46l11,51.43q2.29,10,4.89,14a9.36,9.36,0,0,0,7.4,4.34q4.81.42,15.92-2.13,23.67-5.41,33.62-10.52t12.74-14.41q2.76-9.32.94-28.89l28.82-9.23Z"/><path class="cls-1" d="M799.63,705.9A158.58,158.58,0,0,1,775,704.55q-10-1.49-10-1.85l-4-4.36q-.23-2.58-.89-11.3t-2.47-23.2q-1.82-14.49-4.84-27.75l28.9-8.88q4.59,20.09,10.64,30t15.49,12.49q9.45,2.56,25.22-1.05,17.21-3.93,25.88-13.84t5.64-23.17q-2.7-11.82-15.52-17.57t-38.3-11.61q-1.6-.39-9.15-2.06-29.84-6.76-48.17-17.65t-23.58-33.84a61.42,61.42,0,0,1,3.79-39.53q8.45-19.09,28-33.2t47.2-20.41a188.74,188.74,0,0,1,29.71-4.53,191.9,191.9,0,0,1,22.53-.44c5.73.33,9.37.56,10.91.71l3.58,4.09c.09,1.48.2,5.3.35,11.42s.65,13.87,1.54,23.23,2.06,18.89,3.52,28.61l-26,8.22-3.72-1.41c-.16-.72-.39-2.24-.66-4.57s-.81-5.15-1.57-8.5q-3.69-16.14-13.32-21.1T807,490.89q-15.42,3.53-23.59,13.12t-5.56,21.08a23.45,23.45,0,0,0,9.84,14.16,61.48,61.48,0,0,0,17.81,8.56q9.93,3,28.66,7.41,22.29,5.09,37.18,10a77.41,77.41,0,0,1,26.63,15q11.75,10.14,15.6,27,4.92,21.51-3.72,40.65t-29,33.22Q860.55,695.18,830.79,702A147,147,0,0,1,799.63,705.9Z"/><path class="cls-1" d="M554.87,847.42l-1.37.3q2.82,63.1,3.21,64.81a4.53,4.53,0,0,0,1.88,3.15,5.11,5.11,0,0,0,3.72.24l5.54-1.62.92.87-.68,11.26q-9.87,1.52-19.57,3.71c-2.39.54-5.19,1.32-8.42,2.35s-5.83,2-7.8,2.75l.09-11.48A12.32,12.32,0,0,0,539,918.7q1.93-3.3,2-10-.11-17.87-.63-44.7t-1-29a5.51,5.51,0,0,0-3.65-4.28q-2.93-1-9.34-.12l-1.08-.83.4-10.12q18.08-3.18,21-3.84,3.4-.78,17.56-4.69,6.31,16.83,14.35,36.14T592.86,880l1.36-.31q5.78-29.06,13.66-78.11a91.3,91.3,0,0,1,9.07-1.87l8.72-1.8q3.06-.69,18.68-5.3l.83.53,0,10.38q-6.83,2.26-9.21,4.77t-1.82,7.39q.71,6.3,4.35,26.77t6.9,38q1.79,9.45,3.77,12.31a5,5,0,0,0,5.74,2l4.69-1.42a3.2,3.2,0,0,1,.44.35,1.09,1.09,0,0,1,.3.56L660,905.45q-12.9,2.37-16.64,3.22c-3.29.75-7.44,1.83-12.42,3.26s-8.75,2.61-11.29,3.54l.22-11.69c3.22-1.08,5.44-2.45,6.68-4.11a9.09,9.09,0,0,0,1.48-6.51q-1-7.81-3.6-24.25T618.57,833l-1.36.31q-3.09,14.85-17.29,86.63l-11.44,4Q572.78,887.77,554.87,847.42Z"/><path class="cls-1" d="M747.76,864.29q-9.28,15.16-14.52,21.28t-10,7.19c-4.77,1.08-7.62-.48-8.58-4.69q-.81-3.57-.68-31.53l-1.45,0q-7,30-17.77,42.51-8.87,2-14.86-1.2t-7.71-10.7a40.14,40.14,0,0,1-.53-9.46q.21-6.23.75-17.27,1.23-19.08.39-22.82a6.1,6.1,0,0,0-2.56-4.17q-1.86-1.1-5.26-.33l-6,1.35-.54-10.26q9.72-2.2,31.89-8.65L693,817.6q-2.13,21.43-2.91,37t0,19a6.68,6.68,0,0,0,1.7,3.55,3.6,3.6,0,0,0,3.33.5q3.75-.85,8.33-14.24t8.46-35l-1.11-16.76,2.11-1.73,17.23-3,2.24,2q-1.1,13.32-1.25,30.09t.69,29.12l.66.57a10.39,10.39,0,0,0,2.92-2.54c1.08-1.26,2.87-3.54,5.34-6.85l3-.32Z"/><path class="cls-1" d="M766.62,864.59q5,3.24,11.85,1.7a10.67,10.67,0,0,0,6.46-3.88,7.36,7.36,0,0,0,1.44-6.32,8.25,8.25,0,0,0-4.06-5.26,67.83,67.83,0,0,0-9.62-4.54,102.59,102.59,0,0,1-10-4.46,26.09,26.09,0,0,1-6.85-5.34,17.94,17.94,0,0,1-4.34-8.51,24.34,24.34,0,0,1,1.15-14.67,30,30,0,0,1,9.37-12.42,37,37,0,0,1,15.2-7.2,39.65,39.65,0,0,1,12.69-.9,22.87,22.87,0,0,1,10,3.11,120.77,120.77,0,0,1-4.15,18.84l-3.23.74a17.4,17.4,0,0,0-7-6.22,12.21,12.21,0,0,0-8.09-.94,8.47,8.47,0,0,0-5.25,3.33,6.75,6.75,0,0,0-1.14,5.63q.93,4.1,6.92,6.85c1.2.57,2.4,1.1,3.59,1.61l3.16,1.34a65.07,65.07,0,0,1,14,7.3A17.35,17.35,0,0,1,805.51,845a24.2,24.2,0,0,1-1.37,14.9,32.24,32.24,0,0,1-10,12.91,39.57,39.57,0,0,1-16.1,7.58,38.56,38.56,0,0,1-15.88.64q-7-1.37-9.6-5.62a50.7,50.7,0,0,1,1.09-10.63A48.66,48.66,0,0,1,756.4,855l3.27-.57Q761.59,861.35,766.62,864.59Z"/><path class="cls-1" d="M881.41,834.59q1.7-2,6.72-9l3-.15,4.07,5.35q-8.55,14.46-14,20.89T871,859.14q-8,1.82-9.67-5.51a36.87,36.87,0,0,1-.44-8.68c.14-3.85.48-9.12,1-15.8q.55-7.81.84-15.32t-.42-10.56a7.68,7.68,0,0,0-2.22-4.24,4.09,4.09,0,0,0-3.77-.85q-4.26,1-8.77,14.25t-7.77,33.72l1.28,12.78q.12,2.12-5.12,5.46a33.81,33.81,0,0,1-10.7,4.56l-2.79-2.05q-1.05-15.69-4-59.53t-3.85-50.24q-.51-3.82-2.32-5.12t-5.56-.44l-6,1.35-.66-10.06q7.83-1.77,18.43-4.79t13.75-4.1l2.49,2.3q-.07,3.6.09,16.63t.75,31.79q.57,18.76,1.76,35.86l1.06-.06a173.81,173.81,0,0,1,8.85-28.14q4.92-11.51,10.5-16.88,8.35-1.89,14.73,1.77a16.45,16.45,0,0,1,8.07,11.15,42.37,42.37,0,0,1,.52,11q-.37,7.07-1.6,18.26-1.42,12.68-1.48,18.78l.63.39A6.3,6.3,0,0,0,881.41,834.59Z"/><path class="cls-1" d="M908.86,813.87q-1.49-24.36-2.45-28.63c-.52-2.27-1.37-3.81-2.57-4.61s-3-.93-5.37-.39l-6,1.34-.7-10.22q7.83-1.77,18.26-4.76l13.62-3.89,2.66,2.26q-.27,2.76-.72,12.25t0,18.71l1-.23q3.42-16.53,9.36-27.46t12.85-12.84a8.53,8.53,0,0,1,3.63,2.58,11.46,11.46,0,0,1,2.61,4.42,49.88,49.88,0,0,1,.7,9.42c0,3.53-.15,6.6-.33,9.21s-.32,4.28-.39,5l-6.4,1.81q-1.17-6-4.41-5.27-4.95,1.11-9.44,11.71t-7.21,27.86L929.31,839q.12,2.12-5.13,5.45A33.56,33.56,0,0,1,913.49,849l-2.79-2Q910.34,838.25,908.86,813.87Z"/><path class="cls-1" d="M975.18,827.25q-8.31-6.63-11.51-20.76a64.13,64.13,0,0,1-.45-27.74,47.8,47.8,0,0,1,10.88-22.34,36.79,36.79,0,0,1,19.81-11.74q11.58-2.61,19.65,3.35t11.15,19.59a69.23,69.23,0,0,1,.77,28.74,48.43,48.43,0,0,1-10.75,22.93,36.45,36.45,0,0,1-20,12.05Q983.49,833.88,975.18,827.25Zm32.15-21.69q2-9.4-1.63-25.42-2.38-10.54-6.26-15.41t-9.16-3.66q-6.81,1.54-8.93,10.35t1.15,23.29q2.65,11.74,6.87,17.33t9.16,4.46Q1005.34,815,1007.33,805.56Z"/><path class="cls-1" d="M1050.46,810.22q-8.31-6.63-11.5-20.77a64,64,0,0,1-.46-27.74,47.86,47.86,0,0,1,10.88-22.33,36.82,36.82,0,0,1,19.82-11.74q11.58-2.62,19.64,3.35T1100,750.58a69.05,69.05,0,0,1,.77,28.74A48.61,48.61,0,0,1,1090,802.25a36.57,36.57,0,0,1-20,12Q1058.76,816.84,1050.46,810.22Zm32.15-21.69q2-9.4-1.63-25.42-2.38-10.56-6.26-15.41t-9.15-3.66q-6.83,1.55-8.94,10.35t1.15,23.28q2.65,11.76,6.87,17.34t9.16,4.46Q1080.62,797.93,1082.61,788.53Z"/><path class="cls-1" d="M1224.83,756.35q2.1-2.62,6.34-8.42l3.18-.18,3.9,5.38q-8.71,14.5-14.24,21t-10.12,7.48q-8,1.82-9.66-5.51a32.31,32.31,0,0,1-.37-8.33q.3-5.44,1.18-16.56,1-11.34,1.27-16.94a34.53,34.53,0,0,0-.44-8.67,7.34,7.34,0,0,0-2.28-4.14,4.1,4.1,0,0,0-3.71-1q-4.43,1-9.43,15.3t-8.7,35.9l.66,10.05q.12,2.13-5.12,5.46a33.84,33.84,0,0,1-10.7,4.57l-2.79-2.06q.21-7.74.26-29.33t-.89-25.67a6.55,6.55,0,0,0-2.13-3.9,4.25,4.25,0,0,0-3.74-.68q-4.08.93-8.51,14.19t-7.52,33.66l1.28,12.78c.08,1.42-1.63,3.23-5.12,5.46a33.86,33.86,0,0,1-10.69,4.56l-2.8-2q-.48-8.49-2-32.5t-2.19-28.68q-.51-3.82-2.41-5.1c-1.26-.85-3.15-1-5.64-.42l-6,1.35-.7-10.23q7.83-1.77,18.26-4.76l13.63-3.89,2.66,2.27q-.21,1.47-.52,6.83t-.49,13.27q-.18,7.92.29,15.51l.89,0q7.77-34.53,19-45,8.18-1.85,14.34,1.68A15.92,15.92,0,0,1,1181,719.9q.74,3.24.48,11.62t-.49,11.3l.89,0a160.5,160.5,0,0,1,8.72-27.94q5.06-11.7,11-17.16,8.34-1.89,14.34,1.68a16.43,16.43,0,0,1,7.7,11.06,43.76,43.76,0,0,1,.49,11.25q-.4,7.35-1.57,18-1.39,12.84-1.41,19.11l.63.4C1222.4,759.05,1223.44,758.09,1224.83,756.35Z"/></g></g></svg>