<svg xmlns="http://www.w3.org/2000/svg" viewBox="0 0 1551.91 160.61"><defs><style>.cls-1{fill:#051e85;}</style></defs><title>TextOnly</title><g id="Layer_2" data-name="Layer 2"><g id="Layer_1-2" data-name="Layer 1"><path class="cls-1" d="M81.64,157,82.84,140a108.51,108.51,0,0,0,11.52-1.44q3.36-.72,4.57-2.16t1.2-4.8c0-.48-.33-2.64-1-6.48l-3.61-14.41q-12.48-.48-20.41-.48-5.52,0-16.08,1l-5.28.48-4.33,14.89a42.16,42.16,0,0,0-1.2,6.72c0,2.4.68,4.05,2,4.92s3.88,1.32,7.57,1.32h8.64L68,141.43l-1.92,17q-3.6-.24-15-.6t-20.77-.36L0,157.75l1.68-18a15.23,15.23,0,0,0,8.4-4.44,28.27,28.27,0,0,0,5.77-10.2L56.67,3.84,105.41,0l3.12,1.92q3.6,14.18,14.77,57.15T141,123.42q2.38,8.4,6.12,12.12t10.68,4.2l1.44,2.17L157.27,158q-3.36,0-12.36-.24t-18.85-.24q-13.45,0-26.41.6T83.08,159ZM75.4,87.16c.79,0,6-.24,15.6-.72L79.48,37.94H75.4L60.51,87.16Z"/><path class="cls-1" d="M248.75,156.19q-5.28-4-9.12-13.08L225.7,113.57h-12l-.24,14.89q0,6,1,8.64a5.75,5.75,0,0,0,3.72,3.61q2.76,1,9.49,1.2l1,1.44L226.66,158q-3.6,0-12.84-.36t-17.65-.36q-8.64,0-19,.72t-13.45,1l1.69-16.08q7.68-1.2,10.56-4.57t2.88-11V60.51q0-4.8-1.2-6.61t-4.32-1.8l-7,.24-1.68-1.92,1.92-13.92,27.13.24q9.36,0,19.93-.48t14.65-.72q25.92,0,39.13,8.64t13.21,25.69a33.93,33.93,0,0,1-6.36,20q-6.37,9-18.37,15.49l13.92,21.13q10.58,16.33,20.17,16.33l1.92,2.64-1.68,12.72L262,160.15Q254,160.15,248.75,156.19Zm-8.4-69.75q3.6-4.56,3.6-12.73,0-8.64-6-12.72t-18.73-4.08a3.36,3.36,0,0,0-2.64.84q-.72.84-.72,3.48-1.44,15.84-1.44,30.49l15.85,1.92A24.06,24.06,0,0,0,240.35,86.44Z"/><path class="cls-1" d="M301.58,143.11q7.68-1.2,10.44-4.69c1.84-2.31,2.76-6.2,2.76-11.64L315,62.19q0-6-1.2-8c-.8-1.36-2.32-2-4.56-2l-5.52.24-1.92-2.4,1.68-13.68q4.32,0,16.68.24t26.3.24q40.57,0,61.23-2.16l2.16,2.4c-.48,2.08-1.29,6.84-2.4,14.28a208.31,208.31,0,0,0-2.17,22.21l-24.49,1.68q0-.72.24-2.88a39.09,39.09,0,0,0,.24-4.32q0-4.56-1.56-6.72t-5.88-3a79.37,79.37,0,0,0-13.69-.84q-5.28,0-6.72,1T352,62.67L350.8,86h17.05q6,0,12.72-.48t9.37-.72l2.16,2.4-2.88,20.17q-2.42,0-9.49-.24T365,106.85a84.87,84.87,0,0,0-8.89.48q-4.56.48-6.24.48-.24,8.16-.24,18.49a26.47,26.47,0,0,0,.72,7.44,4.67,4.67,0,0,0,2.88,3,20.57,20.57,0,0,0,7,.84q10.09,0,14.89-1.44a11.55,11.55,0,0,0,7.08-5.52q2.28-4.08,3.73-13.21l22.57-1.68,1.92,2.64q-.72,3.13-2.52,14.17t-2.77,23.29l-2.88,2.64q-5.76-.24-25.45-.72t-37.46-.48q-12.24,0-24.25.84l-15.36,1.08Z"/><path class="cls-1" d="M444.68,157.75a92.75,92.75,0,0,1-13.33-3.48,48.06,48.06,0,0,1-6.12-2.52l-2.16-3.12q.72-3.12,2.28-13a142.49,142.49,0,0,0,1.8-18L449.24,116q0,11.3,4.45,16.09t14.28,4.8q7.44,0,11.65-2.52t4.2-6.84q0-5-5.16-8.4t-16.45-7.93l-7-2.88Q440.84,102,432.68,94.24t-8.17-20.53a31.2,31.2,0,0,1,7.32-20.41q7.34-8.88,20.53-13.8t30.5-4.92a134,134,0,0,1,17.53,1.08,121.78,121.78,0,0,1,13,2.28q4.8,1.2,6,1.68l2.16,3.6q-.72,2.64-2.52,12.25t-2.77,20.16l-20.17,1.45-2.4-1.45.24-3.84q0-13.68-16.08-13.68a19.76,19.76,0,0,0-10.69,2.64q-4.2,2.64-4.2,7,0,5.54,5.88,8.89a177.65,177.65,0,0,0,19.57,8.88q16.08,6.72,25.21,14.29t9.13,21q0,17.76-16,28.21t-43.58,10.44A94.5,94.5,0,0,1,444.68,157.75Z"/><path class="cls-1" d="M617.16,62.48h-1.67q-13.37,74.34-13.36,76.42,0,2.92,1.35,4.17a6.15,6.15,0,0,0,4.28,1.26l6.89-.42.84,1.25-3.76,13q-11.9-.84-23.8-.84c-2.92,0-6.41.18-10.44.53s-7.31.73-9.81,1.14l3.13-13.36q5.84-.83,9-4.18t5-11.06q4.59-20.88,11.06-52.3t6.48-34.14A6.58,6.58,0,0,0,599.2,38c-2.08-1.32-5.71-2.19-10.85-2.61l-1.05-1.25,3.13-11.7q21.93,1,25.48,1.05,4.17,0,21.71-.84,2.93,21.3,7.21,45.94t8,42h1.67Q668.95,78.15,691.07,23a109.09,109.09,0,0,1,11.07.21l10.65.21q3.75,0,23.17-1.26l.84.84-2.72,12.11q-8.55.84-12,3.13T718,46.4q-.84,7.53-2,32.37t-2,46.14q-.42,11.49,1.15,15.35t6.16,3.86l5.84-.42a3.38,3.38,0,0,1,.42.52,1.3,1.3,0,0,1,.21.73l-3.34,13q-15.66-.63-20.25-.63-6.06,0-15.35.53c-6.19.34-10.89.73-14.09,1.14l3.34-13.57c4-.42,7-1.42,8.87-3s3-4,3.45-7.2q.82-9.39,2.19-29.23t2.61-43.43h-1.67q-7.51,16.5-43,96.46l-14.41,1.67Q627.39,114.26,617.16,62.48Z"/><path class="cls-1" d="M776.68,125.54c0,5.71,1.38,10.09,4.17,13.15s6.82,4.59,12.11,4.59q9.39,0,14.51-4.9t6.37-14.93q1.67-12.32,3.45-28.19t2.4-22.34a27.1,27.1,0,0,0,.21-3.55c0-2.09-.32-3.48-.94-4.17a4.2,4.2,0,0,0-3.24-1l-5.22.21-.42-.63L813,52.25c1.38,0,4,.1,7.83.31s7.62.32,11.37.32,7.87-.14,12.32-.42,7.38-.49,8.77-.63l-2.5,11.69q-6.06,1.26-8,2.72t-2.4,5.22l-6.06,49.48q-2.5,19-14.3,28.61t-32.47,9.6q-36.12,0-36.12-28.39v-1.67a35.1,35.1,0,0,1,.42-4.81l6.47-51.36a27.24,27.24,0,0,0,.21-3.76c0-2.09-.31-3.44-.94-4.07s-1.85-.94-3.65-.94l-5.22.21-.21-.63,2.92-11.48q2.51.21,9.61.42t15.24.21q4.38,0,11.38-.42c4.66-.28,7.75-.49,9.29-.63l-2.72,11.9q-5.22.63-7.41,2.4c-1.46,1.19-2.4,3.17-2.82,6l-6.89,47.39C776.81,122.27,776.68,124.28,776.68,125.54Z"/><path class="cls-1" d="M870.42,157.8a79.39,79.39,0,0,1-11.48-2.93q-4.4-1.56-5.43-2l-1.25-2.3q.82-2.51,3-11a167,167,0,0,0,3.45-16.6l15.45-1.25a50.14,50.14,0,0,0-.42,7.31q0,7.72,3.45,11.06c2.29,2.23,6.16,3.34,11.58,3.34s9.57-1.15,12.85-3.44a10.45,10.45,0,0,0,4.9-8.88q0-4.59-4.49-8a84.49,84.49,0,0,0-13.26-7.83,138.83,138.83,0,0,1-13.88-7.62,33.07,33.07,0,0,1-9.08-8.77,21,21,0,0,1-3.76-12.43A30.22,30.22,0,0,1,868,68q6-8,16.81-12.63a63.28,63.28,0,0,1,24.84-4.59,106,106,0,0,1,14.41.94c4.59.62,8.35,1.29,11.28,2s4.73,1.19,5.42,1.46l1.05,2.3q-.84,2.3-3.24,10.65t-4.28,17.54l-14.2,1-1.46-1.25c.14-.56.35-1.7.63-3.45a27.29,27.29,0,0,0,.42-4.07c0-3.76-1.08-6.43-3.24-8s-5.67-2.4-10.54-2.4a19.89,19.89,0,0,0-11.8,3.34q-4.7,3.35-4.7,8.35a9.06,9.06,0,0,0,3,6.69,48.92,48.92,0,0,0,9.08,6.47q1.88.84,5.64,2.92,8.55,4.18,14.09,7.52a32.55,32.55,0,0,1,9.4,8.56,20.18,20.18,0,0,1,3.86,12.32q0,16.08-13.15,25.78t-35.92,9.71A80.33,80.33,0,0,1,870.42,157.8Z"/><path class="cls-1" d="M1051.76,111.23q-3.45,22.88-3.45,27.46,0,4,1.36,5.53a5.35,5.35,0,0,0,4.28,1.57,30.48,30.48,0,0,0,3.76-.21c1.11-.14,1.8-.21,2.08-.21l.84,1.25-2.71,11.07q-1.89,0-7.63-.21t-13-.21h-7.1q-7.51,0-11.7.21c-2.08,0-4.28,0-6.57.11s-3.45,0-3.45-.11l2.72-11.27q6.68-.21,9.6-3.24t3.76-11.38l2.71-19.83h-16.28q-5.22.21-12.32.73l-10,.73-2.51,17.54q-.21,1.67-.63,5.22a25.34,25.34,0,0,0-.2,5.42c.13,1.82.55,3,1.25,3.66s2,.94,3.76.94a29.7,29.7,0,0,0,3.86-.21q1.56-.21,2-.21a3.38,3.38,0,0,1,.42.52,1,1,0,0,1,.21.52L994,157.69q-2.5,0-9.09-.21t-12.63-.21q-6.69,0-15.35.42c-5.77.28-9.64.56-11.58.84l2.71-11.28q7.73-1.45,10.13-4.38t3.44-11.28L969,72.5a27.24,27.24,0,0,0,.21-3.76c0-1.8-.35-3-1-3.65s-2.08-.94-4.17-.94h-4.59l-1-1.46L961,52.46q2.09,0,8,.21t12,.21q5.43,0,14.72-.53t12.21-.73l-2.08,11.7q-6.27.82-8.25,2.81c-1.33,1.33-2.33,4.08-3,8.25l-3.76,22.34,19.63.21a175.85,175.85,0,0,0,18.37-.83L1032,72.5a24.32,24.32,0,0,0,.2-3.55c0-1.8-.38-3.06-1.14-3.75s-2.13-1-4.08-1h-5l-.62-1.46,2.29-10.23c2.23.14,6,.24,11.17.31s9.85.11,13.89.11q7.3-.21,14.09-.63t9.09-.63l-2.3,11.49q-6.27,1-8.46,2.71t-3,6.27Q1055.19,88.37,1051.76,111.23Z"/><path class="cls-1" d="M1113.25,133.68a32.06,32.06,0,0,0-.63,5.85c0,2.64.73,4.35,2.19,5.11s4.42,1.22,8.87,1.36l.42,1-2.71,10.86-25.89-.42q-6.48,0-13.57.42t-9.19.63l3.13-11.91q6.89-1,9.61-3.75t3.55-9.61l7.72-61.38A15.73,15.73,0,0,0,1097,69c0-1.8-.31-3.06-.94-3.75a4.2,4.2,0,0,0-3.24-1l-5.84.21-1-1.46,2.93-10.44q2.29,0,8.77.21t12.52.21q6.9,0,14.51-.42t10.55-.63q18.58,0,28.92,6.58t10.33,18.69a32.65,32.65,0,0,1-6.26,19.41q-6.27,8.77-18.79,14.83l10.85,21.5q3.77,7.32,7.52,10.76a12.61,12.61,0,0,0,8.77,3.44l1,1.88-2.29,9.19-21.3,1.67a13.91,13.91,0,0,1-9.81-3.66q-4-3.65-6.89-11.37l-9.82-27.56h-11.9Zm29.54-38q5.12-5.22,5.11-14.41,0-7.3-5.32-11t-16.18-3.65a2.92,2.92,0,0,0-2.3.73,7,7,0,0,0-1,3q-1.87,9.81-4.6,26.3l-.62,4.6,14.41,1.67A30.18,30.18,0,0,0,1142.79,95.68Z"/><path class="cls-1" d="M1199.47,147.46q-11.9-11.69-11.9-32.36,0-19.21,7.42-33.83a53.42,53.42,0,0,1,21-22.55q13.58-7.94,32-7.93,20.86,0,32.67,11.48t11.8,31.95q0,19.22-7.52,33.93a55,55,0,0,1-21.3,22.86q-13.77,8.15-31.94,8.14Q1211.38,159.15,1199.47,147.46Zm56.69-15.76q7.2-12,7.21-34.35,0-14.19-5.43-21.82a17.46,17.46,0,0,0-15-7.62q-12.53,0-19.62,12t-7.1,34.34q0,14.42,5.22,21.93A16.78,16.78,0,0,0,1236,143.7Q1249,143.7,1256.16,131.7Z"/><path class="cls-1" d="M1314.52,147.46q-11.91-11.69-11.9-32.36,0-19.21,7.41-33.83a53.48,53.48,0,0,1,21-22.55q13.58-7.94,32-7.93,20.88,0,32.67,11.48t11.8,31.95q0,19.22-7.52,33.93A55,55,0,0,1,1378.62,151q-13.78,8.15-31.95,8.14Q1326.42,159.15,1314.52,147.46Zm56.69-15.76q7.2-12,7.2-34.35,0-14.19-5.43-21.82a17.44,17.44,0,0,0-15-7.62q-12.54,0-19.63,12t-7.1,34.34q0,14.42,5.22,21.93a16.79,16.79,0,0,0,14.62,7.51Q1364,143.7,1371.21,131.7Z"/><path class="cls-1" d="M1463.18,134.31s-2.93-13.23-8.77-39.67l-1.46-6.9h-1.67q-3.77,19.64-6.58,36t-2.82,17.85q0,4.19,4.8,4.18h5.43l.84.83-3.34,11.28-6.27-.21-14.2-.42q-4.17,0-9.29.42t-8.24.84l2.5-11.7q5-.41,7.52-3t4-8.46q13.79-62,13.79-65.77A4.36,4.36,0,0,0,1437,65.4q-2.4-1.25-8.87-1.67l-.83-1.25L1430,52q15.45.84,21.71.84,9,0,19.84-.84,4.59,30.5,11.27,63.68h1.67q12.54-27.56,27.36-63a42.35,42.35,0,0,1,5.11-.11c1.6.08,3,.11,4.07.11q2.51.21,7.52.21,4.17,0,6-.21l5-.21,11.69-.63.62.63-2.29,10.86c-4.74.28-8,1-9.71,2.19s-2.75,3.31-3,6.37q-.84,6.89-1.88,29.85t-1,33.62c0,3.9.48,6.61,1.46,8.14a5.23,5.23,0,0,0,4.8,2.3l4.8-.21a5,5,0,0,1,.63,1l-2.92,11.07q-7.93-.42-17.12-.42-5.43,0-14.1.42c-5.77.28-9.78.56-12,.84l2.71-11.7a14.72,14.72,0,0,0,7.2-2.5,8.61,8.61,0,0,0,3-5.64q.84-5.22,3.55-50.95h-1.67q-2.3,4.82-5.22,11.18t-6.68,14.3l-20.67,45.1-14,1.25Z"/></g></g></svg>