<svg xmlns="http://www.w3.org/2000/svg" xmlns:xlink="http://www.w3.org/1999/xlink" viewBox="0 0 1918.87 405.34"><defs><style>.cls-1{fill:url(#linear-gradient);}.cls-2{fill:url(#linear-gradient-2);}.cls-3{fill:url(#linear-gradient-3);}.cls-4{fill:url(#linear-gradient-4);}.cls-5{fill:url(#linear-gradient-5);}.cls-6{fill:url(#linear-gradient-6);}.cls-7{fill:url(#linear-gradient-7);}.cls-8{fill:url(#linear-gradient-8);}.cls-9{fill:url(#linear-gradient-9);}.cls-10{fill:url(#linear-gradient-10);}.cls-11{fill:url(#linear-gradient-11);}.cls-12{fill:url(#linear-gradient-12);}.cls-13{fill:url(#linear-gradient-13);}.cls-14{fill:url(#linear-gradient-14);}.cls-15{fill:url(#linear-gradient-15);}.cls-16{fill:url(#linear-gradient-16);}.cls-17{fill:url(#linear-gradient-17);}.cls-18{fill:url(#linear-gradient-18);}.cls-19,.cls-20,.cls-21,.cls-22,.cls-23,.cls-24,.cls-25,.cls-26,.cls-27,.cls-28,.cls-29,.cls-30,.cls-31,.cls-32,.cls-33,.cls-34,.cls-35,.cls-36{fill:#fff;stroke-width:3px;}.cls-19{stroke:url(#linear-gradient-19);}.cls-20{stroke:url(#linear-gradient-20);}.cls-21{stroke:url(#linear-gradient-21);}.cls-22{stroke:url(#linear-gradient-22);}.cls-23{stroke:url(#linear-gradient-23);}.cls-24{stroke:url(#linear-gradient-24);}.cls-25{stroke:url(#linear-gradient-25);}.cls-26{stroke:url(#linear-gradient-26);}.cls-27{stroke:url(#linear-gradient-27);}.cls-28{stroke:url(#linear-gradient-28);}.cls-29{stroke:url(#linear-gradient-29);}.cls-30{stroke:url(#linear-gradient-30);}.cls-31{stroke:url(#linear-gradient-31);}.cls-32{stroke:url(#linear-gradient-32);}.cls-33{stroke:url(#linear-gradient-33);}.cls-34{stroke:url(#linear-gradient-34);}.cls-35{stroke:url(#linear-gradient-35);}.cls-36{stroke:url(#linear-gradient-36);}.cls-37{fill:url(#linear-gradient-37);}.cls-38{fill:url(#linear-gradient-38);}.cls-39{fill:url(#linear-gradient-39);}.cls-40{fill:url(#linear-gradient-40);}.cls-41{fill:url(#linear-gradient-41);}.cls-42{fill:url(#linear-gradient-42);}.cls-43{fill:url(#linear-gradient-43);}.cls-44{fill:none;stroke-miterlimit:10;stroke-width:5px;stroke:url(#linear-gradient-44);}</style><linearGradient id="linear-gradient" x1="36.77" y1="127.64" x2="1619.24" y2="594.87" gradientUnits="userSpaceOnUse"><stop offset="0" stop-color="#00a651"/><stop offset="1" stop-color="#8dc63f"/></linearGradient><linearGradient id="linear-gradient-2" x1="42.33" y1="108.79" x2="1624.8" y2="576.03" xlink:href="#linear-gradient"/><linearGradient id="linear-gradient-3" x1="47.77" y1="90.38" x2="1630.24" y2="557.61" xlink:href="#linear-gradient"/><linearGradient id="linear-gradient-4" x1="54.76" y1="66.72" x2="1637.23" y2="533.95" xlink:href="#linear-gradient"/><linearGradient id="linear-gradient-5" x1="66.88" y1="25.66" x2="1649.35" y2="492.89" xlink:href="#linear-gradient"/><linearGradient id="linear-gradient-6" x1="75.68" y1="-4.14" x2="1658.15" y2="463.09" xlink:href="#linear-gradient"/><linearGradient id="linear-gradient-7" x1="82.33" y1="-26.66" x2="1664.79" y2="440.58" xlink:href="#linear-gradient"/><linearGradient id="linear-gradient-8" x1="91.28" y1="-56.97" x2="1673.75" y2="410.26" xlink:href="#linear-gradient"/><linearGradient id="linear-gradient-9" x1="97.91" y1="-79.44" x2="1680.38" y2="387.8" xlink:href="#linear-gradient"/><linearGradient id="linear-gradient-10" x1="104.12" y1="-100.48" x2="1686.59" y2="366.75" xlink:href="#linear-gradient"/><linearGradient id="linear-gradient-11" x1="117.69" y1="-146.43" x2="1700.16" y2="320.81" xlink:href="#linear-gradient"/><linearGradient id="linear-gradient-12" x1="125.99" y1="-174.55" x2="1708.46" y2="292.69" xlink:href="#linear-gradient"/><linearGradient id="linear-gradient-13" x1="132.34" y1="-196.06" x2="1714.81" y2="271.18" xlink:href="#linear-gradient"/><linearGradient id="linear-gradient-14" x1="139.33" y1="-219.72" x2="1721.8" y2="247.51" xlink:href="#linear-gradient"/><linearGradient id="linear-gradient-15" x1="145.6" y1="-240.96" x2="1728.07" y2="226.28" xlink:href="#linear-gradient"/><linearGradient id="linear-gradient-16" x1="153.37" y1="-267.27" x2="1735.84" y2="199.97" xlink:href="#linear-gradient"/><linearGradient id="linear-gradient-17" x1="160.37" y1="-290.99" x2="1742.84" y2="176.24" xlink:href="#linear-gradient"/><linearGradient id="linear-gradient-18" x1="168.1" y1="-317.17" x2="1750.57" y2="150.06" xlink:href="#linear-gradient"/><linearGradient id="linear-gradient-19" x1="87.16" y1="133.12" x2="185.32" y2="166" xlink:href="#linear-gradient"/><linearGradient id="linear-gradient-20" x1="172.31" y1="137.63" x2="237.56" y2="159.49" xlink:href="#linear-gradient"/><linearGradient id="linear-gradient-21" x1="224.18" y1="133.06" x2="322.7" y2="166.06" xlink:href="#linear-gradient"/><linearGradient id="linear-gradient-22" x1="317.62" y1="135.06" x2="404.25" y2="164.07" xlink:href="#linear-gradient"/><linearGradient id="linear-gradient-23" x1="467.81" y1="133.95" x2="555.06" y2="163.17" xlink:href="#linear-gradient"/><linearGradient id="linear-gradient-24" x1="551.08" y1="125.91" x2="640.91" y2="155.99" xlink:href="#linear-gradient"/><linearGradient id="linear-gradient-25" x1="660.62" y1="135.05" x2="747.25" y2="164.07" xlink:href="#linear-gradient"/><linearGradient id="linear-gradient-26" x1="744.6" y1="124.84" x2="835.02" y2="155.12" xlink:href="#linear-gradient"/><linearGradient id="linear-gradient-27" x1="849.13" y1="132.21" x2="946.75" y2="164.91" xlink:href="#linear-gradient"/><linearGradient id="linear-gradient-28" x1="935.18" y1="136.02" x2="1033.34" y2="168.9" xlink:href="#linear-gradient"/><linearGradient id="linear-gradient-29" x1="1087.08" y1="129.35" x2="1201.79" y2="167.77" xlink:href="#linear-gradient"/><linearGradient id="linear-gradient-30" x1="1192.97" y1="130.7" x2="1285.53" y2="161.7" xlink:href="#linear-gradient"/><linearGradient id="linear-gradient-31" x1="1284.68" y1="134.95" x2="1371.29" y2="163.95" xlink:href="#linear-gradient"/><linearGradient id="linear-gradient-32" x1="1366.13" y1="133.21" x2="1463.45" y2="165.81" xlink:href="#linear-gradient"/><linearGradient id="linear-gradient-33" x1="1452.18" y1="136.02" x2="1550.34" y2="168.9" xlink:href="#linear-gradient"/><linearGradient id="linear-gradient-34" x1="1545.81" y1="133.95" x2="1633.06" y2="163.17" xlink:href="#linear-gradient"/><linearGradient id="linear-gradient-35" x1="1633.81" y1="133.95" x2="1721.06" y2="163.17" xlink:href="#linear-gradient"/><linearGradient id="linear-gradient-36" x1="1716.08" y1="129.35" x2="1830.79" y2="167.77" xlink:href="#linear-gradient"/><linearGradient id="linear-gradient-37" x1="969.88" y1="292.14" x2="983.89" y2="294.12" xlink:href="#linear-gradient"/><linearGradient id="linear-gradient-38" x1="1048.21" y1="292.14" x2="1062.23" y2="294.12" xlink:href="#linear-gradient"/><linearGradient id="linear-gradient-39" x1="902.22" y1="292.14" x2="916.23" y2="294.12" xlink:href="#linear-gradient"/><linearGradient id="linear-gradient-40" x1="1075.95" y1="302.34" x2="1091.03" y2="304.47" xlink:href="#linear-gradient"/><linearGradient id="linear-gradient-41" x1="802.11" y1="291.19" x2="822.29" y2="294.04" xlink:href="#linear-gradient"/><linearGradient id="linear-gradient-42" x1="565.36" y1="237.87" x2="1433.44" y2="360.42" xlink:href="#linear-gradient"/><linearGradient id="linear-gradient-43" x1="1075.95" y1="280.99" x2="1091.03" y2="283.12" xlink:href="#linear-gradient"/><linearGradient id="linear-gradient-44" x1="-9.3" y1="65.91" x2="1928.18" y2="339.43" xlink:href="#linear-gradient"/></defs><title>Asset 1</title><g id="Layer_2" data-name="Layer 2"><g id="Layer_1-2" data-name="Layer 1"><path class="cls-1" d="M164,83.17q-16.28,49.23-24.51,74,16.28,49.24,24.51,73.75H145.24q-12.36-36-18.54-54.18v54.18H108.57V83.17H126.7v54.38l18.54-54.38Z"/><path class="cls-2" d="M195.7,82.75h18.54V230.87H195.7Z"/><path class="cls-3" d="M282.64,83.17h18.54v147.7H282.64q-12.36-49.23-18.54-74v74H245.76V83.17H264.1q12.36,49.23,18.54,74Z"/><path class="cls-4" d="M388.31,103.56v35H369.77V110.77a8.72,8.72,0,0,0-2.68-6.39,9,9,0,0,0-6.59-2.67,9.13,9.13,0,0,0-9.06,9.06v92.29a8.93,8.93,0,0,0,2.68,6.59,8.68,8.68,0,0,0,6.38,2.68,9.15,9.15,0,0,0,9.27-9.27V175.45H358.24V156.91h30.07v53.56a20.4,20.4,0,0,1-20.39,20.4H353.29a20.4,20.4,0,0,1-20.39-20.4V103.56a20.38,20.38,0,0,1,20.39-20.39h14.63a20.38,20.38,0,0,1,20.39,20.39Z"/><path class="cls-5" d="M538.89,103.77V209.86a21.1,21.1,0,0,1-21,21H504.29a21.1,21.1,0,0,1-21-21V103.77a21.1,21.1,0,0,1,21-21h13.59a21.1,21.1,0,0,1,21,21ZM520.35,203.88V110.15a8.43,8.43,0,0,0-8.44-8.44h-1.44a8.43,8.43,0,0,0-8.45,8.44v93.94a8.13,8.13,0,0,0,2.47,6,8.5,8.5,0,0,0,6,2.27h1.44a8.43,8.43,0,0,0,8.44-8.45Z"/><path class="cls-6" d="M626.24,83.17H645l-28.42,92.7q-.21,36.66-.21,55H598q0-36.68.21-55-18.33-61.8-27.6-92.7h18.54q12.36,43.67,18.54,65.3Q620.06,105,626.24,83.17Z"/><path class="cls-7" d="M732.12,103.56v35.23h-7q-7-.21-11.54-.21V108.92a7,7,0,0,0-7.21-7.21h-3.91a7,7,0,0,0-7.21,7.21v26.57a11.55,11.55,0,0,0,1.85,6.39,11,11,0,0,0,5.15,4.53l.82.41c.69.28,3,1.37,7,3.3q2.48,1,6.18,2.67,3.71,1.86,8.86,4.33a13,13,0,0,1,5.15,4.33,12.63,12.63,0,0,1,1.85,6.59v42.43a20.4,20.4,0,0,1-20.39,20.4H697.1a20.4,20.4,0,0,1-20.39-20.4V175.66h7c4.53-.13,8.37-.21,11.54-.21v29.67a7,7,0,0,0,7.21,7.21h3.91a7,7,0,0,0,7.21-7.21V189.46c0-2.74-.07-6.11-.21-10.09a11.55,11.55,0,0,0-1.85-6.39,13.14,13.14,0,0,0-4.94-4.53l-1-.41c-.69-.28-3-1.37-6.8-3.3-1.65-.68-3.71-1.65-6.18-2.88s-5.43-2.47-8.86-4.12a11,11,0,0,1-5.15-4.53,11.55,11.55,0,0,1-1.85-6.39V103.56A20.38,20.38,0,0,1,697.1,83.17h14.63a20.38,20.38,0,0,1,20.39,20.39Z"/><path class="cls-8" d="M763.84,82.75h74.78v19H810.4V230.87H792.06V101.71H763.84Z"/><path class="cls-9" d="M888.88,147.64h36.88v18.75H888.88v45.94h36.88v18.54H870.34V82.75h55.42v19H888.88Z"/><path class="cls-10" d="M1012.89,104.38v68.4a21.07,21.07,0,0,1-5.35,14.21,20.82,20.82,0,0,1-13.19,7l2.89,5.57q2.67,5.55,6.38,13c1.65,3.17,3.3,6.39,5,9.69s3,6.18,4.12,8.65H994.35l-2.88-5.77q-2.69-5.57-6.39-13-2.46-4.74-4.94-9.68Q977.67,197.7,976,194v5.57q-.21,5.55-.21,13v18.34H957.48V83.17h34.2a21.1,21.1,0,0,1,21.21,21.21Zm-18.54,5.15a7.72,7.72,0,0,0-7.82-7.82H976v73.54h10.51a7.55,7.55,0,0,0,5.56-2.27,7.31,7.31,0,0,0,2.26-5.35v-58.1Z"/><path class="cls-11" d="M1163.06,82.75h18.54V230.87h-18.33V170.72q-7.83,40.17-11.74,60.15h-13.6q-7.83-40-11.53-60v60h-18.54V82.75h18.33L1144.73,168Q1156.88,111.18,1163.06,82.75Z"/><path class="cls-12" d="M1250,205.94V83.17h18.75v129a17.58,17.58,0,0,1-5.56,13.19,18.06,18.06,0,0,1-13.19,5.56h-17.92a19,19,0,0,1-18.74-18.75V83.17h18.74V205.94a6.13,6.13,0,0,0,1.86,4.53,6.85,6.85,0,0,0,4.73,1.86h4.74a6.85,6.85,0,0,0,4.74-1.86A6.12,6.12,0,0,0,1250,205.94Z"/><path class="cls-13" d="M1355.88,103.56v35.23h-7q-7-.21-11.53-.21V108.92a7,7,0,0,0-7.21-7.21h-3.92a7,7,0,0,0-7.21,7.21v26.57a11.56,11.56,0,0,0,1.86,6.39,11,11,0,0,0,5.15,4.53l.82.41c.69.28,3,1.37,7,3.3q2.48,1,6.18,2.67,3.72,1.86,8.86,4.33a12.94,12.94,0,0,1,5.15,4.33,12.55,12.55,0,0,1,1.86,6.59v42.43a20.42,20.42,0,0,1-20.4,20.4h-14.62a20.42,20.42,0,0,1-20.4-20.4V175.66h7c4.53-.13,8.37-.21,11.53-.21v29.67a7,7,0,0,0,7.21,7.21h3.92a7,7,0,0,0,7.21-7.21V189.46c0-2.74-.08-6.11-.21-10.09a11.63,11.63,0,0,0-1.85-6.39,13.17,13.17,0,0,0-5-4.53l-1-.41c-.69-.28-3-1.37-6.8-3.3-1.64-.68-3.7-1.65-6.18-2.88s-5.42-2.47-8.85-4.12a11,11,0,0,1-5.15-4.53,11.56,11.56,0,0,1-1.86-6.39V103.56a20.4,20.4,0,0,1,20.4-20.39h14.62a20.4,20.4,0,0,1,20.4,20.39Z"/><path class="cls-14" d="M1424.47,83.17H1443v147.7h-18.54V166.8h-18.33v64.07H1387.6V83.17h18.54v64.06h18.33Z"/><path class="cls-15" d="M1530.15,104.38v68.4a21.08,21.08,0,0,1-5.36,14.21,20.77,20.77,0,0,1-13.18,7l2.88,5.57q2.67,5.55,6.39,13c1.65,3.17,3.29,6.39,4.94,9.69s3,6.18,4.12,8.65h-18.33l-2.89-5.77q-2.67-5.57-6.38-13-2.47-4.74-4.95-9.68-2.46-4.74-4.12-8.45v5.57q-.21,5.55-.2,13v18.34h-18.34V83.17h34.2a21.1,21.1,0,0,1,21.22,21.21Zm-18.54,5.15a7.74,7.74,0,0,0-7.83-7.82h-10.51v73.54h10.51a7.54,7.54,0,0,0,5.56-2.27,7.32,7.32,0,0,0,2.27-5.35v-58.1Z"/><path class="cls-16" d="M1617.49,103.77V209.86a21.1,21.1,0,0,1-21,21h-13.6a21.1,21.1,0,0,1-21-21V103.77a21.1,21.1,0,0,1,21-21h13.6a21.1,21.1,0,0,1,21,21ZM1599,203.88V110.15a8.43,8.43,0,0,0-8.45-8.44h-1.44a8.43,8.43,0,0,0-8.44,8.44v93.94a8.13,8.13,0,0,0,2.47,6,8.47,8.47,0,0,0,6,2.27h1.44a8.43,8.43,0,0,0,8.45-8.45Z"/><path class="cls-17" d="M1704.83,103.77V209.86a21.1,21.1,0,0,1-21,21h-13.6a21.1,21.1,0,0,1-21-21V103.77a21.1,21.1,0,0,1,21-21h13.6a21.1,21.1,0,0,1,21,21Zm-18.54,100.11V110.15a8.43,8.43,0,0,0-8.44-8.44h-1.45a8.43,8.43,0,0,0-8.44,8.44v93.94a8.13,8.13,0,0,0,2.47,6,8.49,8.49,0,0,0,6,2.27h1.45a8.43,8.43,0,0,0,8.44-8.45Z"/><path class="cls-18" d="M1791.76,82.75h18.54V230.87H1792V170.72q-7.83,40.17-11.74,60.15h-13.6q-7.83-40-11.53-60v60h-18.54V82.75h18.33L1773.43,168Q1785.58,111.18,1791.76,82.75Z"/><path class="cls-19" d="M163.46,75.56q-16.15,49.34-24.34,74.1,16.15,49.34,24.34,73.9H144.85q-12.28-36.12-18.41-54.29v54.29h-18v-148h18v54.49l18.41-54.49Z"/><path class="cls-20" d="M195.44,74.56h19v148h-19Z"/><path class="cls-21" d="M282.44,75.56h19v148h-18.5q-12.35-49.34-18.5-74.1v74.1h-19v-148h18.39q12.41,49.34,18.61,74.1Z"/><path class="cls-22" d="M388.44,96v34.56h-19v-27.9a8.86,8.86,0,0,0-2.63-6.41,8.73,8.73,0,0,0-6.47-2.69,8.47,8.47,0,0,0-6.27,2.69,8.82,8.82,0,0,0-2.63,6.41v92.6a9,9,0,0,0,2.63,6.61,8.43,8.43,0,0,0,6.27,2.69,8.7,8.7,0,0,0,6.47-2.69,9.09,9.09,0,0,0,2.63-6.61v-27.7h-11v-19h30V203a20.25,20.25,0,0,1-4.77,13.27,19.63,19.63,0,0,1-15.48,7.25H353.68a19.37,19.37,0,0,1-14.31-6,19.74,19.74,0,0,1-5.93-14.45v-107a20.24,20.24,0,0,1,4.75-13.26,19.64,19.64,0,0,1,15.49-7.26h14.51a19.44,19.44,0,0,1,14.32,6A19.78,19.78,0,0,1,388.44,96Z"/><path class="cls-23" d="M539.44,95.56v106a20.11,20.11,0,0,1-6.23,14.82,20.41,20.41,0,0,1-14.93,6.18H504.59a20.43,20.43,0,0,1-14.93-6.18,20.11,20.11,0,0,1-6.22-14.82v-106a20.11,20.11,0,0,1,6.22-14.82,20.43,20.43,0,0,1,14.93-6.18h13.69a20.41,20.41,0,0,1,14.93,6.18A20.11,20.11,0,0,1,539.44,95.56ZM518.62,201.4a8.44,8.44,0,0,0,1.82-5.34v-94a8.42,8.42,0,0,0-1.82-5.34,8,8,0,0,0-6.48-3.16H511a8.48,8.48,0,0,0-6,2.36,8.25,8.25,0,0,0-2.55,6.12v94.25a8,8,0,0,0,8.29,8.27h1.41A8,8,0,0,0,518.62,201.4Z"/><path class="cls-24" d="M626.19,75.56H645l-28.49,92.89q-.21,36.74-.21,55.11H597.91q0-36.74.21-55.11-18.37-61.93-27.66-92.89H589q12.38,43.77,18.57,65.43Q620,97.45,626.19,75.56Z"/><path class="cls-25" d="M731.44,96v34.61h-6.8c-4.54-.13-8.27-.21-11.2-.21v-29.6a7.08,7.08,0,0,0-2-5.13,6.7,6.7,0,0,0-5-2.06h-4a6.74,6.74,0,0,0-5,2.06,7.07,7.07,0,0,0-2,5.15v26.57a11.74,11.74,0,0,0,1.81,6.39,10.81,10.81,0,0,0,5,4.53l.81.41q1,.42,6.84,3.3,2.42,1,6,2.68c2.41,1.23,5.3,2.68,8.65,4.32a11.55,11.55,0,0,1,6.84,10.92v43.16a20.27,20.27,0,0,1-4.78,13.29,19.64,19.64,0,0,1-15.47,7.22H696.68a19.42,19.42,0,0,1-14.31-6,19.71,19.71,0,0,1-5.93-14.42V167.56h7.17q7-.21,11.83-.21v29.93a7,7,0,0,0,2.11,5.2,7.18,7.18,0,0,0,5.28,2.08h3.37a7,7,0,0,0,5.17-2.06,7,7,0,0,0,2.07-5.15V181.69c0-2.74-.08-6.1-.21-10.09a11.58,11.58,0,0,0-1.86-6.39,13.2,13.2,0,0,0-5-4.53l-1-.41q-1-.41-6.82-3.3-2.47-1-6.2-2.88-3.72-1.65-8.89-4.12a11,11,0,0,1-5.16-4.53,11.53,11.53,0,0,1-1.86-6.39v-43a20.28,20.28,0,0,1,4.77-13.28,19.67,19.67,0,0,1,15.47-7.22h14.51a19.46,19.46,0,0,1,14.32,6A19.75,19.75,0,0,1,731.44,96Z"/><path class="cls-26" d="M763.44,74.56h75v19h-28v129h-18v-129h-29Z"/><path class="cls-27" d="M888.44,139.56h37v19h-37v46h37v18h-55v-148h55v19h-37Z"/><path class="cls-28" d="M1012.44,96.82v68.53a21.22,21.22,0,0,1-5.32,14.24,20.64,20.64,0,0,1-13.09,7l2.87,5.57q2.65,5.58,6.33,13,2.46,4.76,4.91,9.7t4.09,8.67h-18l-2.88-6.27q-2.68-5.56-6.39-13-2.47-4.73-4.94-9.68c-1.65-3.16-3-6-4.62-8.44v5.56a86.08,86.08,0,0,1,0,13v18.83h-18v-148h33.94a20.2,20.2,0,0,1,14.92,6.19A20.63,20.63,0,0,1,1012.44,96.82Zm-18,4.62a7.73,7.73,0,0,0-2.23-5.6,7.32,7.32,0,0,0-5.46-2.28H976.44v74h10.31a7.32,7.32,0,0,0,5.46-2.28,7.48,7.48,0,0,0,2.23-5.39V101.44Z"/><path class="cls-29" d="M1164,74.56h17.43v148h-18V162.45q-7.7,40.14-11.53,60.11h-13.65q-8-39.93-11.82-59.9v59.9h-19v-148h18.79l19,85.22Q1157.68,103,1164,74.56Z"/><path class="cls-30" d="M1250.44,198.18V75.56h18V204.78a18.94,18.94,0,0,1-18.61,18.78H1232A17.37,17.37,0,0,1,1219,218a17.7,17.7,0,0,1-5.52-13.21V75.56h19V198.18a6.15,6.15,0,0,0,1.86,4.53,6.92,6.92,0,0,0,4.76,1.85h4.76a6.93,6.93,0,0,0,4.75-1.85A6.12,6.12,0,0,0,1250.44,198.18Z"/><path class="cls-31" d="M1356.44,96v34.61h-7.18c-4.79-.13-8.73-.21-11.82-.21v-29.6a6.89,6.89,0,0,0-2.11-5.13,7.28,7.28,0,0,0-5.28-2.06h-4.38a7,7,0,0,0-5.17,2.06,7,7,0,0,0-2.06,5.15v26.57a11.53,11.53,0,0,0,1.86,6.39,11,11,0,0,0,5.16,4.53l.83.41q1,.42,7,3.3,2.48,1,6.2,2.68c2.48,1.23,5.44,2.68,8.89,4.32a13.23,13.23,0,0,1,5.17,4.33,12.58,12.58,0,0,1,1.86,6.59v43.16a20.27,20.27,0,0,1-4.78,13.29,19.64,19.64,0,0,1-15.47,7.22h-14.51a19.42,19.42,0,0,1-14.31-6,19.71,19.71,0,0,1-5.93-14.42V167.56h7.17q7-.21,11.83-.21v29.93a7,7,0,0,0,2.11,5.2,7.18,7.18,0,0,0,5.28,2.08h3.37a7,7,0,0,0,5.17-2.06,7,7,0,0,0,2.07-5.15V181.69c0-2.74-.08-6.1-.21-10.09a11.58,11.58,0,0,0-1.86-6.39,13.2,13.2,0,0,0-5-4.53l-1-.41q-1-.41-6.82-3.3-2.47-1-6.2-2.88-3.72-1.65-8.89-4.12a11,11,0,0,1-5.16-4.53,11.53,11.53,0,0,1-1.86-6.39V96.17a20.47,20.47,0,0,1,20.61-20.61h14.78a20,20,0,0,1,14.57,6A19.58,19.58,0,0,1,1356.44,96Z"/><path class="cls-32" d="M1424.44,75.56h18v147h-18v-64h-18v65h-19v-148h19v64h18Z"/><path class="cls-33" d="M1529.44,96.82v68.53a21.22,21.22,0,0,1-5.32,14.24,20.64,20.64,0,0,1-13.09,7l2.87,5.57q2.65,5.58,6.33,13,2.46,4.76,4.91,9.7t4.09,8.67h-17.7l-2.89-6.27q-2.69-5.56-6.39-13-2.46-4.73-4.94-9.68a61.1,61.1,0,0,0-4.87-8.44v5.56c.61,3.71.55,8,1,13v18.83h-19v-148h33.94a20.2,20.2,0,0,1,14.92,6.19A20.63,20.63,0,0,1,1529.44,96.82Zm-18,4.62a7.73,7.73,0,0,0-2.23-5.6,7.32,7.32,0,0,0-5.46-2.28h-10.31v74h10.31a7.32,7.32,0,0,0,5.46-2.28,7.48,7.48,0,0,0,2.23-5.39V101.44Z"/><path class="cls-34" d="M1617.44,95.56v106a20.11,20.11,0,0,1-6.23,14.82,20.41,20.41,0,0,1-14.93,6.18h-13.69a20.43,20.43,0,0,1-14.93-6.18,20.11,20.11,0,0,1-6.22-14.82v-106a20.11,20.11,0,0,1,6.22-14.82,20.43,20.43,0,0,1,14.93-6.18h13.69a20.41,20.41,0,0,1,14.93,6.18A20.11,20.11,0,0,1,1617.44,95.56ZM1596.62,201.4a8.42,8.42,0,0,0,1.82-5.34v-94a8.42,8.42,0,0,0-1.82-5.34,8,8,0,0,0-6.48-3.16H1589a8.46,8.46,0,0,0-6,2.36,8.25,8.25,0,0,0-2.55,6.12v94.25a8,8,0,0,0,8.29,8.27h1.41A8,8,0,0,0,1596.62,201.4Z"/><path class="cls-35" d="M1705.44,95.56v106a20.11,20.11,0,0,1-6.23,14.82,20.41,20.41,0,0,1-14.93,6.18h-13.69a20.43,20.43,0,0,1-14.93-6.18,20.11,20.11,0,0,1-6.22-14.82v-106a20.11,20.11,0,0,1,6.22-14.82,20.43,20.43,0,0,1,14.93-6.18h13.69a20.41,20.41,0,0,1,14.93,6.18A20.11,20.11,0,0,1,1705.44,95.56ZM1684.62,201.4a8.42,8.42,0,0,0,1.82-5.34v-94a8.42,8.42,0,0,0-1.82-5.34,8,8,0,0,0-6.48-3.16H1677a8.46,8.46,0,0,0-6,2.36,8.25,8.25,0,0,0-2.55,6.12v94.25a8,8,0,0,0,8.29,8.27h1.41A8,8,0,0,0,1684.62,201.4Z"/><path class="cls-36" d="M1793,74.56h17.43v148h-18V162.45q-7.7,40.14-11.53,60.11h-13.65q-8-39.93-11.82-59.9v59.9h-19v-148h18.79l19,85.22Q1786.68,103,1793,74.56Z"/><path class="cls-37" d="M976.41,292.44l-.95-6.39q-.48-3.19-.89-5.57l-.54,3.67q-.56,3.68-1.29,8.5-.48,3.12-1,6.32c-.31,2.13-.59,4-.81,5.65h7.27l-.61-3.74Q977.09,297.21,976.41,292.44Z"/><path class="cls-38" d="M1054.74,292.44l-1-6.39q-.48-3.19-.88-5.57l-.55,3.67q-.54,3.68-1.29,8.5-.48,3.12-1,6.32t-.82,5.65h7.28l-.61-3.74C1055.6,298.43,1055.2,295.62,1054.74,292.44Z"/><path class="cls-39" d="M908.75,292.44l-1-6.39q-.48-3.19-.89-5.57l-.54,3.67q-.55,3.68-1.29,8.5-.48,3.12-1,6.32c-.31,2.13-.59,4-.81,5.65h7.27l-.61-3.74Q909.43,297.21,908.75,292.44Z"/><path class="cls-40" d="M1083.23,295.57H1080v15.17h3.26a2.72,2.72,0,0,0,2-.82,2.69,2.69,0,0,0,.81-2v-9.59a2.78,2.78,0,0,0-2.79-2.79Z"/><path class="cls-41" d="M811.51,274.22H811a2.78,2.78,0,0,0-2.78,2.79v31a2.7,2.7,0,0,0,.81,2,2.82,2.82,0,0,0,2,.75h.48a2.7,2.7,0,0,0,2-.82,2.66,2.66,0,0,0,.82-2V277a2.8,2.8,0,0,0-2.79-2.79Z"/><path class="cls-42" d="M739.3,256.23v74.55h440.27V256.23Zm52.29,56.48v4.15h-6.12q-4.08-16.26-6.12-24.42v24.42h-6.06V268.1h6.06q4.08,16.26,6.12,24.41V268.1h6.12Zm28.83-37.33v34.54a7,7,0,0,1-6.94,6.94H809a7,7,0,0,1-6.93-6.94v-35A7,7,0,0,1,809,268h4.49a7,7,0,0,1,6.94,6.94Zm35.9,41.48h-6.39q-1.29-7-1.9-10.54-1.31,7-1.91,10.54h-6.39q-5.93-32.5-8.84-48.76h5.91q4.22,24.34,6.33,36.45,1.29-8,1.9-11.9h6.19q1.37,8,2.11,11.9,3.87-24.29,5.85-36.45h6Q859.25,300.6,856.32,316.86Zm61.74,0h-5.23l-.48-2.25c-.27-1.54-.5-2.81-.68-3.81h-9.52l-.41,2.25c-.27,1.54-.5,2.81-.68,3.81h-6.32l.2-1c.09-.68.25-1.64.48-2.86q.62-3.33,1.56-8.84l2-11.83q1.15-6.46,2.32-12.85t2-11.36h7.27l.14,1c.14.68.32,1.63.54,2.86q.56,3.33,1.57,8.9t2,11.77q1.15,6.47,2.24,12.92t2,11.29Zm25,0H936.7q-5.93-32.5-8.84-48.76h5.91q4.22,24.34,6.33,36.45,3.87-24.29,5.84-36.45h6Q946,300.6,943.09,316.86Zm42.63,0h-5.23l-.48-2.25c-.27-1.54-.5-2.81-.68-3.81h-9.52l-.41,2.25c-.27,1.54-.5,2.81-.68,3.81H962.4l.2-1c.09-.68.25-1.64.48-2.86q.61-3.33,1.56-8.84l2-11.83q1.16-6.46,2.32-12.85t2-11.36h7.27l.14,1c.14.68.32,1.63.54,2.86q.55,3.33,1.57,8.9t2,11.77q1.15,6.47,2.24,12.92t2,11.29Zm15.92,0h-6.12V268h6.12Zm28.69,0H1012V268h6.12v42.78h12.17Zm33.73,0h-5.24l-.47-2.25c-.28-1.54-.5-2.81-.68-3.81h-9.52l-.41,2.25c-.27,1.54-.5,2.81-.68,3.81h-6.33l.21-1c.09-.68.25-1.64.47-2.86q.61-3.33,1.57-8.84t2-11.83q1.15-6.46,2.31-12.85t2-11.36h7.28l.13,1c.14.68.32,1.63.55,2.86q.54,3.33,1.56,8.9t2,11.77q1.16,6.47,2.25,12.92t2,11.29Zm28.08-41.35v11.15a6.44,6.44,0,0,1-.88,3.34,7,7,0,0,1-2.38,2.51,6.51,6.51,0,0,1,2.38,2.45,6.79,6.79,0,0,1,.88,3.4v11.56a7,7,0,0,1-6.93,6.94h-11.36V268.1h11.36a7,7,0,0,1,6.93,6.94Zm28.77,41.35h-18.3V268h6.12v42.78h12.18Zm28.69-42.64h-12.17v15.16h12.17v6.19h-12.17v15.17h12.17v6.12h-18.29V268h18.29Z"/><path class="cls-43" d="M1083.23,274.22H1080v15.16h3.26a2.77,2.77,0,0,0,2.79-2.78V277a2.78,2.78,0,0,0-2.79-2.79Z"/><rect class="cls-44" x="2.5" y="2.5" width="1913.87" height="400.34"/></g></g></svg>